<svg class="main-svg" xmlns="http://www.w3.org/2000/svg" xmlns:xlink="http://www.w3.org/1999/xlink" width="200" height="250" style="" viewBox="0 0 200 250"><rect x="0" y="0" width="200" height="250" style="fill: rgb(255, 255, 255); fill-opacity: 1;"/><defs id="defs-425217"><g class="clips"><clipPath id="clip425217xyplot" class="plotclip"><rect width="102" height="196"/></clipPath><clipPath class="axesclip" id="clip425217x"><rect x="33" y="0" width="102" height="250"/></clipPath><clipPath class="axesclip" id="clip425217y"><rect x="0" y="20" width="200" height="196"/></clipPath><clipPath class="axesclip" id="clip425217xy"><rect x="33" y="20" width="102" height="196"/></clipPath></g><g class="gradients"/><g class="patterns"/></defs><g class="bglayer"><rect class="bg" x="33" y="20" width="102" height="196" style="fill: rgb(229, 236, 246); fill-opacity: 1; stroke-width: 0;"/></g><g class="layer-below"><g class="imagelayer"/><g class="shapelayer"/></g><g class="cartesianlayer"><g class="subplot xy"><g class="layer-subplot"><g class="shapelayer"/><g class="imagelayer"/></g><g class="minor-gridlayer"><g class="x"/><g class="y"/></g><g class="gridlayer"><g class="x"><path class="xgrid crisp" transform="translate(41.1,0)" d="M0,20v196" style="stroke: rgb(255, 255, 255); stroke-opacity: 1; stroke-width: 1px;"/><path class="xgrid crisp" transform="translate(69.7,0)" d="M0,20v196" style="stroke: rgb(255, 255, 255); stroke-opacity: 1; stroke-width: 1px;"/><path class="xgrid crisp" transform="translate(98.3,0)" d="M0,20v196" style="stroke: rgb(255, 255, 255); stroke-opacity: 1; stroke-width: 1px;"/><path class="xgrid crisp" transform="translate(126.9,0)" d="M0,20v196" style="stroke: rgb(255, 255, 255); stroke-opacity: 1; stroke-width: 1px;"/></g><g class="y"><path class="ygrid crisp" transform="translate(0,179.06)" d="M33,0h102" style="stroke: rgb(255, 255, 255); stroke-opacity: 1; stroke-width: 1px;"/><path class="ygrid crisp" transform="translate(0,142.13)" d="M33,0h102" style="stroke: rgb(255, 255, 255); stroke-opacity: 1; stroke-width: 1px;"/><path class="ygrid crisp" transform="translate(0,105.19)" d="M33,0h102" style="stroke: rgb(255, 255, 255); stroke-opacity: 1; stroke-width: 1px;"/><path class="ygrid crisp" transform="translate(0,68.25)" d="M33,0h102" style="stroke: rgb(255, 255, 255); stroke-opacity: 1; stroke-width: 1px;"/><path class="ygrid crisp" transform="translate(0,31.32)" d="M33,0h102" style="stroke: rgb(255, 255, 255); stroke-opacity: 1; stroke-width: 1px;"/></g></g><g class="zerolinelayer"><path class="yzl zl crisp" transform="translate(0,216)" d="M33,0h102" style="stroke: rgb(255, 255, 255); stroke-opacity: 1; stroke-width: 2px;"/></g><path class="xlines-below"/><path class="ylines-below"/><g class="overlines-below"/><g class="xaxislayer-below"/><g class="yaxislayer-below"/><g class="overaxes-below"/><g class="plot" transform="translate(33,20)" clip-path="url(#clip425217xyplot)"><g class="scatterlayer mlayer"><g class="trace scatter trace9e3acd" style="stroke-miterlimit: 2; opacity: 0.7;"><g class="fills"/><g class="errorbars"/><g class="lines"><path class="js-line" d="M8.1,38.43L36.7,136.55L65.3,152.5L93.9,160.98" style="vector-effect: non-scaling-stroke; fill: none; stroke: rgb(164, 49, 160); stroke-opacity: 1; stroke-width: 1.5px; opacity: 1;"/></g><g class="points"><path class="point" transform="translate(8.1,38.43)" d="M1,0A1,1 0 1,1 0,-1A1,1 0 0,1 1,0Z" style="opacity: 1; stroke-width: 0px; fill: rgb(164, 49, 160); fill-opacity: 1;"/><path class="point" transform="translate(36.7,136.55)" d="M1,0A1,1 0 1,1 0,-1A1,1 0 0,1 1,0Z" style="opacity: 1; stroke-width: 0px; fill: rgb(164, 49, 160); fill-opacity: 1;"/><path class="point" transform="translate(65.3,152.5)" d="M1,0A1,1 0 1,1 0,-1A1,1 0 0,1 1,0Z" style="opacity: 1; stroke-width: 0px; fill: rgb(164, 49, 160); fill-opacity: 1;"/><path class="point" transform="translate(93.9,160.98)" d="M1,0A1,1 0 1,1 0,-1A1,1 0 0,1 1,0Z" style="opacity: 1; stroke-width: 0px; fill: rgb(164, 49, 160); fill-opacity: 1;"/></g><g class="text"/></g><g class="trace scatter trace326ab0" style="stroke-miterlimit: 2; opacity: 0.7;"><g class="fills"/><g class="errorbars"/><g class="lines"><path class="js-line" d="M8.1,117L36.7,122.86L65.3,148.57L93.9,156.8" style="vector-effect: non-scaling-stroke; fill: none; stroke: rgb(164, 49, 160); stroke-opacity: 1; stroke-width: 1.5px; opacity: 1;"/></g><g class="points"><path class="point" transform="translate(8.1,117)" d="M1,0A1,1 0 1,1 0,-1A1,1 0 0,1 1,0Z" style="opacity: 1; stroke-width: 0px; fill: rgb(164, 49, 160); fill-opacity: 1;"/><path class="point" transform="translate(36.7,122.86)" d="M1,0A1,1 0 1,1 0,-1A1,1 0 0,1 1,0Z" style="opacity: 1; stroke-width: 0px; fill: rgb(164, 49, 160); fill-opacity: 1;"/><path class="point" transform="translate(65.3,148.57)" d="M1,0A1,1 0 1,1 0,-1A1,1 0 0,1 1,0Z" style="opacity: 1; stroke-width: 0px; fill: rgb(164, 49, 160); fill-opacity: 1;"/><path class="point" transform="translate(93.9,156.8)" d="M1,0A1,1 0 1,1 0,-1A1,1 0 0,1 1,0Z" style="opacity: 1; stroke-width: 0px; fill: rgb(164, 49, 160); fill-opacity: 1;"/></g><g class="text"/></g><g class="trace scatter trace2d34b0" style="stroke-miterlimit: 2; opacity: 0.7;"><g class="fills"/><g class="errorbars"/><g class="lines"><path class="js-line" d="M8.1,12.8L36.7,125.19L65.3,144.24L93.9,154.69" style="vector-effect: non-scaling-stroke; fill: none; stroke: rgb(164, 49, 160); stroke-opacity: 1; stroke-width: 1.5px; opacity: 1;"/></g><g class="points"><path class="point" transform="translate(8.1,12.8)" d="M1,0A1,1 0 1,1 0,-1A1,1 0 0,1 1,0Z" style="opacity: 1; stroke-width: 0px; fill: rgb(164, 49, 160); fill-opacity: 1;"/><path class="point" transform="translate(36.7,125.19)" d="M1,0A1,1 0 1,1 0,-1A1,1 0 0,1 1,0Z" style="opacity: 1; stroke-width: 0px; fill: rgb(164, 49, 160); fill-opacity: 1;"/><path class="point" transform="translate(65.3,144.24)" d="M1,0A1,1 0 1,1 0,-1A1,1 0 0,1 1,0Z" style="opacity: 1; stroke-width: 0px; fill: rgb(164, 49, 160); fill-opacity: 1;"/><path class="point" transform="translate(93.9,154.69)" d="M1,0A1,1 0 1,1 0,-1A1,1 0 0,1 1,0Z" style="opacity: 1; stroke-width: 0px; fill: rgb(164, 49, 160); fill-opacity: 1;"/></g><g class="text"/></g><g class="trace scatter trace274d73" style="stroke-miterlimit: 2; opacity: 0.7;"><g class="fills"/><g class="errorbars"/><g class="lines"><path class="js-line" d="M8.1,87.04L36.7,132.01L65.3,143.2L93.9,153.92" style="vector-effect: non-scaling-stroke; fill: none; stroke: rgb(164, 49, 160); stroke-opacity: 1; stroke-width: 1.5px; opacity: 1;"/></g><g class="points"><path class="point" transform="translate(8.1,87.04)" d="M1,0A1,1 0 1,1 0,-1A1,1 0 0,1 1,0Z" style="opacity: 1; stroke-width: 0px; fill: rgb(164, 49, 160); fill-opacity: 1;"/><path class="point" transform="translate(36.7,132.01)" d="M1,0A1,1 0 1,1 0,-1A1,1 0 0,1 1,0Z" style="opacity: 1; stroke-width: 0px; fill: rgb(164, 49, 160); fill-opacity: 1;"/><path class="point" transform="translate(65.3,143.2)" d="M1,0A1,1 0 1,1 0,-1A1,1 0 0,1 1,0Z" style="opacity: 1; stroke-width: 0px; fill: rgb(164, 49, 160); fill-opacity: 1;"/><path class="point" transform="translate(93.9,153.92)" d="M1,0A1,1 0 1,1 0,-1A1,1 0 0,1 1,0Z" style="opacity: 1; stroke-width: 0px; fill: rgb(164, 49, 160); fill-opacity: 1;"/></g><g class="text"/></g><g class="trace scatter tracefbea6e" style="stroke-miterlimit: 2; opacity: 0.7;"><g class="fills"/><g class="errorbars"/><g class="lines"><path class="js-line" d="M8.1,114.88L36.7,131.12L65.3,144.79L93.9,151.57" style="vector-effect: non-scaling-stroke; fill: none; stroke: rgb(164, 49, 160); stroke-opacity: 1; stroke-width: 1.5px; opacity: 1;"/></g><g class="points"><path class="point" transform="translate(8.1,114.88)" d="M1,0A1,1 0 1,1 0,-1A1,1 0 0,1 1,0Z" style="opacity: 1; stroke-width: 0px; fill: rgb(164, 49, 160); fill-opacity: 1;"/><path class="point" transform="translate(36.7,131.12)" d="M1,0A1,1 0 1,1 0,-1A1,1 0 0,1 1,0Z" style="opacity: 1; stroke-width: 0px; fill: rgb(164, 49, 160); fill-opacity: 1;"/><path class="point" transform="translate(65.3,144.79)" d="M1,0A1,1 0 1,1 0,-1A1,1 0 0,1 1,0Z" style="opacity: 1; stroke-width: 0px; fill: rgb(164, 49, 160); fill-opacity: 1;"/><path class="point" transform="translate(93.9,151.57)" d="M1,0A1,1 0 1,1 0,-1A1,1 0 0,1 1,0Z" style="opacity: 1; stroke-width: 0px; fill: rgb(164, 49, 160); fill-opacity: 1;"/></g><g class="text"/></g><g class="trace scatter trace916844" style="stroke-miterlimit: 2; opacity: 0.7;"><g class="fills"/><g class="errorbars"/><g class="lines"><path class="js-line" d="M8.1,94.39L36.7,144.82L65.3,158.9L93.9,163.97" style="vector-effect: non-scaling-stroke; fill: none; stroke: rgb(234, 79, 136); stroke-opacity: 1; stroke-width: 1.5px; opacity: 1;"/></g><g class="points"><path class="point" transform="translate(8.1,94.39)" d="M1,0A1,1 0 1,1 0,-1A1,1 0 0,1 1,0Z" style="opacity: 1; stroke-width: 0px; fill: rgb(234, 79, 136); fill-opacity: 1;"/><path class="point" transform="translate(36.7,144.82)" d="M1,0A1,1 0 1,1 0,-1A1,1 0 0,1 1,0Z" style="opacity: 1; stroke-width: 0px; fill: rgb(234, 79, 136); fill-opacity: 1;"/><path class="point" transform="translate(65.3,158.9)" d="M1,0A1,1 0 1,1 0,-1A1,1 0 0,1 1,0Z" style="opacity: 1; stroke-width: 0px; fill: rgb(234, 79, 136); fill-opacity: 1;"/><path class="point" transform="translate(93.9,163.97)" d="M1,0A1,1 0 1,1 0,-1A1,1 0 0,1 1,0Z" style="opacity: 1; stroke-width: 0px; fill: rgb(234, 79, 136); fill-opacity: 1;"/></g><g class="text"/></g><g class="trace scatter tracebd0286" style="stroke-miterlimit: 2; opacity: 0.7;"><g class="fills"/><g class="errorbars"/><g class="lines"><path class="js-line" d="M8.1,94.24L36.7,139.45L65.3,149.15L93.9,159.76" style="vector-effect: non-scaling-stroke; fill: none; stroke: rgb(234, 79, 136); stroke-opacity: 1; stroke-width: 1.5px; opacity: 1;"/></g><g class="points"><path class="point" transform="translate(8.1,94.24)" d="M1,0A1,1 0 1,1 0,-1A1,1 0 0,1 1,0Z" style="opacity: 1; stroke-width: 0px; fill: rgb(234, 79, 136); fill-opacity: 1;"/><path class="point" transform="translate(36.7,139.45)" d="M1,0A1,1 0 1,1 0,-1A1,1 0 0,1 1,0Z" style="opacity: 1; stroke-width: 0px; fill: rgb(234, 79, 136); fill-opacity: 1;"/><path class="point" transform="translate(65.3,149.15)" d="M1,0A1,1 0 1,1 0,-1A1,1 0 0,1 1,0Z" style="opacity: 1; stroke-width: 0px; fill: rgb(234, 79, 136); fill-opacity: 1;"/><path class="point" transform="translate(93.9,159.76)" d="M1,0A1,1 0 1,1 0,-1A1,1 0 0,1 1,0Z" style="opacity: 1; stroke-width: 0px; fill: rgb(234, 79, 136); fill-opacity: 1;"/></g><g class="text"/></g><g class="trace scatter tracecde508" style="stroke-miterlimit: 2; opacity: 0.7;"><g class="fills"/><g class="errorbars"/><g class="lines"><path class="js-line" d="M8.1,29.15L36.7,95.54L65.3,150.19L93.9,132.83" style="vector-effect: non-scaling-stroke; fill: none; stroke: rgb(234, 79, 136); stroke-opacity: 1; stroke-width: 1.5px; opacity: 1;"/></g><g class="points"><path class="point" transform="translate(8.1,29.15)" d="M1,0A1,1 0 1,1 0,-1A1,1 0 0,1 1,0Z" style="opacity: 1; stroke-width: 0px; fill: rgb(234, 79, 136); fill-opacity: 1;"/><path class="point" transform="translate(36.7,95.54)" d="M1,0A1,1 0 1,1 0,-1A1,1 0 0,1 1,0Z" style="opacity: 1; stroke-width: 0px; fill: rgb(234, 79, 136); fill-opacity: 1;"/><path class="point" transform="translate(65.3,150.19)" d="M1,0A1,1 0 1,1 0,-1A1,1 0 0,1 1,0Z" style="opacity: 1; stroke-width: 0px; fill: rgb(234, 79, 136); fill-opacity: 1;"/><path class="point" transform="translate(93.9,132.83)" d="M1,0A1,1 0 1,1 0,-1A1,1 0 0,1 1,0Z" style="opacity: 1; stroke-width: 0px; fill: rgb(234, 79, 136); fill-opacity: 1;"/></g><g class="text"/></g><g class="trace scatter traceb50ffa" style="stroke-miterlimit: 2; opacity: 0.7;"><g class="fills"/><g class="errorbars"/><g class="lines"><path class="js-line" d="M8.1,87.85L36.7,146.78L65.3,156.41L93.9,150.81" style="vector-effect: non-scaling-stroke; fill: none; stroke: rgb(234, 79, 136); stroke-opacity: 1; stroke-width: 1.5px; opacity: 1;"/></g><g class="points"><path class="point" transform="translate(8.1,87.85)" d="M1,0A1,1 0 1,1 0,-1A1,1 0 0,1 1,0Z" style="opacity: 1; stroke-width: 0px; fill: rgb(234, 79, 136); fill-opacity: 1;"/><path class="point" transform="translate(36.7,146.78)" d="M1,0A1,1 0 1,1 0,-1A1,1 0 0,1 1,0Z" style="opacity: 1; stroke-width: 0px; fill: rgb(234, 79, 136); fill-opacity: 1;"/><path class="point" transform="translate(65.3,156.41)" d="M1,0A1,1 0 1,1 0,-1A1,1 0 0,1 1,0Z" style="opacity: 1; stroke-width: 0px; fill: rgb(234, 79, 136); fill-opacity: 1;"/><path class="point" transform="translate(93.9,150.81)" d="M1,0A1,1 0 1,1 0,-1A1,1 0 0,1 1,0Z" style="opacity: 1; stroke-width: 0px; fill: rgb(234, 79, 136); fill-opacity: 1;"/></g><g class="text"/></g><g class="trace scatter trace9d4c6f" style="stroke-miterlimit: 2; opacity: 0.7;"><g class="fills"/><g class="errorbars"/><g class="lines"><path class="js-line" d="M8.1,75.17L36.7,137.88L65.3,159.15L93.9,166.35" style="vector-effect: non-scaling-stroke; fill: none; stroke: rgb(234, 79, 136); stroke-opacity: 1; stroke-width: 1.5px; opacity: 1;"/></g><g class="points"><path class="point" transform="translate(8.1,75.17)" d="M1,0A1,1 0 1,1 0,-1A1,1 0 0,1 1,0Z" style="opacity: 1; stroke-width: 0px; fill: rgb(234, 79, 136); fill-opacity: 1;"/><path class="point" transform="translate(36.7,137.88)" d="M1,0A1,1 0 1,1 0,-1A1,1 0 0,1 1,0Z" style="opacity: 1; stroke-width: 0px; fill: rgb(234, 79, 136); fill-opacity: 1;"/><path class="point" transform="translate(65.3,159.15)" d="M1,0A1,1 0 1,1 0,-1A1,1 0 0,1 1,0Z" style="opacity: 1; stroke-width: 0px; fill: rgb(234, 79, 136); fill-opacity: 1;"/><path class="point" transform="translate(93.9,166.35)" d="M1,0A1,1 0 1,1 0,-1A1,1 0 0,1 1,0Z" style="opacity: 1; stroke-width: 0px; fill: rgb(234, 79, 136); fill-opacity: 1;"/></g><g class="text"/></g><g class="trace scatter trace9056a7" style="stroke-miterlimit: 2; opacity: 0.7;"><g class="fills"/><g class="errorbars"/><g class="lines"><path class="js-line" d="M8.1,94L36.7,122.13L65.3,108.63L93.9,121.55" style="vector-effect: non-scaling-stroke; fill: none; stroke: rgb(248, 145, 120); stroke-opacity: 1; stroke-width: 1.5px; opacity: 1;"/></g><g class="points"><path class="point" transform="translate(8.1,94)" d="M1,0A1,1 0 1,1 0,-1A1,1 0 0,1 1,0Z" style="opacity: 1; stroke-width: 0px; fill: rgb(248, 145, 120); fill-opacity: 1;"/><path class="point" transform="translate(36.7,122.13)" d="M1,0A1,1 0 1,1 0,-1A1,1 0 0,1 1,0Z" style="opacity: 1; stroke-width: 0px; fill: rgb(248, 145, 120); fill-opacity: 1;"/><path class="point" transform="translate(65.3,108.63)" d="M1,0A1,1 0 1,1 0,-1A1,1 0 0,1 1,0Z" style="opacity: 1; stroke-width: 0px; fill: rgb(248, 145, 120); fill-opacity: 1;"/><path class="point" transform="translate(93.9,121.55)" d="M1,0A1,1 0 1,1 0,-1A1,1 0 0,1 1,0Z" style="opacity: 1; stroke-width: 0px; fill: rgb(248, 145, 120); fill-opacity: 1;"/></g><g class="text"/></g><g class="trace scatter tracedc741b" style="stroke-miterlimit: 2; opacity: 0.7;"><g class="fills"/><g class="errorbars"/><g class="lines"><path class="js-line" d="M8.1,95.85L36.7,114.86L65.3,149.84L93.9,139.34" style="vector-effect: non-scaling-stroke; fill: none; stroke: rgb(248, 145, 120); stroke-opacity: 1; stroke-width: 1.5px; opacity: 1;"/></g><g class="points"><path class="point" transform="translate(8.1,95.85)" d="M1,0A1,1 0 1,1 0,-1A1,1 0 0,1 1,0Z" style="opacity: 1; stroke-width: 0px; fill: rgb(248, 145, 120); fill-opacity: 1;"/><path class="point" transform="translate(36.7,114.86)" d="M1,0A1,1 0 1,1 0,-1A1,1 0 0,1 1,0Z" style="opacity: 1; stroke-width: 0px; fill: rgb(248, 145, 120); fill-opacity: 1;"/><path class="point" transform="translate(65.3,149.84)" d="M1,0A1,1 0 1,1 0,-1A1,1 0 0,1 1,0Z" style="opacity: 1; stroke-width: 0px; fill: rgb(248, 145, 120); fill-opacity: 1;"/><path class="point" transform="translate(93.9,139.34)" d="M1,0A1,1 0 1,1 0,-1A1,1 0 0,1 1,0Z" style="opacity: 1; stroke-width: 0px; fill: rgb(248, 145, 120); fill-opacity: 1;"/></g><g class="text"/></g><g class="trace scatter trace65a1d8" style="stroke-miterlimit: 2; opacity: 0.7;"><g class="fills"/><g class="errorbars"/><g class="lines"><path class="js-line" d="M8.1,100.2L36.7,144.86L65.3,143.38L93.9,150.22" style="vector-effect: non-scaling-stroke; fill: none; stroke: rgb(248, 145, 120); stroke-opacity: 1; stroke-width: 1.5px; opacity: 1;"/></g><g class="points"><path class="point" transform="translate(8.1,100.2)" d="M1,0A1,1 0 1,1 0,-1A1,1 0 0,1 1,0Z" style="opacity: 1; stroke-width: 0px; fill: rgb(248, 145, 120); fill-opacity: 1;"/><path class="point" transform="translate(36.7,144.86)" d="M1,0A1,1 0 1,1 0,-1A1,1 0 0,1 1,0Z" style="opacity: 1; stroke-width: 0px; fill: rgb(248, 145, 120); fill-opacity: 1;"/><path class="point" transform="translate(65.3,143.38)" d="M1,0A1,1 0 1,1 0,-1A1,1 0 0,1 1,0Z" style="opacity: 1; stroke-width: 0px; fill: rgb(248, 145, 120); fill-opacity: 1;"/><path class="point" transform="translate(93.9,150.22)" d="M1,0A1,1 0 1,1 0,-1A1,1 0 0,1 1,0Z" style="opacity: 1; stroke-width: 0px; fill: rgb(248, 145, 120); fill-opacity: 1;"/></g><g class="text"/></g><g class="trace scatter trace7c41bd" style="stroke-miterlimit: 2; opacity: 0.7;"><g class="fills"/><g class="errorbars"/><g class="lines"><path class="js-line" d="M8.1,96.02L36.7,141.39L65.3,143.78L93.9,148.33" style="vector-effect: non-scaling-stroke; fill: none; stroke: rgb(248, 145, 120); stroke-opacity: 1; stroke-width: 1.5px; opacity: 1;"/></g><g class="points"><path class="point" transform="translate(8.1,96.02)" d="M1,0A1,1 0 1,1 0,-1A1,1 0 0,1 1,0Z" style="opacity: 1; stroke-width: 0px; fill: rgb(248, 145, 120); fill-opacity: 1;"/><path class="point" transform="translate(36.7,141.39)" d="M1,0A1,1 0 1,1 0,-1A1,1 0 0,1 1,0Z" style="opacity: 1; stroke-width: 0px; fill: rgb(248, 145, 120); fill-opacity: 1;"/><path class="point" transform="translate(65.3,143.78)" d="M1,0A1,1 0 1,1 0,-1A1,1 0 0,1 1,0Z" style="opacity: 1; stroke-width: 0px; fill: rgb(248, 145, 120); fill-opacity: 1;"/><path class="point" transform="translate(93.9,148.33)" d="M1,0A1,1 0 1,1 0,-1A1,1 0 0,1 1,0Z" style="opacity: 1; stroke-width: 0px; fill: rgb(248, 145, 120); fill-opacity: 1;"/></g><g class="text"/></g><g class="trace scatter tracec2db45" style="stroke-miterlimit: 2; opacity: 0.7;"><g class="fills"/><g class="errorbars"/><g class="lines"><path class="js-line" d="M8.1,100.84L36.7,136.58L65.3,135.71L93.9,139.79" style="vector-effect: non-scaling-stroke; fill: none; stroke: rgb(248, 145, 120); stroke-opacity: 1; stroke-width: 1.5px; opacity: 1;"/></g><g class="points"><path class="point" transform="translate(8.1,100.84)" d="M1,0A1,1 0 1,1 0,-1A1,1 0 0,1 1,0Z" style="opacity: 1; stroke-width: 0px; fill: rgb(248, 145, 120); fill-opacity: 1;"/><path class="point" transform="translate(36.7,136.58)" d="M1,0A1,1 0 1,1 0,-1A1,1 0 0,1 1,0Z" style="opacity: 1; stroke-width: 0px; fill: rgb(248, 145, 120); fill-opacity: 1;"/><path class="point" transform="translate(65.3,135.71)" d="M1,0A1,1 0 1,1 0,-1A1,1 0 0,1 1,0Z" style="opacity: 1; stroke-width: 0px; fill: rgb(248, 145, 120); fill-opacity: 1;"/><path class="point" transform="translate(93.9,139.79)" d="M1,0A1,1 0 1,1 0,-1A1,1 0 0,1 1,0Z" style="opacity: 1; stroke-width: 0px; fill: rgb(248, 145, 120); fill-opacity: 1;"/></g><g class="text"/></g></g></g><g class="overplot"/><path class="xlines-above crisp" d="M0,0" style="fill: none;"/><path class="ylines-above crisp" d="M0,0" style="fill: none;"/><g class="overlines-above"/><g class="xaxislayer-above"><g class="xtick"><text text-anchor="middle" x="0" y="227" transform="translate(41.1,0)" style="font-family: 'Open Sans', verdana, arial, sans-serif; font-size: 10px; fill: rgb(0, 0, 0); fill-opacity: 1; white-space: pre; opacity: 1;">T11</text></g><g class="xtick"><text text-anchor="middle" x="0" y="227" transform="translate(69.7,0)" style="font-family: 'Open Sans', verdana, arial, sans-serif; font-size: 10px; fill: rgb(0, 0, 0); fill-opacity: 1; white-space: pre; opacity: 1;">T22</text></g><g class="xtick"><text text-anchor="middle" x="0" y="227" transform="translate(98.3,0)" style="font-family: 'Open Sans', verdana, arial, sans-serif; font-size: 10px; fill: rgb(0, 0, 0); fill-opacity: 1; white-space: pre; opacity: 1;">T33</text></g><g class="xtick"><text text-anchor="middle" x="0" y="227" transform="translate(126.9,0)" style="font-family: 'Open Sans', verdana, arial, sans-serif; font-size: 10px; fill: rgb(0, 0, 0); fill-opacity: 1; white-space: pre; opacity: 1;">T44</text></g></g><g class="yaxislayer-above"><g class="ytick"><text text-anchor="end" x="32" y="3.5" transform="translate(0,216)" style="font-family: 'Open Sans', verdana, arial, sans-serif; font-size: 10px; fill: rgb(0, 0, 0); fill-opacity: 1; white-space: pre; opacity: 1;">0</text></g><g class="ytick"><text text-anchor="end" x="32" y="3.5" style="font-family: 'Open Sans', verdana, arial, sans-serif; font-size: 10px; fill: rgb(0, 0, 0); fill-opacity: 1; white-space: pre; opacity: 1;" transform="translate(0,179.06)">2</text></g><g class="ytick"><text text-anchor="end" x="32" y="3.5" style="font-family: 'Open Sans', verdana, arial, sans-serif; font-size: 10px; fill: rgb(0, 0, 0); fill-opacity: 1; white-space: pre; opacity: 1;" transform="translate(0,142.13)">4</text></g><g class="ytick"><text text-anchor="end" x="32" y="3.5" style="font-family: 'Open Sans', verdana, arial, sans-serif; font-size: 10px; fill: rgb(0, 0, 0); fill-opacity: 1; white-space: pre; opacity: 1;" transform="translate(0,105.19)">6</text></g><g class="ytick"><text text-anchor="end" x="32" y="3.5" style="font-family: 'Open Sans', verdana, arial, sans-serif; font-size: 10px; fill: rgb(0, 0, 0); fill-opacity: 1; white-space: pre; opacity: 1;" transform="translate(0,68.25)">8</text></g><g class="ytick"><text text-anchor="end" x="32" y="3.5" style="font-family: 'Open Sans', verdana, arial, sans-serif; font-size: 10px; fill: rgb(0, 0, 0); fill-opacity: 1; white-space: pre; opacity: 1;" transform="translate(0,31.32)">10</text></g></g><g class="overaxes-above"/></g></g><g class="polarlayer"/><g class="smithlayer"/><g class="ternarylayer"/><g class="geolayer"/><g class="funnelarealayer"/><g class="pielayer"/><g class="iciclelayer"/><g class="treemaplayer"/><g class="sunburstlayer"/><g class="glimages"/><defs id="topdefs-425217"><g class="clips"/><clipPath id="legend425217"><rect width="51" height="80" x="0" y="0"/></clipPath></defs><g class="layer-above"><g class="imagelayer"/><g class="shapelayer"/></g><g class="infolayer"><g class="legend" pointer-events="all" transform="translate(137.04000000000002,20)"><rect class="bg" shape-rendering="crispEdges" width="51" height="80" x="0" y="0" style="stroke: rgb(68, 68, 68); stroke-opacity: 1; fill: rgb(255, 255, 255); fill-opacity: 1; stroke-width: 0px;"/><g class="scrollbox" transform="" clip-path="url(#legend425217)"><text class="legendtitletext" text-anchor="start" x="2" y="13" style="font-family: 'Open Sans', verdana, arial, sans-serif; font-size: 10px; fill: rgb(0, 0, 0); fill-opacity: 1; white-space: pre;">Condition</text><g class="groups" transform=""><g class="traces" transform="translate(0,27.5)" style="opacity: 1;"><text class="legendtext" text-anchor="start" x="40" y="3.9" style="font-family: 'Open Sans', verdana, arial, sans-serif; font-size: 10px; fill: rgb(0, 0, 0); fill-opacity: 1; white-space: pre;">2</text><g class="layers" style="opacity: 0.7;"><g class="legendfill"/><g class="legendlines"><path class="js-line" d="M5,0h30" style="fill: none; stroke: rgb(164, 49, 160); stroke-opacity: 1; stroke-width: 1.5px;"/></g><g class="legendsymbols"><g class="legendpoints"><path class="scatterpts" transform="translate(20,0)" d="M1,0A1,1 0 1,1 0,-1A1,1 0 0,1 1,0Z" style="opacity: 1; stroke-width: 0px; fill: rgb(164, 49, 160); fill-opacity: 1;"/></g></g></g><rect class="legendtoggle" x="0" y="-9.5" width="46" height="19" style="fill: rgb(0, 0, 0); fill-opacity: 0;"/></g></g><g class="groups" transform=""><g class="traces" transform="translate(0,46.5)" style="opacity: 1;"><text class="legendtext" text-anchor="start" x="40" y="3.9" style="font-family: 'Open Sans', verdana, arial, sans-serif; font-size: 10px; fill: rgb(0, 0, 0); fill-opacity: 1; white-space: pre;">3</text><g class="layers" style="opacity: 0.7;"><g class="legendfill"/><g class="legendlines"><path class="js-line" d="M5,0h30" style="fill: none; stroke: rgb(234, 79, 136); stroke-opacity: 1; stroke-width: 1.5px;"/></g><g class="legendsymbols"><g class="legendpoints"><path class="scatterpts" transform="translate(20,0)" d="M1,0A1,1 0 1,1 0,-1A1,1 0 0,1 1,0Z" style="opacity: 1; stroke-width: 0px; fill: rgb(234, 79, 136); fill-opacity: 1;"/></g></g></g><rect class="legendtoggle" x="0" y="-9.5" width="46" height="19" style="fill: rgb(0, 0, 0); fill-opacity: 0;"/></g></g><g class="groups" transform=""><g class="traces" transform="translate(0,65.5)" style="opacity: 1;"><text class="legendtext" text-anchor="start" x="40" y="3.9" style="font-family: 'Open Sans', verdana, arial, sans-serif; font-size: 10px; fill: rgb(0, 0, 0); fill-opacity: 1; white-space: pre;">4</text><g class="layers" style="opacity: 0.7;"><g class="legendfill"/><g class="legendlines"><path class="js-line" d="M5,0h30" style="fill: none; stroke: rgb(248, 145, 120); stroke-opacity: 1; stroke-width: 1.5px;"/></g><g class="legendsymbols"><g class="legendpoints"><path class="scatterpts" transform="translate(20,0)" d="M1,0A1,1 0 1,1 0,-1A1,1 0 0,1 1,0Z" style="opacity: 1; stroke-width: 0px; fill: rgb(248, 145, 120); fill-opacity: 1;"/></g></g></g><rect class="legendtoggle" x="0" y="-9.5" width="46" height="19" style="fill: rgb(0, 0, 0); fill-opacity: 0;"/></g></g></g><rect class="scrollbar" rx="20" ry="3" width="0" height="0" x="0" y="0" style="fill: rgb(128, 139, 164); fill-opacity: 1;"/></g><g class="g-gtitle"/><g class="g-xtitle" transform="translate(0,4.599999999999994)"><text class="xtitle" x="84" y="238.4" text-anchor="middle" style="font-family: 'Open Sans', verdana, arial, sans-serif; font-size: 12px; fill: rgb(0, 0, 0); opacity: 1; font-weight: normal; white-space: pre;">Time-point</text></g><g class="g-ytitle" transform="translate(0.837890625,0)"><text class="ytitle" transform="rotate(-90,12.162500000000001,118)" x="12.162500000000001" y="118" text-anchor="middle" style="font-family: 'Open Sans', verdana, arial, sans-serif; font-size: 12px; fill: rgb(0, 0, 0); opacity: 1; font-weight: normal; white-space: pre;">Accumulation rate</text></g></g></svg>