<svg class="main-svg" xmlns="http://www.w3.org/2000/svg" xmlns:xlink="http://www.w3.org/1999/xlink" width="350" height="300" style="" viewBox="0 0 350 300"><rect x="0" y="0" width="350" height="300" style="fill: rgb(255, 255, 255); fill-opacity: 1;"/><defs id="defs-ef3acc"><g class="clips"><clipPath id="clipef3accxyplot" class="plotclip"><rect width="190" height="160"/></clipPath><clipPath class="axesclip" id="clipef3accx"><rect x="80" y="0" width="190" height="300"/></clipPath><clipPath class="axesclip" id="clipef3accy"><rect x="0" y="60" width="350" height="160"/></clipPath><clipPath class="axesclip" id="clipef3accxy"><rect x="80" y="60" width="190" height="160"/></clipPath></g><g class="gradients"/><g class="patterns"/></defs><g class="bglayer"><rect class="bg" x="80" y="60" width="190" height="160" style="fill: rgb(229, 236, 246); fill-opacity: 1; stroke-width: 0;"/></g><g class="layer-below"><g class="imagelayer"/><g class="shapelayer"/></g><g class="cartesianlayer"><g class="subplot xy"><g class="layer-subplot"><g class="shapelayer"/><g class="imagelayer"/></g><g class="minor-gridlayer"><g class="x"/><g class="y"/></g><g class="gridlayer"><g class="x"/><g class="y"><path class="ygrid crisp" transform="translate(0,194.01)" d="M80,0h190" style="stroke: rgb(255, 255, 255); stroke-opacity: 1; stroke-width: 1px;"/><path class="ygrid crisp" transform="translate(0,160.3)" d="M80,0h190" style="stroke: rgb(255, 255, 255); stroke-opacity: 1; stroke-width: 1px;"/><path class="ygrid crisp" transform="translate(0,130.14)" d="M80,0h190" style="stroke: rgb(255, 255, 255); stroke-opacity: 1; stroke-width: 1px;"/><path class="ygrid crisp" transform="translate(0,102.86)" d="M80,0h190" style="stroke: rgb(255, 255, 255); stroke-opacity: 1; stroke-width: 1px;"/><path class="ygrid crisp" transform="translate(0,77.95)" d="M80,0h190" style="stroke: rgb(255, 255, 255); stroke-opacity: 1; stroke-width: 1px;"/></g></g><g class="zerolinelayer"/><path class="xlines-below"/><path class="ylines-below"/><g class="overlines-below"/><g class="xaxislayer-below"/><g class="yaxislayer-below"/><g class="overaxes-below"/><g class="plot" transform="translate(80,60)" clip-path="url(#clipef3accxyplot)"><g class="boxlayer mlayer"><g class="trace boxes" style="opacity: 1;"><path class="box" d="M8.79,44.65H16.55M8.79,45.65H16.55V41.77H8.79ZM12.67,45.65V45.65M12.67,41.77V41.77M10.73,45.65H14.61M10.73,41.77H14.61" style="vector-effect: non-scaling-stroke; stroke-width: 0.5px; stroke: rgb(75, 41, 145); stroke-opacity: 1; fill: rgb(75, 41, 145); fill-opacity: 0.5;"/><g class="points"><path class="point" transform="translate(14.68,45.65)" d="M1.5,0A1.5,1.5 0 1,1 0,-1.5A1.5,1.5 0 0,1 1.5,0Z" style="opacity: 1; stroke-width: 0px; fill: rgb(75, 41, 145); fill-opacity: 1;"/><path class="point" transform="translate(10.19,45.34)" d="M1.5,0A1.5,1.5 0 1,1 0,-1.5A1.5,1.5 0 0,1 1.5,0Z" style="opacity: 1; stroke-width: 0px; fill: rgb(75, 41, 145); fill-opacity: 1;"/><path class="point" transform="translate(15.67,41.77)" d="M1.5,0A1.5,1.5 0 1,1 0,-1.5A1.5,1.5 0 0,1 1.5,0Z" style="opacity: 1; stroke-width: 0px; fill: rgb(75, 41, 145); fill-opacity: 1;"/></g><path class="mean" d="M8.79,44.25H16.55" style="fill: none; vector-effect: non-scaling-stroke; stroke-width: 0.5; stroke-dasharray: 1px, 0.5px; stroke: rgb(75, 41, 145); stroke-opacity: 1;"/></g><g class="trace boxes" style="opacity: 1;"><path class="box" d="M56.29,9.09H64.05M56.29,10.08H64.05V8.45H56.29ZM60.17,10.08V10.68M60.17,8.45V8M58.23,10.68H62.11M58.23,8H62.11" style="vector-effect: non-scaling-stroke; stroke-width: 0.5px; stroke: rgb(192, 54, 157); stroke-opacity: 1; fill: rgb(192, 54, 157); fill-opacity: 0.5;"/><g class="points"><path class="point" transform="translate(62.18,10.68)" d="M1.5,0A1.5,1.5 0 1,1 0,-1.5A1.5,1.5 0 0,1 1.5,0Z" style="opacity: 1; stroke-width: 0px; fill: rgb(192, 54, 157); fill-opacity: 1;"/><path class="point" transform="translate(57.69,9.49)" d="M1.5,0A1.5,1.5 0 1,1 0,-1.5A1.5,1.5 0 0,1 1.5,0Z" style="opacity: 1; stroke-width: 0px; fill: rgb(192, 54, 157); fill-opacity: 1;"/><path class="point" transform="translate(63.17,9.09)" d="M1.5,0A1.5,1.5 0 1,1 0,-1.5A1.5,1.5 0 0,1 1.5,0Z" style="opacity: 1; stroke-width: 0px; fill: rgb(192, 54, 157); fill-opacity: 1;"/><path class="point" transform="translate(56.89,8.89)" d="M1.5,0A1.5,1.5 0 1,1 0,-1.5A1.5,1.5 0 0,1 1.5,0Z" style="opacity: 1; stroke-width: 0px; fill: rgb(192, 54, 157); fill-opacity: 1;"/><path class="point" transform="translate(59.21,8)" d="M1.5,0A1.5,1.5 0 1,1 0,-1.5A1.5,1.5 0 0,1 1.5,0Z" style="opacity: 1; stroke-width: 0px; fill: rgb(192, 54, 157); fill-opacity: 1;"/></g><path class="mean" d="M56.29,9.23H64.05" style="fill: none; vector-effect: non-scaling-stroke; stroke-width: 0.5; stroke-dasharray: 1px, 0.5px; stroke: rgb(192, 54, 157); stroke-opacity: 1;"/></g><g class="trace boxes" style="opacity: 1;"><path class="box" d="M19.87,47.04H27.63M19.87,53.5H27.63V44.45H19.87ZM23.75,53.5V58.8M23.75,44.45V43.71M21.81,58.8H25.69M21.81,43.71H25.69" style="vector-effect: non-scaling-stroke; stroke-width: 0.5px; stroke: rgb(250, 120, 118); stroke-opacity: 1; fill: rgb(250, 120, 118); fill-opacity: 0.5;"/><path class="box" d="M67.37,9.39H75.13M67.37,10.74H75.13V8.39H67.37ZM71.25,10.74V11.25M71.25,8.39V8.37M69.31,11.25H73.19M69.31,8.37H73.19" style="vector-effect: non-scaling-stroke; stroke-width: 0.5px; stroke: rgb(250, 120, 118); stroke-opacity: 1; fill: rgb(250, 120, 118); fill-opacity: 0.5;"/><path class="box" d="M114.87,149.29H122.63M114.87,151.85H122.63V148.11H114.87ZM118.75,151.85V151.87M118.75,148.11V147.96M116.81,151.87H120.69M116.81,147.96H120.69" style="vector-effect: non-scaling-stroke; stroke-width: 0.5px; stroke: rgb(250, 120, 118); stroke-opacity: 1; fill: rgb(250, 120, 118); fill-opacity: 0.5;"/><g class="points"><path class="point" transform="translate(25.76,58.8)" d="M1.5,0A1.5,1.5 0 1,1 0,-1.5A1.5,1.5 0 0,1 1.5,0Z" style="opacity: 1; stroke-width: 0px; fill: rgb(250, 120, 118); fill-opacity: 1;"/><path class="point" transform="translate(21.28,48.3)" d="M1.5,0A1.5,1.5 0 1,1 0,-1.5A1.5,1.5 0 0,1 1.5,0Z" style="opacity: 1; stroke-width: 0px; fill: rgb(250, 120, 118); fill-opacity: 1;"/><path class="point" transform="translate(26.76,47.04)" d="M1.5,0A1.5,1.5 0 1,1 0,-1.5A1.5,1.5 0 0,1 1.5,0Z" style="opacity: 1; stroke-width: 0px; fill: rgb(250, 120, 118); fill-opacity: 1;"/><path class="point" transform="translate(20.47,45.21)" d="M1.5,0A1.5,1.5 0 1,1 0,-1.5A1.5,1.5 0 0,1 1.5,0Z" style="opacity: 1; stroke-width: 0px; fill: rgb(250, 120, 118); fill-opacity: 1;"/><path class="point" transform="translate(22.79,43.71)" d="M1.5,0A1.5,1.5 0 1,1 0,-1.5A1.5,1.5 0 0,1 1.5,0Z" style="opacity: 1; stroke-width: 0px; fill: rgb(250, 120, 118); fill-opacity: 1;"/></g><g class="points"><path class="point" transform="translate(73.29,11.25)" d="M1.5,0A1.5,1.5 0 1,1 0,-1.5A1.5,1.5 0 0,1 1.5,0Z" style="opacity: 1; stroke-width: 0px; fill: rgb(250, 120, 118); fill-opacity: 1;"/><path class="point" transform="translate(71.11,10.23)" d="M1.5,0A1.5,1.5 0 1,1 0,-1.5A1.5,1.5 0 0,1 1.5,0Z" style="opacity: 1; stroke-width: 0px; fill: rgb(250, 120, 118); fill-opacity: 1;"/><path class="point" transform="translate(72.37,8.72)" d="M1.5,0A1.5,1.5 0 1,1 0,-1.5A1.5,1.5 0 0,1 1.5,0Z" style="opacity: 1; stroke-width: 0px; fill: rgb(250, 120, 118); fill-opacity: 1;"/><path class="point" transform="translate(70.01,8.41)" d="M1.5,0A1.5,1.5 0 1,1 0,-1.5A1.5,1.5 0 0,1 1.5,0Z" style="opacity: 1; stroke-width: 0px; fill: rgb(250, 120, 118); fill-opacity: 1;"/><path class="point" transform="translate(68.41,8.37)" d="M1.5,0A1.5,1.5 0 1,1 0,-1.5A1.5,1.5 0 0,1 1.5,0Z" style="opacity: 1; stroke-width: 0px; fill: rgb(250, 120, 118); fill-opacity: 1;"/></g><g class="points"><path class="point" transform="translate(119.79,151.87)" d="M1.5,0A1.5,1.5 0 1,1 0,-1.5A1.5,1.5 0 0,1 1.5,0Z" style="opacity: 1; stroke-width: 0px; fill: rgb(250, 120, 118); fill-opacity: 1;"/><path class="point" transform="translate(117.47,151.83)" d="M1.5,0A1.5,1.5 0 1,1 0,-1.5A1.5,1.5 0 0,1 1.5,0Z" style="opacity: 1; stroke-width: 0px; fill: rgb(250, 120, 118); fill-opacity: 1;"/><path class="point" transform="translate(121.21,149.29)" d="M1.5,0A1.5,1.5 0 1,1 0,-1.5A1.5,1.5 0 0,1 1.5,0Z" style="opacity: 1; stroke-width: 0px; fill: rgb(250, 120, 118); fill-opacity: 1;"/><path class="point" transform="translate(114.97,148.26)" d="M1.5,0A1.5,1.5 0 1,1 0,-1.5A1.5,1.5 0 0,1 1.5,0Z" style="opacity: 1; stroke-width: 0px; fill: rgb(250, 120, 118); fill-opacity: 1;"/><path class="point" transform="translate(116.51,147.96)" d="M1.5,0A1.5,1.5 0 1,1 0,-1.5A1.5,1.5 0 0,1 1.5,0Z" style="opacity: 1; stroke-width: 0px; fill: rgb(250, 120, 118); fill-opacity: 1;"/></g><path class="mean" d="M19.87,48.56H27.63" style="fill: none; vector-effect: non-scaling-stroke; stroke-width: 0.5; stroke-dasharray: 1px, 0.5px; stroke: rgb(250, 120, 118); stroke-opacity: 1;"/><path class="mean" d="M67.37,9.39H75.13" style="fill: none; vector-effect: non-scaling-stroke; stroke-width: 0.5; stroke-dasharray: 1px, 0.5px; stroke: rgb(250, 120, 118); stroke-opacity: 1;"/><path class="mean" d="M114.87,149.84H122.63" style="fill: none; vector-effect: non-scaling-stroke; stroke-width: 0.5; stroke-dasharray: 1px, 0.5px; stroke: rgb(250, 120, 118); stroke-opacity: 1;"/></g><g class="trace boxes" style="opacity: 1;"><path class="box" d="M30.95,45.68H38.71M30.95,47.56H38.71V41.1H30.95ZM34.83,47.56V47.7M34.83,41.1V40.49M32.89,47.7H36.77M32.89,40.49H36.77" style="vector-effect: non-scaling-stroke; stroke-width: 0.5px; stroke: rgb(237, 217, 163); stroke-opacity: 1; fill: rgb(237, 217, 163); fill-opacity: 0.5;"/><path class="box" d="M78.45,12.51H86.21M78.45,15.42H86.21V10.54H78.45ZM82.33,15.42V18.73M82.33,10.54V9.44M80.39,18.73H84.27M80.39,9.44H84.27" style="vector-effect: non-scaling-stroke; stroke-width: 0.5px; stroke: rgb(237, 217, 163); stroke-opacity: 1; fill: rgb(237, 217, 163); fill-opacity: 0.5;"/><path class="box" d="M125.95,151.91H133.71M125.95,152H133.71V151.85H125.95ZM129.83,152V152M129.83,151.85V151.85M127.89,152H131.77M127.89,151.85H131.77" style="vector-effect: non-scaling-stroke; stroke-width: 0.5px; stroke: rgb(237, 217, 163); stroke-opacity: 1; fill: rgb(237, 217, 163); fill-opacity: 0.5;"/><path class="box" d="M173.45,58.87H181.21M173.45,59.86H181.21V57.87H173.45ZM177.33,59.86V60.38M177.33,57.87V57.58M175.39,60.38H179.27M175.39,57.58H179.27" style="vector-effect: non-scaling-stroke; stroke-width: 0.5px; stroke: rgb(237, 217, 163); stroke-opacity: 1; fill: rgb(237, 217, 163); fill-opacity: 0.5;"/><g class="points"><path class="point" transform="translate(36.85,47.7)" d="M1.5,0A1.5,1.5 0 1,1 0,-1.5A1.5,1.5 0 0,1 1.5,0Z" style="opacity: 1; stroke-width: 0px; fill: rgb(237, 217, 163); fill-opacity: 1;"/><path class="point" transform="translate(32.36,47.41)" d="M1.5,0A1.5,1.5 0 1,1 0,-1.5A1.5,1.5 0 0,1 1.5,0Z" style="opacity: 1; stroke-width: 0px; fill: rgb(237, 217, 163); fill-opacity: 1;"/><path class="point" transform="translate(37.84,45.68)" d="M1.5,0A1.5,1.5 0 1,1 0,-1.5A1.5,1.5 0 0,1 1.5,0Z" style="opacity: 1; stroke-width: 0px; fill: rgb(237, 217, 163); fill-opacity: 1;"/><path class="point" transform="translate(31.55,41.72)" d="M1.5,0A1.5,1.5 0 1,1 0,-1.5A1.5,1.5 0 0,1 1.5,0Z" style="opacity: 1; stroke-width: 0px; fill: rgb(237, 217, 163); fill-opacity: 1;"/><path class="point" transform="translate(33.88,40.49)" d="M1.5,0A1.5,1.5 0 1,1 0,-1.5A1.5,1.5 0 0,1 1.5,0Z" style="opacity: 1; stroke-width: 0px; fill: rgb(237, 217, 163); fill-opacity: 1;"/></g><g class="points"><path class="point" transform="translate(84.37,18.73)" d="M1.5,0A1.5,1.5 0 1,1 0,-1.5A1.5,1.5 0 0,1 1.5,0Z" style="opacity: 1; stroke-width: 0px; fill: rgb(237, 217, 163); fill-opacity: 1;"/><path class="point" transform="translate(82.19,15.42)" d="M1.5,0A1.5,1.5 0 1,1 0,-1.5A1.5,1.5 0 0,1 1.5,0Z" style="opacity: 1; stroke-width: 0px; fill: rgb(237, 217, 163); fill-opacity: 1;"/><path class="point" transform="translate(83.46,12.55)" d="M1.5,0A1.5,1.5 0 1,1 0,-1.5A1.5,1.5 0 0,1 1.5,0Z" style="opacity: 1; stroke-width: 0px; fill: rgb(237, 217, 163); fill-opacity: 1;"/><path class="point" transform="translate(81.1,12.47)" d="M1.5,0A1.5,1.5 0 1,1 0,-1.5A1.5,1.5 0 0,1 1.5,0Z" style="opacity: 1; stroke-width: 0px; fill: rgb(237, 217, 163); fill-opacity: 1;"/><path class="point" transform="translate(79.49,10.54)" d="M1.5,0A1.5,1.5 0 1,1 0,-1.5A1.5,1.5 0 0,1 1.5,0Z" style="opacity: 1; stroke-width: 0px; fill: rgb(237, 217, 163); fill-opacity: 1;"/><path class="point" transform="translate(83.37,9.44)" d="M1.5,0A1.5,1.5 0 1,1 0,-1.5A1.5,1.5 0 0,1 1.5,0Z" style="opacity: 1; stroke-width: 0px; fill: rgb(237, 217, 163); fill-opacity: 1;"/></g><g class="points"><path class="point" transform="translate(128.56,152)" d="M1.5,0A1.5,1.5 0 1,1 0,-1.5A1.5,1.5 0 0,1 1.5,0Z" style="opacity: 1; stroke-width: 0px; fill: rgb(237, 217, 163); fill-opacity: 1;"/><path class="point" transform="translate(132.29,151.91)" d="M1.5,0A1.5,1.5 0 1,1 0,-1.5A1.5,1.5 0 0,1 1.5,0Z" style="opacity: 1; stroke-width: 0px; fill: rgb(237, 217, 163); fill-opacity: 1;"/><path class="point" transform="translate(126.06,151.85)" d="M1.5,0A1.5,1.5 0 1,1 0,-1.5A1.5,1.5 0 0,1 1.5,0Z" style="opacity: 1; stroke-width: 0px; fill: rgb(237, 217, 163); fill-opacity: 1;"/></g><g class="points"><path class="point" transform="translate(175.09,60.38)" d="M1.5,0A1.5,1.5 0 1,1 0,-1.5A1.5,1.5 0 0,1 1.5,0Z" style="opacity: 1; stroke-width: 0px; fill: rgb(237, 217, 163); fill-opacity: 1;"/><path class="point" transform="translate(180.68,60.04)" d="M1.5,0A1.5,1.5 0 1,1 0,-1.5A1.5,1.5 0 0,1 1.5,0Z" style="opacity: 1; stroke-width: 0px; fill: rgb(237, 217, 163); fill-opacity: 1;"/><path class="point" transform="translate(176.84,59.68)" d="M1.5,0A1.5,1.5 0 1,1 0,-1.5A1.5,1.5 0 0,1 1.5,0Z" style="opacity: 1; stroke-width: 0px; fill: rgb(237, 217, 163); fill-opacity: 1;"/><path class="point" transform="translate(175.63,59.42)" d="M1.5,0A1.5,1.5 0 1,1 0,-1.5A1.5,1.5 0 0,1 1.5,0Z" style="opacity: 1; stroke-width: 0px; fill: rgb(237, 217, 163); fill-opacity: 1;"/><path class="point" transform="translate(176.68,59.41)" d="M1.5,0A1.5,1.5 0 1,1 0,-1.5A1.5,1.5 0 0,1 1.5,0Z" style="opacity: 1; stroke-width: 0px; fill: rgb(237, 217, 163); fill-opacity: 1;"/><path class="point" transform="translate(177.29,58.16)" d="M1.5,0A1.5,1.5 0 1,1 0,-1.5A1.5,1.5 0 0,1 1.5,0Z" style="opacity: 1; stroke-width: 0px; fill: rgb(237, 217, 163); fill-opacity: 1;"/><path class="point" transform="translate(178.17,57.58)" d="M1.5,0A1.5,1.5 0 1,1 0,-1.5A1.5,1.5 0 0,1 1.5,0Z" style="opacity: 1; stroke-width: 0px; fill: rgb(237, 217, 163); fill-opacity: 1;"/><path class="point" transform="translate(177.53,48.67)" d="M1.5,0A1.5,1.5 0 1,1 0,-1.5A1.5,1.5 0 0,1 1.5,0Z" style="opacity: 1; stroke-width: 0px; fill: rgb(237, 217, 163); fill-opacity: 1;"/></g><path class="mean" d="M30.95,44.59H38.71" style="fill: none; vector-effect: non-scaling-stroke; stroke-width: 0.5; stroke-dasharray: 1px, 0.5px; stroke: rgb(237, 217, 163); stroke-opacity: 1;"/><path class="mean" d="M78.45,13.17H86.21" style="fill: none; vector-effect: non-scaling-stroke; stroke-width: 0.5; stroke-dasharray: 1px, 0.5px; stroke: rgb(237, 217, 163); stroke-opacity: 1;"/><path class="mean" d="M125.95,151.92H133.71" style="fill: none; vector-effect: non-scaling-stroke; stroke-width: 0.5; stroke-dasharray: 1px, 0.5px; stroke: rgb(237, 217, 163); stroke-opacity: 1;"/><path class="mean" d="M173.45,57.89H181.21" style="fill: none; vector-effect: non-scaling-stroke; stroke-width: 0.5; stroke-dasharray: 1px, 0.5px; stroke: rgb(237, 217, 163); stroke-opacity: 1;"/></g></g></g><g class="overplot"/><path class="xlines-above crisp" d="M0,0" style="fill: none;"/><path class="ylines-above crisp" d="M0,0" style="fill: none;"/><g class="overlines-above"/><g class="xaxislayer-above"><g class="xtick"><text text-anchor="middle" x="0" y="231" transform="translate(103.75,0)" style="font-family: 'Open Sans', verdana, arial, sans-serif; font-size: 10px; fill: rgb(0, 0, 0); fill-opacity: 1; white-space: pre; opacity: 1;">At</text></g><g class="xtick"><text text-anchor="middle" x="0" y="231" transform="translate(151.25,0)" style="font-family: 'Open Sans', verdana, arial, sans-serif; font-size: 10px; fill: rgb(0, 0, 0); fill-opacity: 1; white-space: pre; opacity: 1;">Ct</text></g><g class="xtick"><text text-anchor="middle" x="0" y="231" transform="translate(198.75,0)" style="font-family: 'Open Sans', verdana, arial, sans-serif; font-size: 10px; fill: rgb(0, 0, 0); fill-opacity: 1; white-space: pre; opacity: 1;">Oa</text></g><g class="xtick"><text text-anchor="middle" x="0" y="231" transform="translate(246.25,0)" style="font-family: 'Open Sans', verdana, arial, sans-serif; font-size: 10px; fill: rgb(0, 0, 0); fill-opacity: 1; white-space: pre; opacity: 1;">Ms</text></g></g><g class="yaxislayer-above"><g class="ytick"><text text-anchor="end" x="79" y="3.5" transform="translate(0,194.01)" style="font-family: 'Open Sans', verdana, arial, sans-serif; font-size: 10px; fill: rgb(0, 0, 0); fill-opacity: 1; white-space: pre; opacity: 1;">4M</text></g><g class="ytick"><text text-anchor="end" x="79" y="3.5" style="font-family: 'Open Sans', verdana, arial, sans-serif; font-size: 10px; fill: rgb(0, 0, 0); fill-opacity: 1; white-space: pre; opacity: 1;" transform="translate(0,160.3)">4.5M</text></g><g class="ytick"><text text-anchor="end" x="79" y="3.5" style="font-family: 'Open Sans', verdana, arial, sans-serif; font-size: 10px; fill: rgb(0, 0, 0); fill-opacity: 1; white-space: pre; opacity: 1;" transform="translate(0,130.14)">5M</text></g><g class="ytick"><text text-anchor="end" x="79" y="3.5" style="font-family: 'Open Sans', verdana, arial, sans-serif; font-size: 10px; fill: rgb(0, 0, 0); fill-opacity: 1; white-space: pre; opacity: 1;" transform="translate(0,102.86)">5.5M</text></g><g class="ytick"><text text-anchor="end" x="79" y="3.5" style="font-family: 'Open Sans', verdana, arial, sans-serif; font-size: 10px; fill: rgb(0, 0, 0); fill-opacity: 1; white-space: pre; opacity: 1;" transform="translate(0,77.95)">6M</text></g></g><g class="overaxes-above"/></g></g><g class="polarlayer"/><g class="smithlayer"/><g class="ternarylayer"/><g class="geolayer"/><g class="funnelarealayer"/><g class="pielayer"/><g class="iciclelayer"/><g class="treemaplayer"/><g class="sunburstlayer"/><g class="glimages"/><defs id="topdefs-ef3acc"><g class="clips"/><clipPath id="legendef3acc"><rect width="52" height="99" x="0" y="0"/></clipPath></defs><g class="layer-above"><g class="imagelayer"/><g class="shapelayer"/></g><g class="infolayer"><g class="legend" pointer-events="all" transform="translate(273.8,60)"><rect class="bg" shape-rendering="crispEdges" width="52" height="99" x="0" y="0" style="stroke: rgb(68, 68, 68); stroke-opacity: 1; fill: rgb(255, 255, 255); fill-opacity: 1; stroke-width: 0px;"/><g class="scrollbox" transform="" clip-path="url(#legendef3acc)"><text class="legendtitletext" text-anchor="start" x="2" y="13" style="font-family: 'Open Sans', verdana, arial, sans-serif; font-size: 10px; fill: rgb(0, 0, 0); fill-opacity: 1; white-space: pre;">treatment</text><g class="groups" transform=""><g class="traces" transform="translate(0,27.5)" style="opacity: 1;"><text class="legendtext" text-anchor="start" x="40" y="3.9" style="font-family: 'Open Sans', verdana, arial, sans-serif; font-size: 10px; fill: rgb(0, 0, 0); fill-opacity: 1; white-space: pre;">1</text><g class="layers" style="opacity: 1;"><g class="legendfill"/><g class="legendlines"/><g class="legendsymbols"><g class="legendpoints"><path class="legendbox" d="M6,6H-6V-6H6Z" transform="translate(20,0)" style="stroke-width: 0.5px; fill: rgb(75, 41, 145); fill-opacity: 0.5; stroke: rgb(75, 41, 145); stroke-opacity: 1;"/></g></g></g><rect class="legendtoggle" x="0" y="-9.5" width="46" height="19" style="fill: rgb(0, 0, 0); fill-opacity: 0;"/></g></g><g class="groups" transform=""><g class="traces" transform="translate(0,46.5)" style="opacity: 1;"><text class="legendtext" text-anchor="start" x="40" y="3.9" style="font-family: 'Open Sans', verdana, arial, sans-serif; font-size: 10px; fill: rgb(0, 0, 0); fill-opacity: 1; white-space: pre;">2</text><g class="layers" style="opacity: 1;"><g class="legendfill"/><g class="legendlines"/><g class="legendsymbols"><g class="legendpoints"><path class="legendbox" d="M6,6H-6V-6H6Z" transform="translate(20,0)" style="stroke-width: 0.5px; fill: rgb(192, 54, 157); fill-opacity: 0.5; stroke: rgb(192, 54, 157); stroke-opacity: 1;"/></g></g></g><rect class="legendtoggle" x="0" y="-9.5" width="46" height="19" style="fill: rgb(0, 0, 0); fill-opacity: 0;"/></g></g><g class="groups" transform=""><g class="traces" transform="translate(0,65.5)" style="opacity: 1;"><text class="legendtext" text-anchor="start" x="40" y="3.9" style="font-family: 'Open Sans', verdana, arial, sans-serif; font-size: 10px; fill: rgb(0, 0, 0); fill-opacity: 1; white-space: pre;">3</text><g class="layers" style="opacity: 1;"><g class="legendfill"/><g class="legendlines"/><g class="legendsymbols"><g class="legendpoints"><path class="legendbox" d="M6,6H-6V-6H6Z" transform="translate(20,0)" style="stroke-width: 0.5px; fill: rgb(250, 120, 118); fill-opacity: 0.5; stroke: rgb(250, 120, 118); stroke-opacity: 1;"/></g></g></g><rect class="legendtoggle" x="0" y="-9.5" width="46" height="19" style="fill: rgb(0, 0, 0); fill-opacity: 0;"/></g></g><g class="groups" transform=""><g class="traces" transform="translate(0,84.5)" style="opacity: 1;"><text class="legendtext" text-anchor="start" x="40" y="3.9" style="font-family: 'Open Sans', verdana, arial, sans-serif; font-size: 10px; fill: rgb(0, 0, 0); fill-opacity: 1; white-space: pre;">4</text><g class="layers" style="opacity: 1;"><g class="legendfill"/><g class="legendlines"/><g class="legendsymbols"><g class="legendpoints"><path class="legendbox" d="M6,6H-6V-6H6Z" transform="translate(20,0)" style="stroke-width: 0.5px; fill: rgb(237, 217, 163); fill-opacity: 0.5; stroke: rgb(237, 217, 163); stroke-opacity: 1;"/></g></g></g><rect class="legendtoggle" x="0" y="-9.5" width="46" height="19" style="fill: rgb(0, 0, 0); fill-opacity: 0;"/></g></g></g><rect class="scrollbar" rx="20" ry="3" width="0" height="0" x="0" y="0" style="fill: rgb(128, 139, 164); fill-opacity: 1;"/></g><g class="g-gtitle"/><g class="g-xtitle"/><g class="g-ytitle"><text class="ytitle" transform="rotate(-90,32.475,140)" x="32.475" y="140" text-anchor="middle" style="font-family: 'Open Sans', verdana, arial, sans-serif; font-size: 12px; fill: rgb(0, 0, 0); opacity: 1; font-weight: normal; white-space: pre;">Assembly length</text></g></g></svg>