<svg class="main-svg" xmlns="http://www.w3.org/2000/svg" xmlns:xlink="http://www.w3.org/1999/xlink" width="200" height="250" style="" viewBox="0 0 200 250"><rect x="0" y="0" width="200" height="250" style="fill: rgb(255, 255, 255); fill-opacity: 1;"/><defs id="defs-75c2d8"><g class="clips"><clipPath id="clip75c2d8xyplot" class="plotclip"><rect width="108" height="196"/></clipPath><clipPath class="axesclip" id="clip75c2d8x"><rect x="27" y="0" width="108" height="250"/></clipPath><clipPath class="axesclip" id="clip75c2d8y"><rect x="0" y="20" width="200" height="196"/></clipPath><clipPath class="axesclip" id="clip75c2d8xy"><rect x="27" y="20" width="108" height="196"/></clipPath></g><g class="gradients"/><g class="patterns"/></defs><g class="bglayer"><rect class="bg" x="27" y="20" width="108" height="196" style="fill: rgb(229, 236, 246); fill-opacity: 1; stroke-width: 0;"/></g><g class="layer-below"><g class="imagelayer"/><g class="shapelayer"/></g><g class="cartesianlayer"><g class="subplot xy"><g class="layer-subplot"><g class="shapelayer"/><g class="imagelayer"/></g><g class="minor-gridlayer"><g class="x"/><g class="y"/></g><g class="gridlayer"><g class="x"><path class="xgrid crisp" transform="translate(35.53,0)" d="M0,20v196" style="stroke: rgb(255, 255, 255); stroke-opacity: 1; stroke-width: 1px;"/><path class="xgrid crisp" transform="translate(65.84,0)" d="M0,20v196" style="stroke: rgb(255, 255, 255); stroke-opacity: 1; stroke-width: 1px;"/><path class="xgrid crisp" transform="translate(96.16,0)" d="M0,20v196" style="stroke: rgb(255, 255, 255); stroke-opacity: 1; stroke-width: 1px;"/><path class="xgrid crisp" transform="translate(126.48,0)" d="M0,20v196" style="stroke: rgb(255, 255, 255); stroke-opacity: 1; stroke-width: 1px;"/></g><g class="y"><path class="ygrid crisp" transform="translate(0,142.76999999999998)" d="M27,0h108" style="stroke: rgb(255, 255, 255); stroke-opacity: 1; stroke-width: 1px;"/><path class="ygrid crisp" transform="translate(0,69.53999999999999)" d="M27,0h108" style="stroke: rgb(255, 255, 255); stroke-opacity: 1; stroke-width: 1px;"/></g></g><g class="zerolinelayer"><path class="yzl zl crisp" transform="translate(0,216)" d="M27,0h108" style="stroke: rgb(255, 255, 255); stroke-opacity: 1; stroke-width: 2px;"/></g><path class="xlines-below"/><path class="ylines-below"/><g class="overlines-below"/><g class="xaxislayer-below"/><g class="yaxislayer-below"/><g class="overaxes-below"/><g class="plot" transform="translate(27,20)" clip-path="url(#clip75c2d8xyplot)"><g class="scatterlayer mlayer"><g class="trace scatter trace0f8ee8" style="stroke-miterlimit: 2; opacity: 0.8;"><g class="fills"/><g class="errorbars"/><g class="lines"><path class="js-line" d="M8.53,122.77L99.48,122.77" style="vector-effect: non-scaling-stroke; fill: none; stroke: rgb(75, 41, 145); stroke-opacity: 1; stroke-width: 1.5px; opacity: 1;"/></g><g class="points"><path class="point" transform="translate(8.53,122.77)" d="M2.5,0A2.5,2.5 0 1,1 0,-2.5A2.5,2.5 0 0,1 2.5,0Z" style="opacity: 1; stroke-width: 0px; fill: rgb(75, 41, 145); fill-opacity: 1;"/><path class="point" transform="translate(38.84,122.77)" d="M2.5,0A2.5,2.5 0 1,1 0,-2.5A2.5,2.5 0 0,1 2.5,0Z" style="opacity: 1; stroke-width: 0px; fill: rgb(75, 41, 145); fill-opacity: 1;"/><path class="point" transform="translate(69.16,122.77)" d="M2.5,0A2.5,2.5 0 1,1 0,-2.5A2.5,2.5 0 0,1 2.5,0Z" style="opacity: 1; stroke-width: 0px; fill: rgb(75, 41, 145); fill-opacity: 1;"/><path class="point" transform="translate(99.48,122.77)" d="M2.5,0A2.5,2.5 0 1,1 0,-2.5A2.5,2.5 0 0,1 2.5,0Z" style="opacity: 1; stroke-width: 0px; fill: rgb(75, 41, 145); fill-opacity: 1;"/></g><g class="text"/></g><g class="trace scatter trace0fa476" style="stroke-miterlimit: 2; opacity: 0.8;"><g class="fills"/><g class="errorbars"/><g class="lines"><path class="js-line" d="M8.53,196L38.84,86.16L69.16,86.16L99.48,49.54" style="vector-effect: non-scaling-stroke; fill: none; stroke: rgb(75, 41, 145); stroke-opacity: 1; stroke-width: 1.5px; opacity: 1;"/></g><g class="points"><path class="point" transform="translate(8.53,196)" d="M2.5,0A2.5,2.5 0 1,1 0,-2.5A2.5,2.5 0 0,1 2.5,0Z" style="opacity: 1; stroke-width: 0px; fill: rgb(75, 41, 145); fill-opacity: 1;"/><path class="point" transform="translate(38.84,86.16)" d="M2.5,0A2.5,2.5 0 1,1 0,-2.5A2.5,2.5 0 0,1 2.5,0Z" style="opacity: 1; stroke-width: 0px; fill: rgb(75, 41, 145); fill-opacity: 1;"/><path class="point" transform="translate(69.16,86.16)" d="M2.5,0A2.5,2.5 0 1,1 0,-2.5A2.5,2.5 0 0,1 2.5,0Z" style="opacity: 1; stroke-width: 0px; fill: rgb(75, 41, 145); fill-opacity: 1;"/><path class="point" transform="translate(99.48,49.54)" d="M2.5,0A2.5,2.5 0 1,1 0,-2.5A2.5,2.5 0 0,1 2.5,0Z" style="opacity: 1; stroke-width: 0px; fill: rgb(75, 41, 145); fill-opacity: 1;"/></g><g class="text"/></g><g class="trace scatter tracecf4ade" style="stroke-miterlimit: 2; opacity: 0.8;"><g class="fills"/><g class="errorbars"/><g class="lines"><path class="js-line" d="M8.53,196L99.48,196" style="vector-effect: non-scaling-stroke; fill: none; stroke: rgb(234, 79, 136); stroke-opacity: 1; stroke-width: 1.5px; opacity: 1;"/></g><g class="points"><path class="point" transform="translate(8.53,196)" d="M2.5,0A2.5,2.5 0 1,1 0,-2.5A2.5,2.5 0 0,1 2.5,0Z" style="opacity: 1; stroke-width: 0px; fill: rgb(234, 79, 136); fill-opacity: 1;"/><path class="point" transform="translate(38.84,196)" d="M2.5,0A2.5,2.5 0 1,1 0,-2.5A2.5,2.5 0 0,1 2.5,0Z" style="opacity: 1; stroke-width: 0px; fill: rgb(234, 79, 136); fill-opacity: 1;"/><path class="point" transform="translate(69.16,196)" d="M2.5,0A2.5,2.5 0 1,1 0,-2.5A2.5,2.5 0 0,1 2.5,0Z" style="opacity: 1; stroke-width: 0px; fill: rgb(234, 79, 136); fill-opacity: 1;"/><path class="point" transform="translate(99.48,196)" d="M2.5,0A2.5,2.5 0 1,1 0,-2.5A2.5,2.5 0 0,1 2.5,0Z" style="opacity: 1; stroke-width: 0px; fill: rgb(234, 79, 136); fill-opacity: 1;"/></g><g class="text"/></g><g class="trace scatter trace64a750" style="stroke-miterlimit: 2; opacity: 0.8;"><g class="fills"/><g class="errorbars"/><g class="lines"><path class="js-line" d="M8.53,196L38.84,196L69.16,122.77L99.48,86.16" style="vector-effect: non-scaling-stroke; fill: none; stroke: rgb(234, 79, 136); stroke-opacity: 1; stroke-width: 1.5px; opacity: 1;"/></g><g class="points"><path class="point" transform="translate(8.53,196)" d="M2.5,0A2.5,2.5 0 1,1 0,-2.5A2.5,2.5 0 0,1 2.5,0Z" style="opacity: 1; stroke-width: 0px; fill: rgb(234, 79, 136); fill-opacity: 1;"/><path class="point" transform="translate(38.84,196)" d="M2.5,0A2.5,2.5 0 1,1 0,-2.5A2.5,2.5 0 0,1 2.5,0Z" style="opacity: 1; stroke-width: 0px; fill: rgb(234, 79, 136); fill-opacity: 1;"/><path class="point" transform="translate(69.16,122.77)" d="M2.5,0A2.5,2.5 0 1,1 0,-2.5A2.5,2.5 0 0,1 2.5,0Z" style="opacity: 1; stroke-width: 0px; fill: rgb(234, 79, 136); fill-opacity: 1;"/><path class="point" transform="translate(99.48,86.16)" d="M2.5,0A2.5,2.5 0 1,1 0,-2.5A2.5,2.5 0 0,1 2.5,0Z" style="opacity: 1; stroke-width: 0px; fill: rgb(234, 79, 136); fill-opacity: 1;"/></g><g class="text"/></g><g class="trace scatter tracec5efc3" style="stroke-miterlimit: 2; opacity: 0.8;"><g class="fills"/><g class="errorbars"/><g class="lines"><path class="js-line" d="M8.53,196L38.84,196L69.16,122.77L99.48,86.16" style="vector-effect: non-scaling-stroke; fill: none; stroke: rgb(234, 79, 136); stroke-opacity: 1; stroke-width: 1.5px; opacity: 1;"/></g><g class="points"><path class="point" transform="translate(8.53,196)" d="M2.5,0A2.5,2.5 0 1,1 0,-2.5A2.5,2.5 0 0,1 2.5,0Z" style="opacity: 1; stroke-width: 0px; fill: rgb(234, 79, 136); fill-opacity: 1;"/><path class="point" transform="translate(38.84,196)" d="M2.5,0A2.5,2.5 0 1,1 0,-2.5A2.5,2.5 0 0,1 2.5,0Z" style="opacity: 1; stroke-width: 0px; fill: rgb(234, 79, 136); fill-opacity: 1;"/><path class="point" transform="translate(69.16,122.77)" d="M2.5,0A2.5,2.5 0 1,1 0,-2.5A2.5,2.5 0 0,1 2.5,0Z" style="opacity: 1; stroke-width: 0px; fill: rgb(234, 79, 136); fill-opacity: 1;"/><path class="point" transform="translate(99.48,86.16)" d="M2.5,0A2.5,2.5 0 1,1 0,-2.5A2.5,2.5 0 0,1 2.5,0Z" style="opacity: 1; stroke-width: 0px; fill: rgb(234, 79, 136); fill-opacity: 1;"/></g><g class="text"/></g><g class="trace scatter tracee5e85e" style="stroke-miterlimit: 2; opacity: 0.8;"><g class="fills"/><g class="errorbars"/><g class="lines"><path class="js-line" d="M8.53,196L38.84,159.39L69.16,159.39L99.48,49.54" style="vector-effect: non-scaling-stroke; fill: none; stroke: rgb(234, 79, 136); stroke-opacity: 1; stroke-width: 1.5px; opacity: 1;"/></g><g class="points"><path class="point" transform="translate(8.53,196)" d="M2.5,0A2.5,2.5 0 1,1 0,-2.5A2.5,2.5 0 0,1 2.5,0Z" style="opacity: 1; stroke-width: 0px; fill: rgb(234, 79, 136); fill-opacity: 1;"/><path class="point" transform="translate(38.84,159.39)" d="M2.5,0A2.5,2.5 0 1,1 0,-2.5A2.5,2.5 0 0,1 2.5,0Z" style="opacity: 1; stroke-width: 0px; fill: rgb(234, 79, 136); fill-opacity: 1;"/><path class="point" transform="translate(69.16,159.39)" d="M2.5,0A2.5,2.5 0 1,1 0,-2.5A2.5,2.5 0 0,1 2.5,0Z" style="opacity: 1; stroke-width: 0px; fill: rgb(234, 79, 136); fill-opacity: 1;"/><path class="point" transform="translate(99.48,49.54)" d="M2.5,0A2.5,2.5 0 1,1 0,-2.5A2.5,2.5 0 0,1 2.5,0Z" style="opacity: 1; stroke-width: 0px; fill: rgb(234, 79, 136); fill-opacity: 1;"/></g><g class="text"/></g><g class="trace scatter trace4b9988" style="stroke-miterlimit: 2; opacity: 0.8;"><g class="fills"/><g class="errorbars"/><g class="lines"><path class="js-line" d="M8.53,196L38.84,159.39L69.16,159.39L99.48,122.77" style="vector-effect: non-scaling-stroke; fill: none; stroke: rgb(234, 79, 136); stroke-opacity: 1; stroke-width: 1.5px; opacity: 1;"/></g><g class="points"><path class="point" transform="translate(8.53,196)" d="M2.5,0A2.5,2.5 0 1,1 0,-2.5A2.5,2.5 0 0,1 2.5,0Z" style="opacity: 1; stroke-width: 0px; fill: rgb(234, 79, 136); fill-opacity: 1;"/><path class="point" transform="translate(38.84,159.39)" d="M2.5,0A2.5,2.5 0 1,1 0,-2.5A2.5,2.5 0 0,1 2.5,0Z" style="opacity: 1; stroke-width: 0px; fill: rgb(234, 79, 136); fill-opacity: 1;"/><path class="point" transform="translate(69.16,159.39)" d="M2.5,0A2.5,2.5 0 1,1 0,-2.5A2.5,2.5 0 0,1 2.5,0Z" style="opacity: 1; stroke-width: 0px; fill: rgb(234, 79, 136); fill-opacity: 1;"/><path class="point" transform="translate(99.48,122.77)" d="M2.5,0A2.5,2.5 0 1,1 0,-2.5A2.5,2.5 0 0,1 2.5,0Z" style="opacity: 1; stroke-width: 0px; fill: rgb(234, 79, 136); fill-opacity: 1;"/></g><g class="text"/></g><g class="trace scatter traceec6cc5" style="stroke-miterlimit: 2; opacity: 0.8;"><g class="fills"/><g class="errorbars"/><g class="lines"><path class="js-line" d="M8.53,159.39L99.48,159.39" style="vector-effect: non-scaling-stroke; fill: none; stroke: rgb(248, 145, 120); stroke-opacity: 1; stroke-width: 1.5px; opacity: 1;"/></g><g class="points"><path class="point" transform="translate(8.53,159.39)" d="M2.5,0A2.5,2.5 0 1,1 0,-2.5A2.5,2.5 0 0,1 2.5,0Z" style="opacity: 1; stroke-width: 0px; fill: rgb(248, 145, 120); fill-opacity: 1;"/><path class="point" transform="translate(38.84,159.39)" d="M2.5,0A2.5,2.5 0 1,1 0,-2.5A2.5,2.5 0 0,1 2.5,0Z" style="opacity: 1; stroke-width: 0px; fill: rgb(248, 145, 120); fill-opacity: 1;"/><path class="point" transform="translate(69.16,159.39)" d="M2.5,0A2.5,2.5 0 1,1 0,-2.5A2.5,2.5 0 0,1 2.5,0Z" style="opacity: 1; stroke-width: 0px; fill: rgb(248, 145, 120); fill-opacity: 1;"/><path class="point" transform="translate(99.48,159.39)" d="M2.5,0A2.5,2.5 0 1,1 0,-2.5A2.5,2.5 0 0,1 2.5,0Z" style="opacity: 1; stroke-width: 0px; fill: rgb(248, 145, 120); fill-opacity: 1;"/></g><g class="text"/></g><g class="trace scatter tracee2f63b" style="stroke-miterlimit: 2; opacity: 0.8;"><g class="fills"/><g class="errorbars"/><g class="lines"><path class="js-line" d="M8.53,196L69.16,196L99.48,86.16" style="vector-effect: non-scaling-stroke; fill: none; stroke: rgb(248, 145, 120); stroke-opacity: 1; stroke-width: 1.5px; opacity: 1;"/></g><g class="points"><path class="point" transform="translate(8.53,196)" d="M2.5,0A2.5,2.5 0 1,1 0,-2.5A2.5,2.5 0 0,1 2.5,0Z" style="opacity: 1; stroke-width: 0px; fill: rgb(248, 145, 120); fill-opacity: 1;"/><path class="point" transform="translate(38.84,196)" d="M2.5,0A2.5,2.5 0 1,1 0,-2.5A2.5,2.5 0 0,1 2.5,0Z" style="opacity: 1; stroke-width: 0px; fill: rgb(248, 145, 120); fill-opacity: 1;"/><path class="point" transform="translate(69.16,196)" d="M2.5,0A2.5,2.5 0 1,1 0,-2.5A2.5,2.5 0 0,1 2.5,0Z" style="opacity: 1; stroke-width: 0px; fill: rgb(248, 145, 120); fill-opacity: 1;"/><path class="point" transform="translate(99.48,86.16)" d="M2.5,0A2.5,2.5 0 1,1 0,-2.5A2.5,2.5 0 0,1 2.5,0Z" style="opacity: 1; stroke-width: 0px; fill: rgb(248, 145, 120); fill-opacity: 1;"/></g><g class="text"/></g><g class="trace scatter trace587e6f" style="stroke-miterlimit: 2; opacity: 0.8;"><g class="fills"/><g class="errorbars"/><g class="lines"><path class="js-line" d="M8.53,196L38.84,86.16L69.16,196L99.48,196" style="vector-effect: non-scaling-stroke; fill: none; stroke: rgb(248, 145, 120); stroke-opacity: 1; stroke-width: 1.5px; opacity: 1;"/></g><g class="points"><path class="point" transform="translate(8.53,196)" d="M2.5,0A2.5,2.5 0 1,1 0,-2.5A2.5,2.5 0 0,1 2.5,0Z" style="opacity: 1; stroke-width: 0px; fill: rgb(248, 145, 120); fill-opacity: 1;"/><path class="point" transform="translate(38.84,86.16)" d="M2.5,0A2.5,2.5 0 1,1 0,-2.5A2.5,2.5 0 0,1 2.5,0Z" style="opacity: 1; stroke-width: 0px; fill: rgb(248, 145, 120); fill-opacity: 1;"/><path class="point" transform="translate(69.16,196)" d="M2.5,0A2.5,2.5 0 1,1 0,-2.5A2.5,2.5 0 0,1 2.5,0Z" style="opacity: 1; stroke-width: 0px; fill: rgb(248, 145, 120); fill-opacity: 1;"/><path class="point" transform="translate(99.48,196)" d="M2.5,0A2.5,2.5 0 1,1 0,-2.5A2.5,2.5 0 0,1 2.5,0Z" style="opacity: 1; stroke-width: 0px; fill: rgb(248, 145, 120); fill-opacity: 1;"/></g><g class="text"/></g><g class="trace scatter trace50efa3" style="stroke-miterlimit: 2; opacity: 0.8;"><g class="fills"/><g class="errorbars"/><g class="lines"><path class="js-line" d="M8.53,196L38.84,49.54L69.16,12.93L99.48,12.93" style="vector-effect: non-scaling-stroke; fill: none; stroke: rgb(248, 145, 120); stroke-opacity: 1; stroke-width: 1.5px; opacity: 1;"/></g><g class="points"><path class="point" transform="translate(8.53,196)" d="M2.5,0A2.5,2.5 0 1,1 0,-2.5A2.5,2.5 0 0,1 2.5,0Z" style="opacity: 1; stroke-width: 0px; fill: rgb(248, 145, 120); fill-opacity: 1;"/><path class="point" transform="translate(38.84,49.54)" d="M2.5,0A2.5,2.5 0 1,1 0,-2.5A2.5,2.5 0 0,1 2.5,0Z" style="opacity: 1; stroke-width: 0px; fill: rgb(248, 145, 120); fill-opacity: 1;"/><path class="point" transform="translate(69.16,12.93)" d="M2.5,0A2.5,2.5 0 1,1 0,-2.5A2.5,2.5 0 0,1 2.5,0Z" style="opacity: 1; stroke-width: 0px; fill: rgb(248, 145, 120); fill-opacity: 1;"/><path class="point" transform="translate(99.48,12.93)" d="M2.5,0A2.5,2.5 0 1,1 0,-2.5A2.5,2.5 0 0,1 2.5,0Z" style="opacity: 1; stroke-width: 0px; fill: rgb(248, 145, 120); fill-opacity: 1;"/></g><g class="text"/></g><g class="trace scatter trace5c2276" style="stroke-miterlimit: 2; opacity: 0.8;"><g class="fills"/><g class="errorbars"/><g class="lines"><path class="js-line" d="M8.53,196L38.84,86.16L69.16,196L99.48,12.93" style="vector-effect: non-scaling-stroke; fill: none; stroke: rgb(248, 145, 120); stroke-opacity: 1; stroke-width: 1.5px; opacity: 1;"/></g><g class="points"><path class="point" transform="translate(8.53,196)" d="M2.5,0A2.5,2.5 0 1,1 0,-2.5A2.5,2.5 0 0,1 2.5,0Z" style="opacity: 1; stroke-width: 0px; fill: rgb(248, 145, 120); fill-opacity: 1;"/><path class="point" transform="translate(38.84,86.16)" d="M2.5,0A2.5,2.5 0 1,1 0,-2.5A2.5,2.5 0 0,1 2.5,0Z" style="opacity: 1; stroke-width: 0px; fill: rgb(248, 145, 120); fill-opacity: 1;"/><path class="point" transform="translate(69.16,196)" d="M2.5,0A2.5,2.5 0 1,1 0,-2.5A2.5,2.5 0 0,1 2.5,0Z" style="opacity: 1; stroke-width: 0px; fill: rgb(248, 145, 120); fill-opacity: 1;"/><path class="point" transform="translate(99.48,12.93)" d="M2.5,0A2.5,2.5 0 1,1 0,-2.5A2.5,2.5 0 0,1 2.5,0Z" style="opacity: 1; stroke-width: 0px; fill: rgb(248, 145, 120); fill-opacity: 1;"/></g><g class="text"/></g></g></g><g class="overplot"/><path class="xlines-above crisp" d="M0,0" style="fill: none;"/><path class="ylines-above crisp" d="M0,0" style="fill: none;"/><g class="overlines-above"/><g class="xaxislayer-above"><g class="xtick"><text text-anchor="middle" x="0" y="227" transform="translate(35.53,0)" style="font-family: 'Open Sans', verdana, arial, sans-serif; font-size: 10px; fill: rgb(0, 0, 0); fill-opacity: 1; white-space: pre; opacity: 1;">T11</text></g><g class="xtick"><text text-anchor="middle" x="0" y="227" transform="translate(65.84,0)" style="font-family: 'Open Sans', verdana, arial, sans-serif; font-size: 10px; fill: rgb(0, 0, 0); fill-opacity: 1; white-space: pre; opacity: 1;">T22</text></g><g class="xtick"><text text-anchor="middle" x="0" y="227" transform="translate(96.16,0)" style="font-family: 'Open Sans', verdana, arial, sans-serif; font-size: 10px; fill: rgb(0, 0, 0); fill-opacity: 1; white-space: pre; opacity: 1;">T33</text></g><g class="xtick"><text text-anchor="middle" x="0" y="227" transform="translate(126.48,0)" style="font-family: 'Open Sans', verdana, arial, sans-serif; font-size: 10px; fill: rgb(0, 0, 0); fill-opacity: 1; white-space: pre; opacity: 1;">T44</text></g></g><g class="yaxislayer-above"><g class="ytick"><text text-anchor="end" x="26" y="3.5" transform="translate(0,216)" style="font-family: 'Open Sans', verdana, arial, sans-serif; font-size: 10px; fill: rgb(0, 0, 0); fill-opacity: 1; white-space: pre; opacity: 1;">0</text></g><g class="ytick"><text text-anchor="end" x="26" y="3.5" style="font-family: 'Open Sans', verdana, arial, sans-serif; font-size: 10px; fill: rgb(0, 0, 0); fill-opacity: 1; white-space: pre; opacity: 1;" transform="translate(0,142.76999999999998)">2</text></g><g class="ytick"><text text-anchor="end" x="26" y="3.5" style="font-family: 'Open Sans', verdana, arial, sans-serif; font-size: 10px; fill: rgb(0, 0, 0); fill-opacity: 1; white-space: pre; opacity: 1;" transform="translate(0,69.53999999999999)">4</text></g></g><g class="overaxes-above"/></g></g><g class="polarlayer"/><g class="smithlayer"/><g class="ternarylayer"/><g class="geolayer"/><g class="funnelarealayer"/><g class="pielayer"/><g class="iciclelayer"/><g class="treemaplayer"/><g class="sunburstlayer"/><g class="glimages"/><defs id="topdefs-75c2d8"><g class="clips"/><clipPath id="legend75c2d8"><rect width="51" height="80" x="0" y="0"/></clipPath></defs><g class="layer-above"><g class="imagelayer"/><g class="shapelayer"/></g><g class="infolayer"><g class="legend" pointer-events="all" transform="translate(137.16,20)"><rect class="bg" shape-rendering="crispEdges" width="51" height="80" x="0" y="0" style="stroke: rgb(68, 68, 68); stroke-opacity: 1; fill: rgb(255, 255, 255); fill-opacity: 1; stroke-width: 0px;"/><g class="scrollbox" transform="" clip-path="url(#legend75c2d8)"><text class="legendtitletext" text-anchor="start" x="2" y="13" style="font-family: 'Open Sans', verdana, arial, sans-serif; font-size: 10px; fill: rgb(0, 0, 0); fill-opacity: 1; white-space: pre;">Condition</text><g class="groups" transform=""><g class="traces" transform="translate(0,27.5)" style="opacity: 1;"><text class="legendtext" text-anchor="start" x="40" y="3.9" style="font-family: 'Open Sans', verdana, arial, sans-serif; font-size: 10px; fill: rgb(0, 0, 0); fill-opacity: 1; white-space: pre;">1</text><g class="layers" style="opacity: 0.8;"><g class="legendfill"/><g class="legendlines"><path class="js-line" d="M5,0h30" style="fill: none; stroke: rgb(75, 41, 145); stroke-opacity: 1; stroke-width: 1.5px;"/></g><g class="legendsymbols"><g class="legendpoints"><path class="scatterpts" transform="translate(20,0)" d="M2.5,0A2.5,2.5 0 1,1 0,-2.5A2.5,2.5 0 0,1 2.5,0Z" style="opacity: 1; stroke-width: 0px; fill: rgb(75, 41, 145); fill-opacity: 1;"/></g></g></g><rect class="legendtoggle" x="0" y="-9.5" width="46" height="19" style="fill: rgb(0, 0, 0); fill-opacity: 0;"/></g></g><g class="groups" transform=""><g class="traces" transform="translate(0,46.5)" style="opacity: 1;"><text class="legendtext" text-anchor="start" x="40" y="3.9" style="font-family: 'Open Sans', verdana, arial, sans-serif; font-size: 10px; fill: rgb(0, 0, 0); fill-opacity: 1; white-space: pre;">3</text><g class="layers" style="opacity: 0.8;"><g class="legendfill"/><g class="legendlines"><path class="js-line" d="M5,0h30" style="fill: none; stroke: rgb(234, 79, 136); stroke-opacity: 1; stroke-width: 1.5px;"/></g><g class="legendsymbols"><g class="legendpoints"><path class="scatterpts" transform="translate(20,0)" d="M2.5,0A2.5,2.5 0 1,1 0,-2.5A2.5,2.5 0 0,1 2.5,0Z" style="opacity: 1; stroke-width: 0px; fill: rgb(234, 79, 136); fill-opacity: 1;"/></g></g></g><rect class="legendtoggle" x="0" y="-9.5" width="46" height="19" style="fill: rgb(0, 0, 0); fill-opacity: 0;"/></g></g><g class="groups" transform=""><g class="traces" transform="translate(0,65.5)" style="opacity: 1;"><text class="legendtext" text-anchor="start" x="40" y="3.9" style="font-family: 'Open Sans', verdana, arial, sans-serif; font-size: 10px; fill: rgb(0, 0, 0); fill-opacity: 1; white-space: pre;">4</text><g class="layers" style="opacity: 0.8;"><g class="legendfill"/><g class="legendlines"><path class="js-line" d="M5,0h30" style="fill: none; stroke: rgb(248, 145, 120); stroke-opacity: 1; stroke-width: 1.5px;"/></g><g class="legendsymbols"><g class="legendpoints"><path class="scatterpts" transform="translate(20,0)" d="M2.5,0A2.5,2.5 0 1,1 0,-2.5A2.5,2.5 0 0,1 2.5,0Z" style="opacity: 1; stroke-width: 0px; fill: rgb(248, 145, 120); fill-opacity: 1;"/></g></g></g><rect class="legendtoggle" x="0" y="-9.5" width="46" height="19" style="fill: rgb(0, 0, 0); fill-opacity: 0;"/></g></g></g><rect class="scrollbar" rx="20" ry="3" width="0" height="0" x="0" y="0" style="fill: rgb(128, 139, 164); fill-opacity: 1;"/></g><g class="g-gtitle"/><g class="g-xtitle" transform="translate(0,4.599999999999994)"><text class="xtitle" x="81" y="238.4" text-anchor="middle" style="font-family: 'Open Sans', verdana, arial, sans-serif; font-size: 12px; fill: rgb(0, 0, 0); opacity: 1; font-weight: normal; white-space: pre;">Time-point</text></g><g class="g-ytitle" transform="translate(1.119140625,0)"><text class="ytitle" transform="rotate(-90,11.881250000000001,118)" x="11.881250000000001" y="118" text-anchor="middle" style="font-family: 'Open Sans', verdana, arial, sans-serif; font-size: 12px; fill: rgb(0, 0, 0); opacity: 1; font-weight: normal; white-space: pre;">Number of fixed variants</text></g></g></svg>