<svg class="main-svg" xmlns="http://www.w3.org/2000/svg" xmlns:xlink="http://www.w3.org/1999/xlink" width="350" height="300" style="" viewBox="0 0 350 300"><rect x="0" y="0" width="350" height="300" style="fill: rgb(255, 255, 255); fill-opacity: 1;"/><defs id="defs-76fe7f"><g class="clips"><clipPath id="clip76fe7fxyplot" class="plotclip"><rect width="190" height="160"/></clipPath><clipPath class="axesclip" id="clip76fe7fx"><rect x="80" y="0" width="190" height="300"/></clipPath><clipPath class="axesclip" id="clip76fe7fy"><rect x="0" y="60" width="350" height="160"/></clipPath><clipPath class="axesclip" id="clip76fe7fxy"><rect x="80" y="60" width="190" height="160"/></clipPath></g><g class="gradients"/><g class="patterns"/></defs><g class="bglayer"><rect class="bg" x="80" y="60" width="190" height="160" style="fill: rgb(229, 236, 246); fill-opacity: 1; stroke-width: 0;"/></g><g class="layer-below"><g class="imagelayer"/><g class="shapelayer"/></g><g class="cartesianlayer"><g class="subplot xy"><g class="layer-subplot"><g class="shapelayer"/><g class="imagelayer"/></g><g class="gridlayer"><g class="x"><path class="xgrid crisp" transform="translate(146.56,0)" d="M0,60v160" style="stroke: rgb(255, 255, 255); stroke-opacity: 1; stroke-width: 1px;"/><path class="xgrid crisp" transform="translate(213.11,0)" d="M0,60v160" style="stroke: rgb(255, 255, 255); stroke-opacity: 1; stroke-width: 1px;"/></g><g class="y"><path class="ygrid crisp" transform="translate(0,146.55)" d="M80,0h190" style="stroke: rgb(255, 255, 255); stroke-opacity: 1; stroke-width: 1px;"/><path class="ygrid crisp" transform="translate(0,81.09)" d="M80,0h190" style="stroke: rgb(255, 255, 255); stroke-opacity: 1; stroke-width: 1px;"/></g></g><g class="zerolinelayer"><path class="xzl zl crisp" transform="translate(80,0)" d="M0,60v160" style="stroke: rgb(255, 255, 255); stroke-opacity: 1; stroke-width: 2px;"/><path class="yzl zl crisp" transform="translate(0,212)" d="M80,0h190" style="stroke: rgb(255, 255, 255); stroke-opacity: 1; stroke-width: 2px;"/></g><path class="xlines-below"/><path class="ylines-below"/><g class="overlines-below"/><g class="xaxislayer-below"/><g class="yaxislayer-below"/><g class="overaxes-below"/><g class="plot" transform="translate(80,60)" clip-path="url(#clip76fe7fxyplot)"><g class="scatterlayer mlayer"><g class="trace scatter trace96c3bc" style="stroke-miterlimit: 2; opacity: 1;"><g class="fills"/><g class="errorbars"/><g class="lines"/><g class="points"><path class="point plotly-customdata" transform="translate(90.08,86.55)" d="M3,0A3,3 0 1,1 0,-3A3,3 0 0,1 3,0Z" style="opacity: 0.7; stroke-width: 0px; fill: rgb(75, 41, 145); fill-opacity: 1;"/><path class="point plotly-customdata" transform="translate(111.92,99.64)" d="M3,0A3,3 0 1,1 0,-3A3,3 0 0,1 3,0Z" style="opacity: 0.7; stroke-width: 0px; fill: rgb(75, 41, 145); fill-opacity: 1;"/><path class="point plotly-customdata" transform="translate(104.92,112.73)" d="M3,0A3,3 0 1,1 0,-3A3,3 0 0,1 3,0Z" style="opacity: 0.7; stroke-width: 0px; fill: rgb(75, 41, 145); fill-opacity: 1;"/><path class="point plotly-customdata" transform="translate(102.07,60.36)" d="M3,0A3,3 0 1,1 0,-3A3,3 0 0,1 3,0Z" style="opacity: 0.7; stroke-width: 0px; fill: rgb(75, 41, 145); fill-opacity: 1;"/><path class="point plotly-customdata" transform="translate(58.47,99.64)" d="M3,0A3,3 0 1,1 0,-3A3,3 0 0,1 3,0Z" style="opacity: 0.7; stroke-width: 0px; fill: rgb(75, 41, 145); fill-opacity: 1;"/><path class="point plotly-customdata" transform="translate(92.58,73.45)" d="M3,0A3,3 0 1,1 0,-3A3,3 0 0,1 3,0Z" style="opacity: 0.7; stroke-width: 0px; fill: rgb(75, 41, 145); fill-opacity: 1;"/><path class="point plotly-customdata" transform="translate(90.23,86.55)" d="M3,0A3,3 0 1,1 0,-3A3,3 0 0,1 3,0Z" style="opacity: 0.7; stroke-width: 0px; fill: rgb(75, 41, 145); fill-opacity: 1;"/><path class="point plotly-customdata" transform="translate(54.82,99.64)" d="M3,0A3,3 0 1,1 0,-3A3,3 0 0,1 3,0Z" style="opacity: 0.7; stroke-width: 0px; fill: rgb(75, 41, 145); fill-opacity: 1;"/><path class="point plotly-customdata" transform="translate(94.06,60.36)" d="M3,0A3,3 0 1,1 0,-3A3,3 0 0,1 3,0Z" style="opacity: 0.7; stroke-width: 0px; fill: rgb(75, 41, 145); fill-opacity: 1;"/><path class="point plotly-customdata" transform="translate(78.54,86.55)" d="M3,0A3,3 0 1,1 0,-3A3,3 0 0,1 3,0Z" style="opacity: 0.7; stroke-width: 0px; fill: rgb(75, 41, 145); fill-opacity: 1;"/><path class="point plotly-customdata" transform="translate(108.92,60.36)" d="M3,0A3,3 0 1,1 0,-3A3,3 0 0,1 3,0Z" style="opacity: 0.7; stroke-width: 0px; fill: rgb(75, 41, 145); fill-opacity: 1;"/><path class="point plotly-customdata" transform="translate(93.53,99.64)" d="M3,0A3,3 0 1,1 0,-3A3,3 0 0,1 3,0Z" style="opacity: 0.7; stroke-width: 0px; fill: rgb(75, 41, 145); fill-opacity: 1;"/><path class="point plotly-customdata" transform="translate(85.7,99.64)" d="M3,0A3,3 0 1,1 0,-3A3,3 0 0,1 3,0Z" style="opacity: 0.7; stroke-width: 0px; fill: rgb(75, 41, 145); fill-opacity: 1;"/><path class="point plotly-customdata" transform="translate(119.11,99.64)" d="M3,0A3,3 0 1,1 0,-3A3,3 0 0,1 3,0Z" style="opacity: 0.7; stroke-width: 0px; fill: rgb(75, 41, 145); fill-opacity: 1;"/><path class="point plotly-customdata" transform="translate(100.25,60.36)" d="M3,0A3,3 0 1,1 0,-3A3,3 0 0,1 3,0Z" style="opacity: 0.7; stroke-width: 0px; fill: rgb(75, 41, 145); fill-opacity: 1;"/><path class="point plotly-customdata" transform="translate(100.97,60.36)" d="M3,0A3,3 0 1,1 0,-3A3,3 0 0,1 3,0Z" style="opacity: 0.7; stroke-width: 0px; fill: rgb(75, 41, 145); fill-opacity: 1;"/><path class="point plotly-customdata" transform="translate(128.09,60.36)" d="M3,0A3,3 0 1,1 0,-3A3,3 0 0,1 3,0Z" style="opacity: 0.7; stroke-width: 0px; fill: rgb(75, 41, 145); fill-opacity: 1;"/><path class="point plotly-customdata" transform="translate(121.33,60.36)" d="M3,0A3,3 0 1,1 0,-3A3,3 0 0,1 3,0Z" style="opacity: 0.7; stroke-width: 0px; fill: rgb(75, 41, 145); fill-opacity: 1;"/><path class="point plotly-customdata" transform="translate(95.06,112.73)" d="M3,0A3,3 0 1,1 0,-3A3,3 0 0,1 3,0Z" style="opacity: 0.7; stroke-width: 0px; fill: rgb(75, 41, 145); fill-opacity: 1;"/><path class="point plotly-customdata" transform="translate(110.73,73.45)" d="M3,0A3,3 0 1,1 0,-3A3,3 0 0,1 3,0Z" style="opacity: 0.7; stroke-width: 0px; fill: rgb(75, 41, 145); fill-opacity: 1;"/></g><g class="text"/></g><g class="trace scatter trace4c6a7d" style="stroke-miterlimit: 2; opacity: 1;"><g class="fills"/><g class="errorbars"/><g class="lines"/><g class="points"><path class="point plotly-customdata" transform="translate(76.39,112.73)" d="M3,0A3,3 0 1,1 0,-3A3,3 0 0,1 3,0Z" style="opacity: 0.7; stroke-width: 0px; fill: rgb(234, 79, 136); fill-opacity: 1;"/><path class="point plotly-customdata" transform="translate(69.22,112.73)" d="M3,0A3,3 0 1,1 0,-3A3,3 0 0,1 3,0Z" style="opacity: 0.7; stroke-width: 0px; fill: rgb(234, 79, 136); fill-opacity: 1;"/><path class="point plotly-customdata" transform="translate(75.24,112.73)" d="M3,0A3,3 0 1,1 0,-3A3,3 0 0,1 3,0Z" style="opacity: 0.7; stroke-width: 0px; fill: rgb(234, 79, 136); fill-opacity: 1;"/><path class="point plotly-customdata" transform="translate(63.91,112.73)" d="M3,0A3,3 0 1,1 0,-3A3,3 0 0,1 3,0Z" style="opacity: 0.7; stroke-width: 0px; fill: rgb(234, 79, 136); fill-opacity: 1;"/><path class="point plotly-customdata" transform="translate(62.82,112.73)" d="M3,0A3,3 0 1,1 0,-3A3,3 0 0,1 3,0Z" style="opacity: 0.7; stroke-width: 0px; fill: rgb(234, 79, 136); fill-opacity: 1;"/><path class="point plotly-customdata" transform="translate(62.11,112.73)" d="M3,0A3,3 0 1,1 0,-3A3,3 0 0,1 3,0Z" style="opacity: 0.7; stroke-width: 0px; fill: rgb(234, 79, 136); fill-opacity: 1;"/><path class="point plotly-customdata" transform="translate(74.55,125.82)" d="M3,0A3,3 0 1,1 0,-3A3,3 0 0,1 3,0Z" style="opacity: 0.7; stroke-width: 0px; fill: rgb(234, 79, 136); fill-opacity: 1;"/><path class="point plotly-customdata" transform="translate(95.72,112.73)" d="M3,0A3,3 0 1,1 0,-3A3,3 0 0,1 3,0Z" style="opacity: 0.7; stroke-width: 0px; fill: rgb(234, 79, 136); fill-opacity: 1;"/><path class="point plotly-customdata" transform="translate(90.52,99.64)" d="M3,0A3,3 0 1,1 0,-3A3,3 0 0,1 3,0Z" style="opacity: 0.7; stroke-width: 0px; fill: rgb(234, 79, 136); fill-opacity: 1;"/><path class="point plotly-customdata" transform="translate(70.64,112.73)" d="M3,0A3,3 0 1,1 0,-3A3,3 0 0,1 3,0Z" style="opacity: 0.7; stroke-width: 0px; fill: rgb(234, 79, 136); fill-opacity: 1;"/><path class="point plotly-customdata" transform="translate(83.65,99.64)" d="M3,0A3,3 0 1,1 0,-3A3,3 0 0,1 3,0Z" style="opacity: 0.7; stroke-width: 0px; fill: rgb(234, 79, 136); fill-opacity: 1;"/><path class="point plotly-customdata" transform="translate(74.34,112.73)" d="M3,0A3,3 0 1,1 0,-3A3,3 0 0,1 3,0Z" style="opacity: 0.7; stroke-width: 0px; fill: rgb(234, 79, 136); fill-opacity: 1;"/><path class="point plotly-customdata" transform="translate(65.45,112.73)" d="M3,0A3,3 0 1,1 0,-3A3,3 0 0,1 3,0Z" style="opacity: 0.7; stroke-width: 0px; fill: rgb(234, 79, 136); fill-opacity: 1;"/><path class="point plotly-customdata" transform="translate(71.01,112.73)" d="M3,0A3,3 0 1,1 0,-3A3,3 0 0,1 3,0Z" style="opacity: 0.7; stroke-width: 0px; fill: rgb(234, 79, 136); fill-opacity: 1;"/><path class="point plotly-customdata" transform="translate(120.47,73.45)" d="M3,0A3,3 0 1,1 0,-3A3,3 0 0,1 3,0Z" style="opacity: 0.7; stroke-width: 0px; fill: rgb(234, 79, 136); fill-opacity: 1;"/><path class="point plotly-customdata" transform="translate(60.13,112.73)" d="M3,0A3,3 0 1,1 0,-3A3,3 0 0,1 3,0Z" style="opacity: 0.7; stroke-width: 0px; fill: rgb(234, 79, 136); fill-opacity: 1;"/><path class="point plotly-customdata" transform="translate(79.87,99.64)" d="M3,0A3,3 0 1,1 0,-3A3,3 0 0,1 3,0Z" style="opacity: 0.7; stroke-width: 0px; fill: rgb(234, 79, 136); fill-opacity: 1;"/><path class="point plotly-customdata" transform="translate(93.84,99.64)" d="M3,0A3,3 0 1,1 0,-3A3,3 0 0,1 3,0Z" style="opacity: 0.7; stroke-width: 0px; fill: rgb(234, 79, 136); fill-opacity: 1;"/><path class="point plotly-customdata" transform="translate(163.79,112.73)" d="M3,0A3,3 0 1,1 0,-3A3,3 0 0,1 3,0Z" style="opacity: 0.7; stroke-width: 0px; fill: rgb(234, 79, 136); fill-opacity: 1;"/><path class="point plotly-customdata" transform="translate(109.2,99.64)" d="M3,0A3,3 0 1,1 0,-3A3,3 0 0,1 3,0Z" style="opacity: 0.7; stroke-width: 0px; fill: rgb(234, 79, 136); fill-opacity: 1;"/></g><g class="text"/></g><g class="trace scatter tracebce750" style="stroke-miterlimit: 2; opacity: 1;"><g class="fills"/><g class="errorbars"/><g class="lines"/><g class="points"><path class="point plotly-customdata" transform="translate(61.29,112.73)" d="M3,0A3,3 0 1,1 0,-3A3,3 0 0,1 3,0Z" style="opacity: 0.7; stroke-width: 0px; fill: rgb(237, 217, 163); fill-opacity: 1;"/><path class="point plotly-customdata" transform="translate(62.91,112.73)" d="M3,0A3,3 0 1,1 0,-3A3,3 0 0,1 3,0Z" style="opacity: 0.7; stroke-width: 0px; fill: rgb(237, 217, 163); fill-opacity: 1;"/><path class="point plotly-customdata" transform="translate(58.72,112.73)" d="M3,0A3,3 0 1,1 0,-3A3,3 0 0,1 3,0Z" style="opacity: 0.7; stroke-width: 0px; fill: rgb(237, 217, 163); fill-opacity: 1;"/><path class="point plotly-customdata" transform="translate(61.15,99.64)" d="M3,0A3,3 0 1,1 0,-3A3,3 0 0,1 3,0Z" style="opacity: 0.7; stroke-width: 0px; fill: rgb(237, 217, 163); fill-opacity: 1;"/><path class="point plotly-customdata" transform="translate(145.67,60.36)" d="M3,0A3,3 0 1,1 0,-3A3,3 0 0,1 3,0Z" style="opacity: 0.7; stroke-width: 0px; fill: rgb(237, 217, 163); fill-opacity: 1;"/><path class="point plotly-customdata" transform="translate(74.92,112.73)" d="M3,0A3,3 0 1,1 0,-3A3,3 0 0,1 3,0Z" style="opacity: 0.7; stroke-width: 0px; fill: rgb(237, 217, 163); fill-opacity: 1;"/><path class="point plotly-customdata" transform="translate(91.45,112.73)" d="M3,0A3,3 0 1,1 0,-3A3,3 0 0,1 3,0Z" style="opacity: 0.7; stroke-width: 0px; fill: rgb(237, 217, 163); fill-opacity: 1;"/><path class="point plotly-customdata" transform="translate(95.24,99.64)" d="M3,0A3,3 0 1,1 0,-3A3,3 0 0,1 3,0Z" style="opacity: 0.7; stroke-width: 0px; fill: rgb(237, 217, 163); fill-opacity: 1;"/><path class="point plotly-customdata" transform="translate(103.9,99.64)" d="M3,0A3,3 0 1,1 0,-3A3,3 0 0,1 3,0Z" style="opacity: 0.7; stroke-width: 0px; fill: rgb(237, 217, 163); fill-opacity: 1;"/><path class="point plotly-customdata" transform="translate(85.27,112.73)" d="M3,0A3,3 0 1,1 0,-3A3,3 0 0,1 3,0Z" style="opacity: 0.7; stroke-width: 0px; fill: rgb(237, 217, 163); fill-opacity: 1;"/><path class="point plotly-customdata" transform="translate(69.69,112.73)" d="M3,0A3,3 0 1,1 0,-3A3,3 0 0,1 3,0Z" style="opacity: 0.7; stroke-width: 0px; fill: rgb(237, 217, 163); fill-opacity: 1;"/><path class="point plotly-customdata" transform="translate(124.41,112.73)" d="M3,0A3,3 0 1,1 0,-3A3,3 0 0,1 3,0Z" style="opacity: 0.7; stroke-width: 0px; fill: rgb(237, 217, 163); fill-opacity: 1;"/><path class="point plotly-customdata" transform="translate(131.99,99.64)" d="M3,0A3,3 0 1,1 0,-3A3,3 0 0,1 3,0Z" style="opacity: 0.7; stroke-width: 0px; fill: rgb(237, 217, 163); fill-opacity: 1;"/><path class="point plotly-customdata" transform="translate(145.61,112.73)" d="M3,0A3,3 0 1,1 0,-3A3,3 0 0,1 3,0Z" style="opacity: 0.7; stroke-width: 0px; fill: rgb(237, 217, 163); fill-opacity: 1;"/><path class="point plotly-customdata" transform="translate(114.59,112.73)" d="M3,0A3,3 0 1,1 0,-3A3,3 0 0,1 3,0Z" style="opacity: 0.7; stroke-width: 0px; fill: rgb(237, 217, 163); fill-opacity: 1;"/><path class="point plotly-customdata" transform="translate(176.75,60.36)" d="M3,0A3,3 0 1,1 0,-3A3,3 0 0,1 3,0Z" style="opacity: 0.7; stroke-width: 0px; fill: rgb(237, 217, 163); fill-opacity: 1;"/><path class="point plotly-customdata" transform="translate(137.86,112.73)" d="M3,0A3,3 0 1,1 0,-3A3,3 0 0,1 3,0Z" style="opacity: 0.7; stroke-width: 0px; fill: rgb(237, 217, 163); fill-opacity: 1;"/><path class="point plotly-customdata" transform="translate(57.57,112.73)" d="M3,0A3,3 0 1,1 0,-3A3,3 0 0,1 3,0Z" style="opacity: 0.7; stroke-width: 0px; fill: rgb(237, 217, 163); fill-opacity: 1;"/><path class="point plotly-customdata" transform="translate(103.11,112.73)" d="M3,0A3,3 0 1,1 0,-3A3,3 0 0,1 3,0Z" style="opacity: 0.7; stroke-width: 0px; fill: rgb(237, 217, 163); fill-opacity: 1;"/><path class="point plotly-customdata" transform="translate(62.16,112.73)" d="M3,0A3,3 0 1,1 0,-3A3,3 0 0,1 3,0Z" style="opacity: 0.7; stroke-width: 0px; fill: rgb(237, 217, 163); fill-opacity: 1;"/></g><g class="text"/></g><g class="trace scatter trace3addf4" style="stroke-miterlimit: 2; opacity: 1;"><g class="fills"/><g class="errorbars"/><g class="lines"><path class="js-line" d="M0,152L146.42,8" style="vector-effect: non-scaling-stroke; fill: none; stroke: rgb(128, 128, 128); stroke-opacity: 1; stroke-width: 0.5px; opacity: 1;"/></g><g class="points"/><g class="text"/></g></g></g><g class="overplot"/><path class="xlines-above crisp" d="M0,0" style="fill: none;"/><path class="ylines-above crisp" d="M0,0" style="fill: none;"/><g class="overlines-above"/><g class="xaxislayer-above"><g class="xtick"><text text-anchor="middle" x="0" y="231" transform="translate(80,0)" style="font-family: 'Open Sans', verdana, arial, sans-serif; font-size: 10px; fill: rgb(0, 0, 0); fill-opacity: 1; white-space: pre; opacity: 1;">0</text></g><g class="xtick"><text text-anchor="middle" x="0" y="231" style="font-family: 'Open Sans', verdana, arial, sans-serif; font-size: 10px; fill: rgb(0, 0, 0); fill-opacity: 1; white-space: pre; opacity: 1;" transform="translate(146.56,0)">5</text></g><g class="xtick"><text text-anchor="middle" x="0" y="231" style="font-family: 'Open Sans', verdana, arial, sans-serif; font-size: 10px; fill: rgb(0, 0, 0); fill-opacity: 1; white-space: pre; opacity: 1;" transform="translate(213.11,0)">10</text></g></g><g class="yaxislayer-above"><g class="ytick"><text text-anchor="end" x="79" y="3.5" transform="translate(0,212)" style="font-family: 'Open Sans', verdana, arial, sans-serif; font-size: 10px; fill: rgb(0, 0, 0); fill-opacity: 1; white-space: pre; opacity: 1;">0</text></g><g class="ytick"><text text-anchor="end" x="79" y="3.5" style="font-family: 'Open Sans', verdana, arial, sans-serif; font-size: 10px; fill: rgb(0, 0, 0); fill-opacity: 1; white-space: pre; opacity: 1;" transform="translate(0,146.55)">5</text></g><g class="ytick"><text text-anchor="end" x="79" y="3.5" style="font-family: 'Open Sans', verdana, arial, sans-serif; font-size: 10px; fill: rgb(0, 0, 0); fill-opacity: 1; white-space: pre; opacity: 1;" transform="translate(0,81.09)">10</text></g></g><g class="overaxes-above"/></g></g><g class="polarlayer"/><g class="ternarylayer"/><g class="geolayer"/><g class="funnelarealayer"/><g class="pielayer"/><g class="iciclelayer"/><g class="treemaplayer"/><g class="sunburstlayer"/><g class="glimages"/><defs id="topdefs-76fe7f"><g class="clips"/><clipPath id="legend76fe7f"><rect width="56" height="80" x="0" y="0"/></clipPath></defs><g class="layer-above"><g class="imagelayer"/><g class="shapelayer"/></g><g class="infolayer"><g class="legend" pointer-events="all" transform="translate(273.8,60)"><rect class="bg" shape-rendering="crispEdges" width="56" height="80" x="0" y="0" style="stroke: rgb(68, 68, 68); stroke-opacity: 1; fill: rgb(255, 255, 255); fill-opacity: 1; stroke-width: 0px;"/><g class="scrollbox" transform="" clip-path="url(#legend76fe7f)"><text class="legendtitletext" text-anchor="start" x="2" y="13" style="font-family: 'Open Sans', verdana, arial, sans-serif; font-size: 10px; fill: rgb(0, 0, 0); fill-opacity: 1; white-space: pre;">Treatment</text><g class="groups" transform=""><g class="traces" transform="translate(0,27.5)" style="opacity: 1;"><text class="legendtext" text-anchor="start" x="40" y="3.9" style="font-family: 'Open Sans', verdana, arial, sans-serif; font-size: 10px; fill: rgb(0, 0, 0); fill-opacity: 1; white-space: pre;">2</text><g class="layers" style="opacity: 1;"><g class="legendfill"/><g class="legendlines"/><g class="legendsymbols"><g class="legendpoints"><path class="scatterpts" transform="translate(20,0)" d="M3,0A3,3 0 1,1 0,-3A3,3 0 0,1 3,0Z" style="opacity: 0.7; stroke-width: 0px; fill: rgb(75, 41, 145); fill-opacity: 1;"/></g></g></g><rect class="legendtoggle" x="0" y="-9.5" width="46.375" height="19" style="fill: rgb(0, 0, 0); fill-opacity: 0;"/></g></g><g class="groups" transform=""><g class="traces" transform="translate(0,46.5)" style="opacity: 1;"><text class="legendtext" text-anchor="start" x="40" y="3.9" style="font-family: 'Open Sans', verdana, arial, sans-serif; font-size: 10px; fill: rgb(0, 0, 0); fill-opacity: 1; white-space: pre;">3</text><g class="layers" style="opacity: 1;"><g class="legendfill"/><g class="legendlines"/><g class="legendsymbols"><g class="legendpoints"><path class="scatterpts" transform="translate(20,0)" d="M3,0A3,3 0 1,1 0,-3A3,3 0 0,1 3,0Z" style="opacity: 0.7; stroke-width: 0px; fill: rgb(234, 79, 136); fill-opacity: 1;"/></g></g></g><rect class="legendtoggle" x="0" y="-9.5" width="46.375" height="19" style="fill: rgb(0, 0, 0); fill-opacity: 0;"/></g></g><g class="groups" transform=""><g class="traces" transform="translate(0,65.5)" style="opacity: 1;"><text class="legendtext" text-anchor="start" x="40" y="3.9" style="font-family: 'Open Sans', verdana, arial, sans-serif; font-size: 10px; fill: rgb(0, 0, 0); fill-opacity: 1; white-space: pre;">4</text><g class="layers" style="opacity: 1;"><g class="legendfill"/><g class="legendlines"/><g class="legendsymbols"><g class="legendpoints"><path class="scatterpts" transform="translate(20,0)" d="M3,0A3,3 0 1,1 0,-3A3,3 0 0,1 3,0Z" style="opacity: 0.7; stroke-width: 0px; fill: rgb(237, 217, 163); fill-opacity: 1;"/></g></g></g><rect class="legendtoggle" x="0" y="-9.5" width="46.375" height="19" style="fill: rgb(0, 0, 0); fill-opacity: 0;"/></g></g></g><rect class="scrollbar" rx="20" ry="3" width="0" height="0" x="0" y="0" style="fill: rgb(128, 139, 164); fill-opacity: 1;"/></g><g class="g-gtitle"/><g class="g-xtitle"><text class="xtitle" x="175" y="256.4" text-anchor="middle" style="font-family: 'Open Sans', verdana, arial, sans-serif; font-size: 12px; fill: rgb(0, 0, 0); opacity: 1; font-weight: normal; white-space: pre;">Total alllele frequency</text></g><g class="g-ytitle"><text class="ytitle" transform="rotate(-90,42.865625,140)" x="42.865625" y="140" text-anchor="middle" style="font-family: 'Open Sans', verdana, arial, sans-serif; font-size: 12px; fill: rgb(0, 0, 0); opacity: 1; font-weight: normal; white-space: pre;">Fixed mutations</text></g></g></svg>