<svg class="main-svg" xmlns="http://www.w3.org/2000/svg" xmlns:xlink="http://www.w3.org/1999/xlink" width="300" height="220" style="" viewBox="0 0 300 220"><rect x="0" y="0" width="300" height="220" style="fill: rgb(255, 255, 255); fill-opacity: 1;"/><defs id="defs-771941"><g class="clips"><clipPath id="clip771941xyplot" class="plotclip"><rect width="207" height="167"/></clipPath><clipPath class="axesclip" id="clip771941x"><rect x="26" y="0" width="207" height="220"/></clipPath><clipPath class="axesclip" id="clip771941y"><rect x="0" y="20" width="300" height="167"/></clipPath><clipPath class="axesclip" id="clip771941xy"><rect x="26" y="20" width="207" height="167"/></clipPath></g><g class="gradients"/><g class="patterns"/></defs><g class="bglayer"><rect class="bg" x="26" y="20" width="207" height="167" style="fill: rgb(229, 236, 246); fill-opacity: 1; stroke-width: 0;"/></g><g class="layer-below"><g class="imagelayer"/><g class="shapelayer"/></g><g class="cartesianlayer"><g class="subplot xy"><g class="layer-subplot"><g class="shapelayer"/><g class="imagelayer"/></g><g class="minor-gridlayer"><g class="x"/><g class="y"/></g><g class="gridlayer"><g class="x"><path class="xgrid crisp" transform="translate(53.42,0)" d="M0,20v167" style="stroke: rgb(255, 255, 255); stroke-opacity: 1; stroke-width: 1px;"/><path class="xgrid crisp" transform="translate(80.84,0)" d="M0,20v167" style="stroke: rgb(255, 255, 255); stroke-opacity: 1; stroke-width: 1px;"/><path class="xgrid crisp" transform="translate(108.26,0)" d="M0,20v167" style="stroke: rgb(255, 255, 255); stroke-opacity: 1; stroke-width: 1px;"/><path class="xgrid crisp" transform="translate(135.68,0)" d="M0,20v167" style="stroke: rgb(255, 255, 255); stroke-opacity: 1; stroke-width: 1px;"/><path class="xgrid crisp" transform="translate(163.11,0)" d="M0,20v167" style="stroke: rgb(255, 255, 255); stroke-opacity: 1; stroke-width: 1px;"/><path class="xgrid crisp" transform="translate(190.53,0)" d="M0,20v167" style="stroke: rgb(255, 255, 255); stroke-opacity: 1; stroke-width: 1px;"/><path class="xgrid crisp" transform="translate(217.95,0)" d="M0,20v167" style="stroke: rgb(255, 255, 255); stroke-opacity: 1; stroke-width: 1px;"/></g><g class="y"><path class="ygrid crisp" transform="translate(0,175.65)" d="M26,0h207" style="stroke: rgb(255, 255, 255); stroke-opacity: 1; stroke-width: 1px;"/><path class="ygrid crisp" transform="translate(0,117.93)" d="M26,0h207" style="stroke: rgb(255, 255, 255); stroke-opacity: 1; stroke-width: 1px;"/><path class="ygrid crisp" transform="translate(0,60.21)" d="M26,0h207" style="stroke: rgb(255, 255, 255); stroke-opacity: 1; stroke-width: 1px;"/></g></g><g class="zerolinelayer"/><path class="xlines-below"/><path class="ylines-below"/><g class="overlines-below"/><g class="xaxislayer-below"/><g class="yaxislayer-below"/><g class="overaxes-below"/><g class="plot" transform="translate(26,20)" clip-path="url(#clip771941xyplot)"><g class="scatterlayer mlayer"><g class="trace scatter traceacc302" style="stroke-miterlimit: 2; opacity: 1;"><g class="fills"/><g class="errorbars"/><g class="lines"/><g class="points"><path class="point plotly-customdata" transform="translate(78.21,69.07)" d="M2,0A2,2 0 1,1 0,-2A2,2 0 0,1 2,0Z" style="opacity: 0.7; stroke-width: 0px; fill: rgb(164, 49, 160); fill-opacity: 1;"/><path class="point plotly-customdata" transform="translate(87.85,97.93)" d="M2,0A2,2 0 1,1 0,-2A2,2 0 0,1 2,0Z" style="opacity: 0.7; stroke-width: 0px; fill: rgb(164, 49, 160); fill-opacity: 1;"/><path class="point plotly-customdata" transform="translate(108.59,126.79)" d="M2,0A2,2 0 1,1 0,-2A2,2 0 0,1 2,0Z" style="opacity: 0.7; stroke-width: 0px; fill: rgb(164, 49, 160); fill-opacity: 1;"/><path class="point plotly-customdata" transform="translate(77.71,11.35)" d="M2,0A2,2 0 1,1 0,-2A2,2 0 0,1 2,0Z" style="opacity: 0.7; stroke-width: 0px; fill: rgb(164, 49, 160); fill-opacity: 1;"/><path class="point plotly-customdata" transform="translate(32.8,97.93)" d="M2,0A2,2 0 1,1 0,-2A2,2 0 0,1 2,0Z" style="opacity: 0.7; stroke-width: 0px; fill: rgb(164, 49, 160); fill-opacity: 1;"/><path class="point plotly-customdata" transform="translate(81.17,40.21)" d="M2,0A2,2 0 1,1 0,-2A2,2 0 0,1 2,0Z" style="opacity: 0.7; stroke-width: 0px; fill: rgb(164, 49, 160); fill-opacity: 1;"/><path class="point plotly-customdata" transform="translate(67.59,69.07)" d="M2,0A2,2 0 1,1 0,-2A2,2 0 0,1 2,0Z" style="opacity: 0.7; stroke-width: 0px; fill: rgb(164, 49, 160); fill-opacity: 1;"/><path class="point plotly-customdata" transform="translate(31.23,97.93)" d="M2,0A2,2 0 1,1 0,-2A2,2 0 0,1 2,0Z" style="opacity: 0.7; stroke-width: 0px; fill: rgb(164, 49, 160); fill-opacity: 1;"/><path class="point plotly-customdata" transform="translate(69.46,11.35)" d="M2,0A2,2 0 1,1 0,-2A2,2 0 0,1 2,0Z" style="opacity: 0.7; stroke-width: 0px; fill: rgb(164, 49, 160); fill-opacity: 1;"/><path class="point plotly-customdata" transform="translate(53.47,69.07)" d="M2,0A2,2 0 1,1 0,-2A2,2 0 0,1 2,0Z" style="opacity: 0.7; stroke-width: 0px; fill: rgb(164, 49, 160); fill-opacity: 1;"/><path class="point plotly-customdata" transform="translate(90.17,11.35)" d="M2,0A2,2 0 1,1 0,-2A2,2 0 0,1 2,0Z" style="opacity: 0.7; stroke-width: 0px; fill: rgb(164, 49, 160); fill-opacity: 1;"/><path class="point plotly-customdata" transform="translate(68.91,97.93)" d="M2,0A2,2 0 1,1 0,-2A2,2 0 0,1 2,0Z" style="opacity: 0.7; stroke-width: 0px; fill: rgb(164, 49, 160); fill-opacity: 1;"/><path class="point plotly-customdata" transform="translate(60.85,97.93)" d="M2,0A2,2 0 1,1 0,-2A2,2 0 0,1 2,0Z" style="opacity: 0.7; stroke-width: 0px; fill: rgb(164, 49, 160); fill-opacity: 1;"/><path class="point plotly-customdata" transform="translate(95.26,97.93)" d="M2,0A2,2 0 1,1 0,-2A2,2 0 0,1 2,0Z" style="opacity: 0.7; stroke-width: 0px; fill: rgb(164, 49, 160); fill-opacity: 1;"/><path class="point plotly-customdata" transform="translate(89,11.35)" d="M2,0A2,2 0 1,1 0,-2A2,2 0 0,1 2,0Z" style="opacity: 0.7; stroke-width: 0px; fill: rgb(164, 49, 160); fill-opacity: 1;"/><path class="point plotly-customdata" transform="translate(76.57,11.35)" d="M2,0A2,2 0 1,1 0,-2A2,2 0 0,1 2,0Z" style="opacity: 0.7; stroke-width: 0px; fill: rgb(164, 49, 160); fill-opacity: 1;"/><path class="point plotly-customdata" transform="translate(104.52,11.35)" d="M2,0A2,2 0 1,1 0,-2A2,2 0 0,1 2,0Z" style="opacity: 0.7; stroke-width: 0px; fill: rgb(164, 49, 160); fill-opacity: 1;"/><path class="point plotly-customdata" transform="translate(97.54,11.35)" d="M2,0A2,2 0 1,1 0,-2A2,2 0 0,1 2,0Z" style="opacity: 0.7; stroke-width: 0px; fill: rgb(164, 49, 160); fill-opacity: 1;"/><path class="point plotly-customdata" transform="translate(89.56,126.79)" d="M2,0A2,2 0 1,1 0,-2A2,2 0 0,1 2,0Z" style="opacity: 0.7; stroke-width: 0px; fill: rgb(164, 49, 160); fill-opacity: 1;"/><path class="point plotly-customdata" transform="translate(86.63,40.21)" d="M2,0A2,2 0 1,1 0,-2A2,2 0 0,1 2,0Z" style="opacity: 0.7; stroke-width: 0px; fill: rgb(164, 49, 160); fill-opacity: 1;"/></g><g class="text"/></g><g class="trace scatter traceaeedf8" style="stroke-miterlimit: 2; opacity: 1;"><g class="fills"/><g class="errorbars"/><g class="lines"/><g class="points"><path class="point plotly-customdata" transform="translate(60.62,126.79)" d="M2,0A2,2 0 1,1 0,-2A2,2 0 0,1 2,0Z" style="opacity: 0.7; stroke-width: 0px; fill: rgb(234, 79, 136); fill-opacity: 1;"/><path class="point plotly-customdata" transform="translate(54.66,126.79)" d="M2,0A2,2 0 1,1 0,-2A2,2 0 0,1 2,0Z" style="opacity: 0.7; stroke-width: 0px; fill: rgb(234, 79, 136); fill-opacity: 1;"/><path class="point plotly-customdata" transform="translate(62.28,126.79)" d="M2,0A2,2 0 1,1 0,-2A2,2 0 0,1 2,0Z" style="opacity: 0.7; stroke-width: 0px; fill: rgb(234, 79, 136); fill-opacity: 1;"/><path class="point plotly-customdata" transform="translate(52.87,126.79)" d="M2,0A2,2 0 1,1 0,-2A2,2 0 0,1 2,0Z" style="opacity: 0.7; stroke-width: 0px; fill: rgb(234, 79, 136); fill-opacity: 1;"/><path class="point plotly-customdata" transform="translate(48.02,126.79)" d="M2,0A2,2 0 1,1 0,-2A2,2 0 0,1 2,0Z" style="opacity: 0.7; stroke-width: 0px; fill: rgb(234, 79, 136); fill-opacity: 1;"/><path class="point plotly-customdata" transform="translate(48.13,126.79)" d="M2,0A2,2 0 1,1 0,-2A2,2 0 0,1 2,0Z" style="opacity: 0.7; stroke-width: 0px; fill: rgb(234, 79, 136); fill-opacity: 1;"/><path class="point plotly-customdata" transform="translate(60.76,155.65)" d="M2,0A2,2 0 1,1 0,-2A2,2 0 0,1 2,0Z" style="opacity: 0.7; stroke-width: 0px; fill: rgb(234, 79, 136); fill-opacity: 1;"/><path class="point plotly-customdata" transform="translate(96.45,126.79)" d="M2,0A2,2 0 1,1 0,-2A2,2 0 0,1 2,0Z" style="opacity: 0.7; stroke-width: 0px; fill: rgb(234, 79, 136); fill-opacity: 1;"/><path class="point plotly-customdata" transform="translate(76.92,97.93)" d="M2,0A2,2 0 1,1 0,-2A2,2 0 0,1 2,0Z" style="opacity: 0.7; stroke-width: 0px; fill: rgb(234, 79, 136); fill-opacity: 1;"/><path class="point plotly-customdata" transform="translate(55.22,126.79)" d="M2,0A2,2 0 1,1 0,-2A2,2 0 0,1 2,0Z" style="opacity: 0.7; stroke-width: 0px; fill: rgb(234, 79, 136); fill-opacity: 1;"/><path class="point plotly-customdata" transform="translate(67.69,97.93)" d="M2,0A2,2 0 1,1 0,-2A2,2 0 0,1 2,0Z" style="opacity: 0.7; stroke-width: 0px; fill: rgb(234, 79, 136); fill-opacity: 1;"/><path class="point plotly-customdata" transform="translate(58.87,126.79)" d="M2,0A2,2 0 1,1 0,-2A2,2 0 0,1 2,0Z" style="opacity: 0.7; stroke-width: 0px; fill: rgb(234, 79, 136); fill-opacity: 1;"/><path class="point plotly-customdata" transform="translate(48.58,126.79)" d="M2,0A2,2 0 1,1 0,-2A2,2 0 0,1 2,0Z" style="opacity: 0.7; stroke-width: 0px; fill: rgb(234, 79, 136); fill-opacity: 1;"/><path class="point plotly-customdata" transform="translate(56.54,126.79)" d="M2,0A2,2 0 1,1 0,-2A2,2 0 0,1 2,0Z" style="opacity: 0.7; stroke-width: 0px; fill: rgb(234, 79, 136); fill-opacity: 1;"/><path class="point plotly-customdata" transform="translate(121.74,40.21)" d="M2,0A2,2 0 1,1 0,-2A2,2 0 0,1 2,0Z" style="opacity: 0.7; stroke-width: 0px; fill: rgb(234, 79, 136); fill-opacity: 1;"/><path class="point plotly-customdata" transform="translate(45.66,126.79)" d="M2,0A2,2 0 1,1 0,-2A2,2 0 0,1 2,0Z" style="opacity: 0.7; stroke-width: 0px; fill: rgb(234, 79, 136); fill-opacity: 1;"/><path class="point plotly-customdata" transform="translate(74.61,97.93)" d="M2,0A2,2 0 1,1 0,-2A2,2 0 0,1 2,0Z" style="opacity: 0.7; stroke-width: 0px; fill: rgb(234, 79, 136); fill-opacity: 1;"/><path class="point plotly-customdata" transform="translate(80.19,97.93)" d="M2,0A2,2 0 1,1 0,-2A2,2 0 0,1 2,0Z" style="opacity: 0.7; stroke-width: 0px; fill: rgb(234, 79, 136); fill-opacity: 1;"/><path class="point plotly-customdata" transform="translate(160.17,126.79)" d="M2,0A2,2 0 1,1 0,-2A2,2 0 0,1 2,0Z" style="opacity: 0.7; stroke-width: 0px; fill: rgb(234, 79, 136); fill-opacity: 1;"/><path class="point plotly-customdata" transform="translate(106.76,97.93)" d="M2,0A2,2 0 1,1 0,-2A2,2 0 0,1 2,0Z" style="opacity: 0.7; stroke-width: 0px; fill: rgb(234, 79, 136); fill-opacity: 1;"/></g><g class="text"/></g><g class="trace scatter tracec05be3" style="stroke-miterlimit: 2; opacity: 1;"><g class="fills"/><g class="errorbars"/><g class="lines"/><g class="points"><path class="point plotly-customdata" transform="translate(46.8,126.79)" d="M2,0A2,2 0 1,1 0,-2A2,2 0 0,1 2,0Z" style="opacity: 0.7; stroke-width: 0px; fill: rgb(248, 145, 120); fill-opacity: 1;"/><path class="point plotly-customdata" transform="translate(48.52,126.79)" d="M2,0A2,2 0 1,1 0,-2A2,2 0 0,1 2,0Z" style="opacity: 0.7; stroke-width: 0px; fill: rgb(248, 145, 120); fill-opacity: 1;"/><path class="point plotly-customdata" transform="translate(43.23,126.79)" d="M2,0A2,2 0 1,1 0,-2A2,2 0 0,1 2,0Z" style="opacity: 0.7; stroke-width: 0px; fill: rgb(248, 145, 120); fill-opacity: 1;"/><path class="point plotly-customdata" transform="translate(43.7,97.93)" d="M2,0A2,2 0 1,1 0,-2A2,2 0 0,1 2,0Z" style="opacity: 0.7; stroke-width: 0px; fill: rgb(248, 145, 120); fill-opacity: 1;"/><path class="point plotly-customdata" transform="translate(167.16,11.35)" d="M2,0A2,2 0 1,1 0,-2A2,2 0 0,1 2,0Z" style="opacity: 0.7; stroke-width: 0px; fill: rgb(248, 145, 120); fill-opacity: 1;"/><path class="point plotly-customdata" transform="translate(60.8,126.79)" d="M2,0A2,2 0 1,1 0,-2A2,2 0 0,1 2,0Z" style="opacity: 0.7; stroke-width: 0px; fill: rgb(248, 145, 120); fill-opacity: 1;"/><path class="point plotly-customdata" transform="translate(82.26,126.79)" d="M2,0A2,2 0 1,1 0,-2A2,2 0 0,1 2,0Z" style="opacity: 0.7; stroke-width: 0px; fill: rgb(248, 145, 120); fill-opacity: 1;"/><path class="point plotly-customdata" transform="translate(93.06,97.93)" d="M2,0A2,2 0 1,1 0,-2A2,2 0 0,1 2,0Z" style="opacity: 0.7; stroke-width: 0px; fill: rgb(248, 145, 120); fill-opacity: 1;"/><path class="point plotly-customdata" transform="translate(89.78,97.93)" d="M2,0A2,2 0 1,1 0,-2A2,2 0 0,1 2,0Z" style="opacity: 0.7; stroke-width: 0px; fill: rgb(248, 145, 120); fill-opacity: 1;"/><path class="point plotly-customdata" transform="translate(75.39,126.79)" d="M2,0A2,2 0 1,1 0,-2A2,2 0 0,1 2,0Z" style="opacity: 0.7; stroke-width: 0px; fill: rgb(248, 145, 120); fill-opacity: 1;"/><path class="point plotly-customdata" transform="translate(53.66,126.79)" d="M2,0A2,2 0 1,1 0,-2A2,2 0 0,1 2,0Z" style="opacity: 0.7; stroke-width: 0px; fill: rgb(248, 145, 120); fill-opacity: 1;"/><path class="point plotly-customdata" transform="translate(114.14,126.79)" d="M2,0A2,2 0 1,1 0,-2A2,2 0 0,1 2,0Z" style="opacity: 0.7; stroke-width: 0px; fill: rgb(248, 145, 120); fill-opacity: 1;"/><path class="point plotly-customdata" transform="translate(108.53,97.93)" d="M2,0A2,2 0 1,1 0,-2A2,2 0 0,1 2,0Z" style="opacity: 0.7; stroke-width: 0px; fill: rgb(248, 145, 120); fill-opacity: 1;"/><path class="point plotly-customdata" transform="translate(139.5,126.79)" d="M2,0A2,2 0 1,1 0,-2A2,2 0 0,1 2,0Z" style="opacity: 0.7; stroke-width: 0px; fill: rgb(248, 145, 120); fill-opacity: 1;"/><path class="point plotly-customdata" transform="translate(106.85,126.79)" d="M2,0A2,2 0 1,1 0,-2A2,2 0 0,1 2,0Z" style="opacity: 0.7; stroke-width: 0px; fill: rgb(248, 145, 120); fill-opacity: 1;"/><path class="point plotly-customdata" transform="translate(193.65,11.35)" d="M2,0A2,2 0 1,1 0,-2A2,2 0 0,1 2,0Z" style="opacity: 0.7; stroke-width: 0px; fill: rgb(248, 145, 120); fill-opacity: 1;"/><path class="point plotly-customdata" transform="translate(140.84,126.79)" d="M2,0A2,2 0 1,1 0,-2A2,2 0 0,1 2,0Z" style="opacity: 0.7; stroke-width: 0px; fill: rgb(248, 145, 120); fill-opacity: 1;"/><path class="point plotly-customdata" transform="translate(46.93,126.79)" d="M2,0A2,2 0 1,1 0,-2A2,2 0 0,1 2,0Z" style="opacity: 0.7; stroke-width: 0px; fill: rgb(248, 145, 120); fill-opacity: 1;"/><path class="point plotly-customdata" transform="translate(88.88,126.79)" d="M2,0A2,2 0 1,1 0,-2A2,2 0 0,1 2,0Z" style="opacity: 0.7; stroke-width: 0px; fill: rgb(248, 145, 120); fill-opacity: 1;"/><path class="point plotly-customdata" transform="translate(48.3,126.79)" d="M2,0A2,2 0 1,1 0,-2A2,2 0 0,1 2,0Z" style="opacity: 0.7; stroke-width: 0px; fill: rgb(248, 145, 120); fill-opacity: 1;"/></g><g class="text"/></g><g class="trace scatter trace0784b2" style="stroke-miterlimit: 2; opacity: 1;"><g class="fills"/><g class="errorbars"/><g class="lines"><path class="js-line" d="M0,155.65L68.55,11.35" style="vector-effect: non-scaling-stroke; fill: none; stroke: rgb(128, 128, 128); stroke-opacity: 1; stroke-width: 0.5px; opacity: 1;"/></g><g class="points"/><g class="text"/></g></g></g><g class="overplot"/><path class="xlines-above crisp" d="M0,0" style="fill: none;"/><path class="ylines-above crisp" d="M0,0" style="fill: none;"/><g class="overlines-above"/><g class="xaxislayer-above"><g class="xtick"><text text-anchor="middle" x="0" y="198" transform="translate(26,0)" style="font-family: 'Open Sans', verdana, arial, sans-serif; font-size: 10px; fill: rgb(0, 0, 0); fill-opacity: 1; white-space: pre; opacity: 1;">2</text></g><g class="xtick"><text text-anchor="middle" x="0" y="198" style="font-family: 'Open Sans', verdana, arial, sans-serif; font-size: 10px; fill: rgb(0, 0, 0); fill-opacity: 1; white-space: pre; opacity: 1;" transform="translate(53.42,0)">4</text></g><g class="xtick"><text text-anchor="middle" x="0" y="198" style="font-family: 'Open Sans', verdana, arial, sans-serif; font-size: 10px; fill: rgb(0, 0, 0); fill-opacity: 1; white-space: pre; opacity: 1;" transform="translate(80.84,0)">6</text></g><g class="xtick"><text text-anchor="middle" x="0" y="198" style="font-family: 'Open Sans', verdana, arial, sans-serif; font-size: 10px; fill: rgb(0, 0, 0); fill-opacity: 1; white-space: pre; opacity: 1;" transform="translate(108.26,0)">8</text></g><g class="xtick"><text text-anchor="middle" x="0" y="198" style="font-family: 'Open Sans', verdana, arial, sans-serif; font-size: 10px; fill: rgb(0, 0, 0); fill-opacity: 1; white-space: pre; opacity: 1;" transform="translate(135.68,0)">10</text></g><g class="xtick"><text text-anchor="middle" x="0" y="198" style="font-family: 'Open Sans', verdana, arial, sans-serif; font-size: 10px; fill: rgb(0, 0, 0); fill-opacity: 1; white-space: pre; opacity: 1;" transform="translate(163.11,0)">12</text></g><g class="xtick"><text text-anchor="middle" x="0" y="198" style="font-family: 'Open Sans', verdana, arial, sans-serif; font-size: 10px; fill: rgb(0, 0, 0); fill-opacity: 1; white-space: pre; opacity: 1;" transform="translate(190.53,0)">14</text></g><g class="xtick"><text text-anchor="middle" x="0" y="198" style="font-family: 'Open Sans', verdana, arial, sans-serif; font-size: 10px; fill: rgb(0, 0, 0); fill-opacity: 1; white-space: pre; opacity: 1;" transform="translate(217.95,0)">16</text></g></g><g class="yaxislayer-above"><g class="ytick"><text text-anchor="end" x="25" y="3.5" transform="translate(0,175.65)" style="font-family: 'Open Sans', verdana, arial, sans-serif; font-size: 10px; fill: rgb(0, 0, 0); fill-opacity: 1; white-space: pre; opacity: 1;">2</text></g><g class="ytick"><text text-anchor="end" x="25" y="3.5" style="font-family: 'Open Sans', verdana, arial, sans-serif; font-size: 10px; fill: rgb(0, 0, 0); fill-opacity: 1; white-space: pre; opacity: 1;" transform="translate(0,117.93)">4</text></g><g class="ytick"><text text-anchor="end" x="25" y="3.5" style="font-family: 'Open Sans', verdana, arial, sans-serif; font-size: 10px; fill: rgb(0, 0, 0); fill-opacity: 1; white-space: pre; opacity: 1;" transform="translate(0,60.21)">6</text></g></g><g class="overaxes-above"/></g></g><g class="polarlayer"/><g class="smithlayer"/><g class="ternarylayer"/><g class="geolayer"/><g class="funnelarealayer"/><g class="pielayer"/><g class="iciclelayer"/><g class="treemaplayer"/><g class="sunburstlayer"/><g class="glimages"/><defs id="topdefs-771941"><g class="clips"/><clipPath id="legend771941"><rect width="51" height="80" x="0" y="0"/></clipPath></defs><g class="layer-above"><g class="imagelayer"/><g class="shapelayer"/></g><g class="infolayer"><g class="legend" pointer-events="all" transform="translate(237.14000000000001,20)"><rect class="bg" shape-rendering="crispEdges" width="51" height="80" x="0" y="0" style="stroke: rgb(68, 68, 68); stroke-opacity: 1; fill: rgb(255, 255, 255); fill-opacity: 1; stroke-width: 0px;"/><g class="scrollbox" transform="" clip-path="url(#legend771941)"><text class="legendtitletext" text-anchor="start" x="2" y="13" style="font-family: 'Open Sans', verdana, arial, sans-serif; font-size: 10px; fill: rgb(0, 0, 0); fill-opacity: 1; white-space: pre;">Condition</text><g class="groups" transform=""><g class="traces" transform="translate(0,27.5)" style="opacity: 1;"><text class="legendtext" text-anchor="start" x="40" y="3.9" style="font-family: 'Open Sans', verdana, arial, sans-serif; font-size: 10px; fill: rgb(0, 0, 0); fill-opacity: 1; white-space: pre;">2</text><g class="layers" style="opacity: 1;"><g class="legendfill"/><g class="legendlines"/><g class="legendsymbols"><g class="legendpoints"><path class="scatterpts" transform="translate(20,0)" d="M2,0A2,2 0 1,1 0,-2A2,2 0 0,1 2,0Z" style="opacity: 0.7; stroke-width: 0px; fill: rgb(164, 49, 160); fill-opacity: 1;"/></g></g></g><rect class="legendtoggle" x="0" y="-9.5" width="46" height="19" style="fill: rgb(0, 0, 0); fill-opacity: 0;"/></g></g><g class="groups" transform=""><g class="traces" transform="translate(0,46.5)" style="opacity: 1;"><text class="legendtext" text-anchor="start" x="40" y="3.9" style="font-family: 'Open Sans', verdana, arial, sans-serif; font-size: 10px; fill: rgb(0, 0, 0); fill-opacity: 1; white-space: pre;">3</text><g class="layers" style="opacity: 1;"><g class="legendfill"/><g class="legendlines"/><g class="legendsymbols"><g class="legendpoints"><path class="scatterpts" transform="translate(20,0)" d="M2,0A2,2 0 1,1 0,-2A2,2 0 0,1 2,0Z" style="opacity: 0.7; stroke-width: 0px; fill: rgb(234, 79, 136); fill-opacity: 1;"/></g></g></g><rect class="legendtoggle" x="0" y="-9.5" width="46" height="19" style="fill: rgb(0, 0, 0); fill-opacity: 0;"/></g></g><g class="groups" transform=""><g class="traces" transform="translate(0,65.5)" style="opacity: 1;"><text class="legendtext" text-anchor="start" x="40" y="3.9" style="font-family: 'Open Sans', verdana, arial, sans-serif; font-size: 10px; fill: rgb(0, 0, 0); fill-opacity: 1; white-space: pre;">4</text><g class="layers" style="opacity: 1;"><g class="legendfill"/><g class="legendlines"/><g class="legendsymbols"><g class="legendpoints"><path class="scatterpts" transform="translate(20,0)" d="M2,0A2,2 0 1,1 0,-2A2,2 0 0,1 2,0Z" style="opacity: 0.7; stroke-width: 0px; fill: rgb(248, 145, 120); fill-opacity: 1;"/></g></g></g><rect class="legendtoggle" x="0" y="-9.5" width="46" height="19" style="fill: rgb(0, 0, 0); fill-opacity: 0;"/></g></g></g><rect class="scrollbar" rx="20" ry="3" width="0" height="0" x="0" y="0" style="fill: rgb(128, 139, 164); fill-opacity: 1;"/></g><g class="g-gtitle"/><g class="g-xtitle" transform="translate(0,4)"><text class="xtitle" x="129.5" y="208" text-anchor="middle" style="font-family: 'Open Sans', verdana, arial, sans-serif; font-size: 10px; fill: rgb(0, 0, 0); opacity: 1; font-weight: normal; white-space: pre;">Total alllele frequency</text></g><g class="g-ytitle"><text class="ytitle" transform="rotate(-90,12.28125,103.5)" x="12.28125" y="103.5" text-anchor="middle" style="font-family: 'Open Sans', verdana, arial, sans-serif; font-size: 10px; fill: rgb(0, 0, 0); opacity: 1; font-weight: normal; white-space: pre;">Fixed mutations</text></g></g></svg>