<svg class="main-svg" xmlns="http://www.w3.org/2000/svg" xmlns:xlink="http://www.w3.org/1999/xlink" width="350" height="300" style="" viewBox="0 0 350 300"><rect x="0" y="0" width="350" height="300" style="fill: rgb(255, 255, 255); fill-opacity: 1;"/><defs id="defs-17ea2f"><g class="clips"><clipPath id="clip17ea2fxyplot" class="plotclip"><rect width="190" height="160"/></clipPath><clipPath class="axesclip" id="clip17ea2fx"><rect x="80" y="0" width="190" height="300"/></clipPath><clipPath class="axesclip" id="clip17ea2fy"><rect x="0" y="60" width="350" height="160"/></clipPath><clipPath class="axesclip" id="clip17ea2fxy"><rect x="80" y="60" width="190" height="160"/></clipPath></g><g class="gradients"/><g class="patterns"/></defs><g class="bglayer"><rect class="bg" x="80" y="60" width="190" height="160" style="fill: rgb(229, 236, 246); fill-opacity: 1; stroke-width: 0;"/></g><g class="layer-below"><g class="imagelayer"/><g class="shapelayer"/></g><g class="cartesianlayer"><g class="subplot xy"><g class="layer-subplot"><g class="shapelayer"/><g class="imagelayer"/></g><g class="gridlayer"><g class="x"><path class="xgrid crisp" transform="translate(92.5,0)" d="M0,60v160" style="stroke: rgb(255, 255, 255); stroke-opacity: 1; stroke-width: 1px;"/><path class="xgrid crisp" transform="translate(147.5,0)" d="M0,60v160" style="stroke: rgb(255, 255, 255); stroke-opacity: 1; stroke-width: 1px;"/><path class="xgrid crisp" transform="translate(202.5,0)" d="M0,60v160" style="stroke: rgb(255, 255, 255); stroke-opacity: 1; stroke-width: 1px;"/><path class="xgrid crisp" transform="translate(257.5,0)" d="M0,60v160" style="stroke: rgb(255, 255, 255); stroke-opacity: 1; stroke-width: 1px;"/></g><g class="y"><path class="ygrid crisp" transform="translate(0,195.72)" d="M80,0h190" style="stroke: rgb(255, 255, 255); stroke-opacity: 1; stroke-width: 1px;"/><path class="ygrid crisp" transform="translate(0,120.39)" d="M80,0h190" style="stroke: rgb(255, 255, 255); stroke-opacity: 1; stroke-width: 1px;"/></g></g><g class="zerolinelayer"/><path class="xlines-below"/><path class="ylines-below"/><g class="overlines-below"/><g class="xaxislayer-below"/><g class="yaxislayer-below"/><g class="overaxes-below"/><g class="plot" transform="translate(80,60)" clip-path="url(#clip17ea2fxyplot)"><g class="scatterlayer mlayer"><g class="trace scatter trace3dfa2a" style="stroke-miterlimit: 2; opacity: 1;"><g class="fills"/><g class="errorbars"/><g class="lines"><path class="js-line" d="M12.5,140.7L67.5,107.54L122.5,46.18L177.5,11" style="vector-effect: non-scaling-stroke; fill: none; stroke: rgb(237, 217, 163); stroke-opacity: 1; stroke-width: 1px; opacity: 1;"/></g><g class="points"><path class="point" transform="translate(12.5,140.7)" d="M1.5,0A1.5,1.5 0 1,1 0,-1.5A1.5,1.5 0 0,1 1.5,0Z" style="opacity: 1; stroke-width: 0px; fill: rgb(237, 217, 163); fill-opacity: 1;"/><path class="point" transform="translate(67.5,107.54)" d="M1.5,0A1.5,1.5 0 1,1 0,-1.5A1.5,1.5 0 0,1 1.5,0Z" style="opacity: 1; stroke-width: 0px; fill: rgb(237, 217, 163); fill-opacity: 1;"/><path class="point" transform="translate(122.5,46.18)" d="M1.5,0A1.5,1.5 0 1,1 0,-1.5A1.5,1.5 0 0,1 1.5,0Z" style="opacity: 1; stroke-width: 0px; fill: rgb(237, 217, 163); fill-opacity: 1;"/><path class="point" transform="translate(177.5,11)" d="M1.5,0A1.5,1.5 0 1,1 0,-1.5A1.5,1.5 0 0,1 1.5,0Z" style="opacity: 1; stroke-width: 0px; fill: rgb(237, 217, 163); fill-opacity: 1;"/></g><g class="text"/></g><g class="trace scatter tracee24796" style="stroke-miterlimit: 2; opacity: 1;"><g class="fills"/><g class="errorbars"/><g class="lines"><path class="js-line" d="M12.5,145.89L67.5,103.26L122.5,114.54L177.5,55.01" style="vector-effect: non-scaling-stroke; fill: none; stroke: rgb(237, 217, 163); stroke-opacity: 1; stroke-width: 1px; opacity: 1;"/></g><g class="points"><path class="point" transform="translate(12.5,145.89)" d="M1.5,0A1.5,1.5 0 1,1 0,-1.5A1.5,1.5 0 0,1 1.5,0Z" style="opacity: 1; stroke-width: 0px; fill: rgb(237, 217, 163); fill-opacity: 1;"/><path class="point" transform="translate(67.5,103.26)" d="M1.5,0A1.5,1.5 0 1,1 0,-1.5A1.5,1.5 0 0,1 1.5,0Z" style="opacity: 1; stroke-width: 0px; fill: rgb(237, 217, 163); fill-opacity: 1;"/><path class="point" transform="translate(122.5,114.54)" d="M1.5,0A1.5,1.5 0 1,1 0,-1.5A1.5,1.5 0 0,1 1.5,0Z" style="opacity: 1; stroke-width: 0px; fill: rgb(237, 217, 163); fill-opacity: 1;"/><path class="point" transform="translate(177.5,55.01)" d="M1.5,0A1.5,1.5 0 1,1 0,-1.5A1.5,1.5 0 0,1 1.5,0Z" style="opacity: 1; stroke-width: 0px; fill: rgb(237, 217, 163); fill-opacity: 1;"/></g><g class="text"/></g><g class="trace scatter trace834307" style="stroke-miterlimit: 2; opacity: 1;"><g class="fills"/><g class="errorbars"/><g class="lines"><path class="js-line" d="M12.5,141.69L67.5,132.18L122.5,94.34L177.5,70.25" style="vector-effect: non-scaling-stroke; fill: none; stroke: rgb(237, 217, 163); stroke-opacity: 1; stroke-width: 1px; opacity: 1;"/></g><g class="points"><path class="point" transform="translate(12.5,141.69)" d="M1.5,0A1.5,1.5 0 1,1 0,-1.5A1.5,1.5 0 0,1 1.5,0Z" style="opacity: 1; stroke-width: 0px; fill: rgb(237, 217, 163); fill-opacity: 1;"/><path class="point" transform="translate(67.5,132.18)" d="M1.5,0A1.5,1.5 0 1,1 0,-1.5A1.5,1.5 0 0,1 1.5,0Z" style="opacity: 1; stroke-width: 0px; fill: rgb(237, 217, 163); fill-opacity: 1;"/><path class="point" transform="translate(122.5,94.34)" d="M1.5,0A1.5,1.5 0 1,1 0,-1.5A1.5,1.5 0 0,1 1.5,0Z" style="opacity: 1; stroke-width: 0px; fill: rgb(237, 217, 163); fill-opacity: 1;"/><path class="point" transform="translate(177.5,70.25)" d="M1.5,0A1.5,1.5 0 1,1 0,-1.5A1.5,1.5 0 0,1 1.5,0Z" style="opacity: 1; stroke-width: 0px; fill: rgb(237, 217, 163); fill-opacity: 1;"/></g><g class="text"/></g><g class="trace scatter trace8e1814" style="stroke-miterlimit: 2; opacity: 1;"><g class="fills"/><g class="errorbars"/><g class="lines"><path class="js-line" d="M12.5,144.59L67.5,126.25L122.5,81.35L177.5,46.25" style="vector-effect: non-scaling-stroke; fill: none; stroke: rgb(237, 217, 163); stroke-opacity: 1; stroke-width: 1px; opacity: 1;"/></g><g class="points"><path class="point" transform="translate(12.5,144.59)" d="M1.5,0A1.5,1.5 0 1,1 0,-1.5A1.5,1.5 0 0,1 1.5,0Z" style="opacity: 1; stroke-width: 0px; fill: rgb(237, 217, 163); fill-opacity: 1;"/><path class="point" transform="translate(67.5,126.25)" d="M1.5,0A1.5,1.5 0 1,1 0,-1.5A1.5,1.5 0 0,1 1.5,0Z" style="opacity: 1; stroke-width: 0px; fill: rgb(237, 217, 163); fill-opacity: 1;"/><path class="point" transform="translate(122.5,81.35)" d="M1.5,0A1.5,1.5 0 1,1 0,-1.5A1.5,1.5 0 0,1 1.5,0Z" style="opacity: 1; stroke-width: 0px; fill: rgb(237, 217, 163); fill-opacity: 1;"/><path class="point" transform="translate(177.5,46.25)" d="M1.5,0A1.5,1.5 0 1,1 0,-1.5A1.5,1.5 0 0,1 1.5,0Z" style="opacity: 1; stroke-width: 0px; fill: rgb(237, 217, 163); fill-opacity: 1;"/></g><g class="text"/></g><g class="trace scatter traceb67143" style="stroke-miterlimit: 2; opacity: 1;"><g class="fills"/><g class="errorbars"/><g class="lines"><path class="js-line" d="M12.5,141.84L67.5,139.85L122.5,93.46L177.5,61.66" style="vector-effect: non-scaling-stroke; fill: none; stroke: rgb(237, 217, 163); stroke-opacity: 1; stroke-width: 1px; opacity: 1;"/></g><g class="points"><path class="point" transform="translate(12.5,141.84)" d="M1.5,0A1.5,1.5 0 1,1 0,-1.5A1.5,1.5 0 0,1 1.5,0Z" style="opacity: 1; stroke-width: 0px; fill: rgb(237, 217, 163); fill-opacity: 1;"/><path class="point" transform="translate(67.5,139.85)" d="M1.5,0A1.5,1.5 0 1,1 0,-1.5A1.5,1.5 0 0,1 1.5,0Z" style="opacity: 1; stroke-width: 0px; fill: rgb(237, 217, 163); fill-opacity: 1;"/><path class="point" transform="translate(122.5,93.46)" d="M1.5,0A1.5,1.5 0 1,1 0,-1.5A1.5,1.5 0 0,1 1.5,0Z" style="opacity: 1; stroke-width: 0px; fill: rgb(237, 217, 163); fill-opacity: 1;"/><path class="point" transform="translate(177.5,61.66)" d="M1.5,0A1.5,1.5 0 1,1 0,-1.5A1.5,1.5 0 0,1 1.5,0Z" style="opacity: 1; stroke-width: 0px; fill: rgb(237, 217, 163); fill-opacity: 1;"/></g><g class="text"/></g><g class="trace scatter tracefe1512" style="stroke-miterlimit: 2; opacity: 1;"><g class="fills"/><g class="errorbars"/><g class="lines"><path class="js-line" d="M12.5,140.76L67.5,130.68L122.5,108.6L177.5,104.84" style="vector-effect: non-scaling-stroke; fill: none; stroke: rgb(234, 79, 136); stroke-opacity: 1; stroke-width: 1px; opacity: 1;"/></g><g class="points"><path class="point" transform="translate(12.5,140.76)" d="M1.5,0A1.5,1.5 0 1,1 0,-1.5A1.5,1.5 0 0,1 1.5,0Z" style="opacity: 1; stroke-width: 0px; fill: rgb(234, 79, 136); fill-opacity: 1;"/><path class="point" transform="translate(67.5,130.68)" d="M1.5,0A1.5,1.5 0 1,1 0,-1.5A1.5,1.5 0 0,1 1.5,0Z" style="opacity: 1; stroke-width: 0px; fill: rgb(234, 79, 136); fill-opacity: 1;"/><path class="point" transform="translate(122.5,108.6)" d="M1.5,0A1.5,1.5 0 1,1 0,-1.5A1.5,1.5 0 0,1 1.5,0Z" style="opacity: 1; stroke-width: 0px; fill: rgb(234, 79, 136); fill-opacity: 1;"/><path class="point" transform="translate(177.5,104.84)" d="M1.5,0A1.5,1.5 0 1,1 0,-1.5A1.5,1.5 0 0,1 1.5,0Z" style="opacity: 1; stroke-width: 0px; fill: rgb(234, 79, 136); fill-opacity: 1;"/></g><g class="text"/></g><g class="trace scatter traceaa93b3" style="stroke-miterlimit: 2; opacity: 1;"><g class="fills"/><g class="errorbars"/><g class="lines"><path class="js-line" d="M12.5,139.94L67.5,136.97L122.5,131.1L177.5,116.37" style="vector-effect: non-scaling-stroke; fill: none; stroke: rgb(234, 79, 136); stroke-opacity: 1; stroke-width: 1px; opacity: 1;"/></g><g class="points"><path class="point" transform="translate(12.5,139.94)" d="M1.5,0A1.5,1.5 0 1,1 0,-1.5A1.5,1.5 0 0,1 1.5,0Z" style="opacity: 1; stroke-width: 0px; fill: rgb(234, 79, 136); fill-opacity: 1;"/><path class="point" transform="translate(67.5,136.97)" d="M1.5,0A1.5,1.5 0 1,1 0,-1.5A1.5,1.5 0 0,1 1.5,0Z" style="opacity: 1; stroke-width: 0px; fill: rgb(234, 79, 136); fill-opacity: 1;"/><path class="point" transform="translate(122.5,131.1)" d="M1.5,0A1.5,1.5 0 1,1 0,-1.5A1.5,1.5 0 0,1 1.5,0Z" style="opacity: 1; stroke-width: 0px; fill: rgb(234, 79, 136); fill-opacity: 1;"/><path class="point" transform="translate(177.5,116.37)" d="M1.5,0A1.5,1.5 0 1,1 0,-1.5A1.5,1.5 0 0,1 1.5,0Z" style="opacity: 1; stroke-width: 0px; fill: rgb(234, 79, 136); fill-opacity: 1;"/></g><g class="text"/></g><g class="trace scatter traceec7b23" style="stroke-miterlimit: 2; opacity: 1;"><g class="fills"/><g class="errorbars"/><g class="lines"><path class="js-line" d="M12.5,138.72L67.5,143L122.5,126.67L177.5,87.46" style="vector-effect: non-scaling-stroke; fill: none; stroke: rgb(234, 79, 136); stroke-opacity: 1; stroke-width: 1px; opacity: 1;"/></g><g class="points"><path class="point" transform="translate(12.5,138.72)" d="M1.5,0A1.5,1.5 0 1,1 0,-1.5A1.5,1.5 0 0,1 1.5,0Z" style="opacity: 1; stroke-width: 0px; fill: rgb(234, 79, 136); fill-opacity: 1;"/><path class="point" transform="translate(67.5,143)" d="M1.5,0A1.5,1.5 0 1,1 0,-1.5A1.5,1.5 0 0,1 1.5,0Z" style="opacity: 1; stroke-width: 0px; fill: rgb(234, 79, 136); fill-opacity: 1;"/><path class="point" transform="translate(122.5,126.67)" d="M1.5,0A1.5,1.5 0 1,1 0,-1.5A1.5,1.5 0 0,1 1.5,0Z" style="opacity: 1; stroke-width: 0px; fill: rgb(234, 79, 136); fill-opacity: 1;"/><path class="point" transform="translate(177.5,87.46)" d="M1.5,0A1.5,1.5 0 1,1 0,-1.5A1.5,1.5 0 0,1 1.5,0Z" style="opacity: 1; stroke-width: 0px; fill: rgb(234, 79, 136); fill-opacity: 1;"/></g><g class="text"/></g><g class="trace scatter traceb254ca" style="stroke-miterlimit: 2; opacity: 1;"><g class="fills"/><g class="errorbars"/><g class="lines"><path class="js-line" d="M12.5,125.89L67.5,126.91L122.5,132.7L177.5,124.59" style="vector-effect: non-scaling-stroke; fill: none; stroke: rgb(234, 79, 136); stroke-opacity: 1; stroke-width: 1px; opacity: 1;"/></g><g class="points"><path class="point" transform="translate(12.5,125.89)" d="M1.5,0A1.5,1.5 0 1,1 0,-1.5A1.5,1.5 0 0,1 1.5,0Z" style="opacity: 1; stroke-width: 0px; fill: rgb(234, 79, 136); fill-opacity: 1;"/><path class="point" transform="translate(67.5,126.91)" d="M1.5,0A1.5,1.5 0 1,1 0,-1.5A1.5,1.5 0 0,1 1.5,0Z" style="opacity: 1; stroke-width: 0px; fill: rgb(234, 79, 136); fill-opacity: 1;"/><path class="point" transform="translate(122.5,132.7)" d="M1.5,0A1.5,1.5 0 1,1 0,-1.5A1.5,1.5 0 0,1 1.5,0Z" style="opacity: 1; stroke-width: 0px; fill: rgb(234, 79, 136); fill-opacity: 1;"/><path class="point" transform="translate(177.5,124.59)" d="M1.5,0A1.5,1.5 0 1,1 0,-1.5A1.5,1.5 0 0,1 1.5,0Z" style="opacity: 1; stroke-width: 0px; fill: rgb(234, 79, 136); fill-opacity: 1;"/></g><g class="text"/></g><g class="trace scatter trace0fe59a" style="stroke-miterlimit: 2; opacity: 1;"><g class="fills"/><g class="errorbars"/><g class="lines"><path class="js-line" d="M12.5,102.71L67.5,74.7L122.5,120.65L177.5,25.67" style="vector-effect: non-scaling-stroke; fill: none; stroke: rgb(234, 79, 136); stroke-opacity: 1; stroke-width: 1px; opacity: 1;"/></g><g class="points"><path class="point" transform="translate(12.5,102.71)" d="M1.5,0A1.5,1.5 0 1,1 0,-1.5A1.5,1.5 0 0,1 1.5,0Z" style="opacity: 1; stroke-width: 0px; fill: rgb(234, 79, 136); fill-opacity: 1;"/><path class="point" transform="translate(67.5,74.7)" d="M1.5,0A1.5,1.5 0 1,1 0,-1.5A1.5,1.5 0 0,1 1.5,0Z" style="opacity: 1; stroke-width: 0px; fill: rgb(234, 79, 136); fill-opacity: 1;"/><path class="point" transform="translate(122.5,120.65)" d="M1.5,0A1.5,1.5 0 1,1 0,-1.5A1.5,1.5 0 0,1 1.5,0Z" style="opacity: 1; stroke-width: 0px; fill: rgb(234, 79, 136); fill-opacity: 1;"/><path class="point" transform="translate(177.5,25.67)" d="M1.5,0A1.5,1.5 0 1,1 0,-1.5A1.5,1.5 0 0,1 1.5,0Z" style="opacity: 1; stroke-width: 0px; fill: rgb(234, 79, 136); fill-opacity: 1;"/></g><g class="text"/></g><g class="trace scatter trace223bd5" style="stroke-miterlimit: 2; opacity: 1;"><g class="fills"/><g class="errorbars"/><g class="lines"><path class="js-line" d="M12.5,92.3L67.5,95.52L122.5,84.38L177.5,76.24" style="vector-effect: non-scaling-stroke; fill: none; stroke: rgb(75, 41, 145); stroke-opacity: 1; stroke-width: 1px; opacity: 1;"/></g><g class="points"><path class="point" transform="translate(12.5,92.3)" d="M1.5,0A1.5,1.5 0 1,1 0,-1.5A1.5,1.5 0 0,1 1.5,0Z" style="opacity: 1; stroke-width: 0px; fill: rgb(75, 41, 145); fill-opacity: 1;"/><path class="point" transform="translate(67.5,95.52)" d="M1.5,0A1.5,1.5 0 1,1 0,-1.5A1.5,1.5 0 0,1 1.5,0Z" style="opacity: 1; stroke-width: 0px; fill: rgb(75, 41, 145); fill-opacity: 1;"/><path class="point" transform="translate(122.5,84.38)" d="M1.5,0A1.5,1.5 0 1,1 0,-1.5A1.5,1.5 0 0,1 1.5,0Z" style="opacity: 1; stroke-width: 0px; fill: rgb(75, 41, 145); fill-opacity: 1;"/><path class="point" transform="translate(177.5,76.24)" d="M1.5,0A1.5,1.5 0 1,1 0,-1.5A1.5,1.5 0 0,1 1.5,0Z" style="opacity: 1; stroke-width: 0px; fill: rgb(75, 41, 145); fill-opacity: 1;"/></g><g class="text"/></g><g class="trace scatter trace77709f" style="stroke-miterlimit: 2; opacity: 1;"><g class="fills"/><g class="errorbars"/><g class="lines"><path class="js-line" d="M12.5,144.88L67.5,105.19L122.5,85.73L177.5,66.07" style="vector-effect: non-scaling-stroke; fill: none; stroke: rgb(75, 41, 145); stroke-opacity: 1; stroke-width: 1px; opacity: 1;"/></g><g class="points"><path class="point" transform="translate(12.5,144.88)" d="M1.5,0A1.5,1.5 0 1,1 0,-1.5A1.5,1.5 0 0,1 1.5,0Z" style="opacity: 1; stroke-width: 0px; fill: rgb(75, 41, 145); fill-opacity: 1;"/><path class="point" transform="translate(67.5,105.19)" d="M1.5,0A1.5,1.5 0 1,1 0,-1.5A1.5,1.5 0 0,1 1.5,0Z" style="opacity: 1; stroke-width: 0px; fill: rgb(75, 41, 145); fill-opacity: 1;"/><path class="point" transform="translate(122.5,85.73)" d="M1.5,0A1.5,1.5 0 1,1 0,-1.5A1.5,1.5 0 0,1 1.5,0Z" style="opacity: 1; stroke-width: 0px; fill: rgb(75, 41, 145); fill-opacity: 1;"/><path class="point" transform="translate(177.5,66.07)" d="M1.5,0A1.5,1.5 0 1,1 0,-1.5A1.5,1.5 0 0,1 1.5,0Z" style="opacity: 1; stroke-width: 0px; fill: rgb(75, 41, 145); fill-opacity: 1;"/></g><g class="text"/></g><g class="trace scatter trace3f6126" style="stroke-miterlimit: 2; opacity: 1;"><g class="fills"/><g class="errorbars"/><g class="lines"><path class="js-line" d="M12.5,122.16L67.5,108.93L122.5,87.77L177.5,73.73" style="vector-effect: non-scaling-stroke; fill: none; stroke: rgb(75, 41, 145); stroke-opacity: 1; stroke-width: 1px; opacity: 1;"/></g><g class="points"><path class="point" transform="translate(12.5,122.16)" d="M1.5,0A1.5,1.5 0 1,1 0,-1.5A1.5,1.5 0 0,1 1.5,0Z" style="opacity: 1; stroke-width: 0px; fill: rgb(75, 41, 145); fill-opacity: 1;"/><path class="point" transform="translate(67.5,108.93)" d="M1.5,0A1.5,1.5 0 1,1 0,-1.5A1.5,1.5 0 0,1 1.5,0Z" style="opacity: 1; stroke-width: 0px; fill: rgb(75, 41, 145); fill-opacity: 1;"/><path class="point" transform="translate(122.5,87.77)" d="M1.5,0A1.5,1.5 0 1,1 0,-1.5A1.5,1.5 0 0,1 1.5,0Z" style="opacity: 1; stroke-width: 0px; fill: rgb(75, 41, 145); fill-opacity: 1;"/><path class="point" transform="translate(177.5,73.73)" d="M1.5,0A1.5,1.5 0 1,1 0,-1.5A1.5,1.5 0 0,1 1.5,0Z" style="opacity: 1; stroke-width: 0px; fill: rgb(75, 41, 145); fill-opacity: 1;"/></g><g class="text"/></g><g class="trace scatter trace019594" style="stroke-miterlimit: 2; opacity: 1;"><g class="fills"/><g class="errorbars"/><g class="lines"><path class="js-line" d="M12.5,149L67.5,106.27L122.5,109.09L177.5,97.59" style="vector-effect: non-scaling-stroke; fill: none; stroke: rgb(75, 41, 145); stroke-opacity: 1; stroke-width: 1px; opacity: 1;"/></g><g class="points"><path class="point" transform="translate(12.5,149)" d="M1.5,0A1.5,1.5 0 1,1 0,-1.5A1.5,1.5 0 0,1 1.5,0Z" style="opacity: 1; stroke-width: 0px; fill: rgb(75, 41, 145); fill-opacity: 1;"/><path class="point" transform="translate(67.5,106.27)" d="M1.5,0A1.5,1.5 0 1,1 0,-1.5A1.5,1.5 0 0,1 1.5,0Z" style="opacity: 1; stroke-width: 0px; fill: rgb(75, 41, 145); fill-opacity: 1;"/><path class="point" transform="translate(122.5,109.09)" d="M1.5,0A1.5,1.5 0 1,1 0,-1.5A1.5,1.5 0 0,1 1.5,0Z" style="opacity: 1; stroke-width: 0px; fill: rgb(75, 41, 145); fill-opacity: 1;"/><path class="point" transform="translate(177.5,97.59)" d="M1.5,0A1.5,1.5 0 1,1 0,-1.5A1.5,1.5 0 0,1 1.5,0Z" style="opacity: 1; stroke-width: 0px; fill: rgb(75, 41, 145); fill-opacity: 1;"/></g><g class="text"/></g><g class="trace scatter tracecf17e9" style="stroke-miterlimit: 2; opacity: 1;"><g class="fills"/><g class="errorbars"/><g class="lines"><path class="js-line" d="M12.5,103.45L67.5,114.06L122.5,104.59L177.5,96.77" style="vector-effect: non-scaling-stroke; fill: none; stroke: rgb(75, 41, 145); stroke-opacity: 1; stroke-width: 1px; opacity: 1;"/></g><g class="points"><path class="point" transform="translate(12.5,103.45)" d="M1.5,0A1.5,1.5 0 1,1 0,-1.5A1.5,1.5 0 0,1 1.5,0Z" style="opacity: 1; stroke-width: 0px; fill: rgb(75, 41, 145); fill-opacity: 1;"/><path class="point" transform="translate(67.5,114.06)" d="M1.5,0A1.5,1.5 0 1,1 0,-1.5A1.5,1.5 0 0,1 1.5,0Z" style="opacity: 1; stroke-width: 0px; fill: rgb(75, 41, 145); fill-opacity: 1;"/><path class="point" transform="translate(122.5,104.59)" d="M1.5,0A1.5,1.5 0 1,1 0,-1.5A1.5,1.5 0 0,1 1.5,0Z" style="opacity: 1; stroke-width: 0px; fill: rgb(75, 41, 145); fill-opacity: 1;"/><path class="point" transform="translate(177.5,96.77)" d="M1.5,0A1.5,1.5 0 1,1 0,-1.5A1.5,1.5 0 0,1 1.5,0Z" style="opacity: 1; stroke-width: 0px; fill: rgb(75, 41, 145); fill-opacity: 1;"/></g><g class="text"/></g></g></g><g class="overplot"/><path class="xlines-above crisp" d="M0,0" style="fill: none;"/><path class="ylines-above crisp" d="M0,0" style="fill: none;"/><g class="overlines-above"/><g class="xaxislayer-above"><g class="xtick"><text text-anchor="middle" x="0" y="231" transform="translate(92.5,0)" style="font-family: 'Open Sans', verdana, arial, sans-serif; font-size: 10px; fill: rgb(0, 0, 0); fill-opacity: 1; white-space: pre; opacity: 1;">T11</text></g><g class="xtick"><text text-anchor="middle" x="0" y="231" transform="translate(147.5,0)" style="font-family: 'Open Sans', verdana, arial, sans-serif; font-size: 10px; fill: rgb(0, 0, 0); fill-opacity: 1; white-space: pre; opacity: 1;">T22</text></g><g class="xtick"><text text-anchor="middle" x="0" y="231" transform="translate(202.5,0)" style="font-family: 'Open Sans', verdana, arial, sans-serif; font-size: 10px; fill: rgb(0, 0, 0); fill-opacity: 1; white-space: pre; opacity: 1;">T33</text></g><g class="xtick"><text text-anchor="middle" x="0" y="231" transform="translate(257.5,0)" style="font-family: 'Open Sans', verdana, arial, sans-serif; font-size: 10px; fill: rgb(0, 0, 0); fill-opacity: 1; white-space: pre; opacity: 1;">T44</text></g></g><g class="yaxislayer-above"><g class="ytick"><text text-anchor="end" x="79" y="3.5" transform="translate(0,195.72)" style="font-family: 'Open Sans', verdana, arial, sans-serif; font-size: 10px; fill: rgb(0, 0, 0); fill-opacity: 1; white-space: pre; opacity: 1;">5</text></g><g class="ytick"><text text-anchor="end" x="79" y="3.5" style="font-family: 'Open Sans', verdana, arial, sans-serif; font-size: 10px; fill: rgb(0, 0, 0); fill-opacity: 1; white-space: pre; opacity: 1;" transform="translate(0,120.39)">10</text></g></g><g class="overaxes-above"/></g></g><g class="polarlayer"/><g class="ternarylayer"/><g class="geolayer"/><g class="funnelarealayer"/><g class="pielayer"/><g class="iciclelayer"/><g class="treemaplayer"/><g class="sunburstlayer"/><g class="glimages"/><defs id="topdefs-17ea2f"><g class="clips"/><clipPath id="legend17ea2f"><rect width="56" height="80" x="0" y="0"/></clipPath></defs><g class="layer-above"><g class="imagelayer"/><g class="shapelayer"/></g><g class="infolayer"><g class="legend" pointer-events="all" transform="translate(273.8,60)"><rect class="bg" shape-rendering="crispEdges" width="56" height="80" x="0" y="0" style="stroke: rgb(68, 68, 68); stroke-opacity: 1; fill: rgb(255, 255, 255); fill-opacity: 1; stroke-width: 0px;"/><g class="scrollbox" transform="" clip-path="url(#legend17ea2f)"><text class="legendtitletext" text-anchor="start" x="2" y="13" style="font-family: 'Open Sans', verdana, arial, sans-serif; font-size: 10px; fill: rgb(0, 0, 0); fill-opacity: 1; white-space: pre;">Treatment</text><g class="groups" transform=""><g class="traces" transform="translate(0,27.5)" style="opacity: 1;"><text class="legendtext" text-anchor="start" x="40" y="3.9" style="font-family: 'Open Sans', verdana, arial, sans-serif; font-size: 10px; fill: rgb(0, 0, 0); fill-opacity: 1; white-space: pre;">4</text><g class="layers" style="opacity: 1;"><g class="legendfill"/><g class="legendlines"><path class="js-line" d="M5,0h30" style="fill: none; stroke: rgb(237, 217, 163); stroke-opacity: 1; stroke-width: 1px;"/></g><g class="legendsymbols"><g class="legendpoints"><path class="scatterpts" transform="translate(20,0)" d="M1.5,0A1.5,1.5 0 1,1 0,-1.5A1.5,1.5 0 0,1 1.5,0Z" style="opacity: 1; stroke-width: 0px; fill: rgb(237, 217, 163); fill-opacity: 1;"/></g></g></g><rect class="legendtoggle" x="0" y="-9.5" width="46.375" height="19" style="fill: rgb(0, 0, 0); fill-opacity: 0;"/></g></g><g class="groups" transform=""><g class="traces" transform="translate(0,46.5)" style="opacity: 1;"><text class="legendtext" text-anchor="start" x="40" y="3.9" style="font-family: 'Open Sans', verdana, arial, sans-serif; font-size: 10px; fill: rgb(0, 0, 0); fill-opacity: 1; white-space: pre;">3</text><g class="layers" style="opacity: 1;"><g class="legendfill"/><g class="legendlines"><path class="js-line" d="M5,0h30" style="fill: none; stroke: rgb(234, 79, 136); stroke-opacity: 1; stroke-width: 1px;"/></g><g class="legendsymbols"><g class="legendpoints"><path class="scatterpts" transform="translate(20,0)" d="M1.5,0A1.5,1.5 0 1,1 0,-1.5A1.5,1.5 0 0,1 1.5,0Z" style="opacity: 1; stroke-width: 0px; fill: rgb(234, 79, 136); fill-opacity: 1;"/></g></g></g><rect class="legendtoggle" x="0" y="-9.5" width="46.375" height="19" style="fill: rgb(0, 0, 0); fill-opacity: 0;"/></g></g><g class="groups" transform=""><g class="traces" transform="translate(0,65.5)" style="opacity: 1;"><text class="legendtext" text-anchor="start" x="40" y="3.9" style="font-family: 'Open Sans', verdana, arial, sans-serif; font-size: 10px; fill: rgb(0, 0, 0); fill-opacity: 1; white-space: pre;">2</text><g class="layers" style="opacity: 1;"><g class="legendfill"/><g class="legendlines"><path class="js-line" d="M5,0h30" style="fill: none; stroke: rgb(75, 41, 145); stroke-opacity: 1; stroke-width: 1px;"/></g><g class="legendsymbols"><g class="legendpoints"><path class="scatterpts" transform="translate(20,0)" d="M1.5,0A1.5,1.5 0 1,1 0,-1.5A1.5,1.5 0 0,1 1.5,0Z" style="opacity: 1; stroke-width: 0px; fill: rgb(75, 41, 145); fill-opacity: 1;"/></g></g></g><rect class="legendtoggle" x="0" y="-9.5" width="46.375" height="19" style="fill: rgb(0, 0, 0); fill-opacity: 0;"/></g></g></g><rect class="scrollbar" rx="20" ry="3" width="0" height="0" x="0" y="0" style="fill: rgb(128, 139, 164); fill-opacity: 1;"/></g><g class="g-gtitle"/><g class="g-xtitle"><text class="xtitle" x="175" y="256.4" text-anchor="middle" style="font-family: 'Open Sans', verdana, arial, sans-serif; font-size: 12px; fill: rgb(0, 0, 0); opacity: 1; font-weight: normal; white-space: pre;">Timepoint</text></g><g class="g-ytitle"><text class="ytitle" transform="rotate(-90,42.865625,140)" x="42.865625" y="140" text-anchor="middle" style="font-family: 'Open Sans', verdana, arial, sans-serif; font-size: 12px; fill: rgb(0, 0, 0); opacity: 1; font-weight: normal; white-space: pre;">Total alllele frequency</text></g></g></svg>