<svg class="main-svg" xmlns="http://www.w3.org/2000/svg" xmlns:xlink="http://www.w3.org/1999/xlink" width="200" height="250" style="" viewBox="0 0 200 250"><rect x="0" y="0" width="200" height="250" style="fill: rgb(255, 255, 255); fill-opacity: 1;"/><defs id="defs-465ba1"><g class="clips"><clipPath id="clip465ba1xyplot" class="plotclip"><rect width="102" height="196"/></clipPath><clipPath class="axesclip" id="clip465ba1x"><rect x="33" y="0" width="102" height="250"/></clipPath><clipPath class="axesclip" id="clip465ba1y"><rect x="0" y="20" width="200" height="196"/></clipPath><clipPath class="axesclip" id="clip465ba1xy"><rect x="33" y="20" width="102" height="196"/></clipPath></g><g class="gradients"/><g class="patterns"/></defs><g class="bglayer"><rect class="bg" x="33" y="20" width="102" height="196" style="fill: rgb(229, 236, 246); fill-opacity: 1; stroke-width: 0;"/></g><g class="layer-below"><g class="imagelayer"/><g class="shapelayer"/></g><g class="cartesianlayer"><g class="subplot xy"><g class="layer-subplot"><g class="shapelayer"/><g class="imagelayer"/></g><g class="minor-gridlayer"><g class="x"/><g class="y"/></g><g class="gridlayer"><g class="x"><path class="xgrid crisp" transform="translate(41.230000000000004,0)" d="M0,20v196" style="stroke: rgb(255, 255, 255); stroke-opacity: 1; stroke-width: 1px;"/><path class="xgrid crisp" transform="translate(69.74000000000001,0)" d="M0,20v196" style="stroke: rgb(255, 255, 255); stroke-opacity: 1; stroke-width: 1px;"/><path class="xgrid crisp" transform="translate(98.26,0)" d="M0,20v196" style="stroke: rgb(255, 255, 255); stroke-opacity: 1; stroke-width: 1px;"/><path class="xgrid crisp" transform="translate(126.78,0)" d="M0,20v196" style="stroke: rgb(255, 255, 255); stroke-opacity: 1; stroke-width: 1px;"/></g><g class="y"><path class="ygrid crisp" transform="translate(0,193.29)" d="M33,0h102" style="stroke: rgb(255, 255, 255); stroke-opacity: 1; stroke-width: 1px;"/><path class="ygrid crisp" transform="translate(0,170.58)" d="M33,0h102" style="stroke: rgb(255, 255, 255); stroke-opacity: 1; stroke-width: 1px;"/><path class="ygrid crisp" transform="translate(0,147.88)" d="M33,0h102" style="stroke: rgb(255, 255, 255); stroke-opacity: 1; stroke-width: 1px;"/><path class="ygrid crisp" transform="translate(0,125.17)" d="M33,0h102" style="stroke: rgb(255, 255, 255); stroke-opacity: 1; stroke-width: 1px;"/><path class="ygrid crisp" transform="translate(0,102.46)" d="M33,0h102" style="stroke: rgb(255, 255, 255); stroke-opacity: 1; stroke-width: 1px;"/><path class="ygrid crisp" transform="translate(0,79.75)" d="M33,0h102" style="stroke: rgb(255, 255, 255); stroke-opacity: 1; stroke-width: 1px;"/><path class="ygrid crisp" transform="translate(0,57.04)" d="M33,0h102" style="stroke: rgb(255, 255, 255); stroke-opacity: 1; stroke-width: 1px;"/><path class="ygrid crisp" transform="translate(0,34.33)" d="M33,0h102" style="stroke: rgb(255, 255, 255); stroke-opacity: 1; stroke-width: 1px;"/></g></g><g class="zerolinelayer"><path class="yzl zl crisp" transform="translate(0,216)" d="M33,0h102" style="stroke: rgb(255, 255, 255); stroke-opacity: 1; stroke-width: 2px;"/></g><path class="xlines-below"/><path class="ylines-below"/><g class="overlines-below"/><g class="xaxislayer-below"/><g class="yaxislayer-below"/><g class="overaxes-below"/><g class="plot" transform="translate(33,20)" clip-path="url(#clip465ba1xyplot)"><g class="scatterlayer mlayer"><g class="trace scatter trace4011d1" style="stroke-miterlimit: 2; opacity: 0.8;"><g class="fills"/><g class="errorbars"/><g class="lines"><path class="js-line" d="M8.23,99.13L36.74,122.9L65.26,115.77L93.78,109.88" style="vector-effect: non-scaling-stroke; fill: none; stroke: rgb(164, 49, 160); stroke-opacity: 1; stroke-width: 1.5px; opacity: 1;"/></g><g class="points"><path class="point" transform="translate(8.23,99.13)" d="M2.5,0A2.5,2.5 0 1,1 0,-2.5A2.5,2.5 0 0,1 2.5,0Z" style="opacity: 1; stroke-width: 0px; fill: rgb(164, 49, 160); fill-opacity: 1;"/><path class="point" transform="translate(36.74,122.9)" d="M2.5,0A2.5,2.5 0 1,1 0,-2.5A2.5,2.5 0 0,1 2.5,0Z" style="opacity: 1; stroke-width: 0px; fill: rgb(164, 49, 160); fill-opacity: 1;"/><path class="point" transform="translate(65.26,115.77)" d="M2.5,0A2.5,2.5 0 1,1 0,-2.5A2.5,2.5 0 0,1 2.5,0Z" style="opacity: 1; stroke-width: 0px; fill: rgb(164, 49, 160); fill-opacity: 1;"/><path class="point" transform="translate(93.78,109.88)" d="M2.5,0A2.5,2.5 0 1,1 0,-2.5A2.5,2.5 0 0,1 2.5,0Z" style="opacity: 1; stroke-width: 0px; fill: rgb(164, 49, 160); fill-opacity: 1;"/></g><g class="text"/></g><g class="trace scatter trace12c4bc" style="stroke-miterlimit: 2; opacity: 0.8;"><g class="fills"/><g class="errorbars"/><g class="lines"><path class="js-line" d="M8.23,129.01L36.74,117.32L65.26,98.62L93.78,92.51" style="vector-effect: non-scaling-stroke; fill: none; stroke: rgb(164, 49, 160); stroke-opacity: 1; stroke-width: 1.5px; opacity: 1;"/></g><g class="points"><path class="point" transform="translate(8.23,129.01)" d="M2.5,0A2.5,2.5 0 1,1 0,-2.5A2.5,2.5 0 0,1 2.5,0Z" style="opacity: 1; stroke-width: 0px; fill: rgb(164, 49, 160); fill-opacity: 1;"/><path class="point" transform="translate(36.74,117.32)" d="M2.5,0A2.5,2.5 0 1,1 0,-2.5A2.5,2.5 0 0,1 2.5,0Z" style="opacity: 1; stroke-width: 0px; fill: rgb(164, 49, 160); fill-opacity: 1;"/><path class="point" transform="translate(65.26,98.62)" d="M2.5,0A2.5,2.5 0 1,1 0,-2.5A2.5,2.5 0 0,1 2.5,0Z" style="opacity: 1; stroke-width: 0px; fill: rgb(164, 49, 160); fill-opacity: 1;"/><path class="point" transform="translate(93.78,92.51)" d="M2.5,0A2.5,2.5 0 1,1 0,-2.5A2.5,2.5 0 0,1 2.5,0Z" style="opacity: 1; stroke-width: 0px; fill: rgb(164, 49, 160); fill-opacity: 1;"/></g><g class="text"/></g><g class="trace scatter trace1b49e3" style="stroke-miterlimit: 2; opacity: 0.8;"><g class="fills"/><g class="errorbars"/><g class="lines"><path class="js-line" d="M8.23,83.37L36.74,108.94L65.26,100.54L93.78,94.41" style="vector-effect: non-scaling-stroke; fill: none; stroke: rgb(164, 49, 160); stroke-opacity: 1; stroke-width: 1.5px; opacity: 1;"/></g><g class="points"><path class="point" transform="translate(8.23,83.37)" d="M2.5,0A2.5,2.5 0 1,1 0,-2.5A2.5,2.5 0 0,1 2.5,0Z" style="opacity: 1; stroke-width: 0px; fill: rgb(164, 49, 160); fill-opacity: 1;"/><path class="point" transform="translate(36.74,108.94)" d="M2.5,0A2.5,2.5 0 1,1 0,-2.5A2.5,2.5 0 0,1 2.5,0Z" style="opacity: 1; stroke-width: 0px; fill: rgb(164, 49, 160); fill-opacity: 1;"/><path class="point" transform="translate(65.26,100.54)" d="M2.5,0A2.5,2.5 0 1,1 0,-2.5A2.5,2.5 0 0,1 2.5,0Z" style="opacity: 1; stroke-width: 0px; fill: rgb(164, 49, 160); fill-opacity: 1;"/><path class="point" transform="translate(93.78,94.41)" d="M2.5,0A2.5,2.5 0 1,1 0,-2.5A2.5,2.5 0 0,1 2.5,0Z" style="opacity: 1; stroke-width: 0px; fill: rgb(164, 49, 160); fill-opacity: 1;"/></g><g class="text"/></g><g class="trace scatter traceb16c70" style="stroke-miterlimit: 2; opacity: 0.8;"><g class="fills"/><g class="errorbars"/><g class="lines"><path class="js-line" d="M8.23,147.43L36.74,106.07L65.26,108.52L93.78,99.59" style="vector-effect: non-scaling-stroke; fill: none; stroke: rgb(164, 49, 160); stroke-opacity: 1; stroke-width: 1.5px; opacity: 1;"/></g><g class="points"><path class="point" transform="translate(8.23,147.43)" d="M2.5,0A2.5,2.5 0 1,1 0,-2.5A2.5,2.5 0 0,1 2.5,0Z" style="opacity: 1; stroke-width: 0px; fill: rgb(164, 49, 160); fill-opacity: 1;"/><path class="point" transform="translate(36.74,106.07)" d="M2.5,0A2.5,2.5 0 1,1 0,-2.5A2.5,2.5 0 0,1 2.5,0Z" style="opacity: 1; stroke-width: 0px; fill: rgb(164, 49, 160); fill-opacity: 1;"/><path class="point" transform="translate(65.26,108.52)" d="M2.5,0A2.5,2.5 0 1,1 0,-2.5A2.5,2.5 0 0,1 2.5,0Z" style="opacity: 1; stroke-width: 0px; fill: rgb(164, 49, 160); fill-opacity: 1;"/><path class="point" transform="translate(93.78,99.59)" d="M2.5,0A2.5,2.5 0 1,1 0,-2.5A2.5,2.5 0 0,1 2.5,0Z" style="opacity: 1; stroke-width: 0px; fill: rgb(164, 49, 160); fill-opacity: 1;"/></g><g class="text"/></g><g class="trace scatter trace76bf6e" style="stroke-miterlimit: 2; opacity: 0.8;"><g class="fills"/><g class="errorbars"/><g class="lines"><path class="js-line" d="M8.23,146.13L36.74,116.22L65.26,101.55L93.78,86.74" style="vector-effect: non-scaling-stroke; fill: none; stroke: rgb(164, 49, 160); stroke-opacity: 1; stroke-width: 1.5px; opacity: 1;"/></g><g class="points"><path class="point" transform="translate(8.23,146.13)" d="M2.5,0A2.5,2.5 0 1,1 0,-2.5A2.5,2.5 0 0,1 2.5,0Z" style="opacity: 1; stroke-width: 0px; fill: rgb(164, 49, 160); fill-opacity: 1;"/><path class="point" transform="translate(36.74,116.22)" d="M2.5,0A2.5,2.5 0 1,1 0,-2.5A2.5,2.5 0 0,1 2.5,0Z" style="opacity: 1; stroke-width: 0px; fill: rgb(164, 49, 160); fill-opacity: 1;"/><path class="point" transform="translate(65.26,101.55)" d="M2.5,0A2.5,2.5 0 1,1 0,-2.5A2.5,2.5 0 0,1 2.5,0Z" style="opacity: 1; stroke-width: 0px; fill: rgb(164, 49, 160); fill-opacity: 1;"/><path class="point" transform="translate(93.78,86.74)" d="M2.5,0A2.5,2.5 0 1,1 0,-2.5A2.5,2.5 0 0,1 2.5,0Z" style="opacity: 1; stroke-width: 0px; fill: rgb(164, 49, 160); fill-opacity: 1;"/></g><g class="text"/></g><g class="trace scatter trace70187c" style="stroke-miterlimit: 2; opacity: 0.8;"><g class="fills"/><g class="errorbars"/><g class="lines"><path class="js-line" d="M8.23,121.71L65.26,128.03L93.78,123.09" style="vector-effect: non-scaling-stroke; fill: none; stroke: rgb(234, 79, 136); stroke-opacity: 1; stroke-width: 1.5px; opacity: 1;"/></g><g class="points"><path class="point" transform="translate(8.23,121.71)" d="M2.5,0A2.5,2.5 0 1,1 0,-2.5A2.5,2.5 0 0,1 2.5,0Z" style="opacity: 1; stroke-width: 0px; fill: rgb(234, 79, 136); fill-opacity: 1;"/><path class="point" transform="translate(36.74,124.54)" d="M2.5,0A2.5,2.5 0 1,1 0,-2.5A2.5,2.5 0 0,1 2.5,0Z" style="opacity: 1; stroke-width: 0px; fill: rgb(234, 79, 136); fill-opacity: 1;"/><path class="point" transform="translate(65.26,128.03)" d="M2.5,0A2.5,2.5 0 1,1 0,-2.5A2.5,2.5 0 0,1 2.5,0Z" style="opacity: 1; stroke-width: 0px; fill: rgb(234, 79, 136); fill-opacity: 1;"/><path class="point" transform="translate(93.78,123.09)" d="M2.5,0A2.5,2.5 0 1,1 0,-2.5A2.5,2.5 0 0,1 2.5,0Z" style="opacity: 1; stroke-width: 0px; fill: rgb(234, 79, 136); fill-opacity: 1;"/></g><g class="text"/></g><g class="trace scatter tracea5a7b0" style="stroke-miterlimit: 2; opacity: 0.8;"><g class="fills"/><g class="errorbars"/><g class="lines"><path class="js-line" d="M8.23,129.51L36.74,135.48L65.26,122.98L93.78,84.88" style="vector-effect: non-scaling-stroke; fill: none; stroke: rgb(234, 79, 136); stroke-opacity: 1; stroke-width: 1.5px; opacity: 1;"/></g><g class="points"><path class="point" transform="translate(8.23,129.51)" d="M2.5,0A2.5,2.5 0 1,1 0,-2.5A2.5,2.5 0 0,1 2.5,0Z" style="opacity: 1; stroke-width: 0px; fill: rgb(234, 79, 136); fill-opacity: 1;"/><path class="point" transform="translate(36.74,135.48)" d="M2.5,0A2.5,2.5 0 1,1 0,-2.5A2.5,2.5 0 0,1 2.5,0Z" style="opacity: 1; stroke-width: 0px; fill: rgb(234, 79, 136); fill-opacity: 1;"/><path class="point" transform="translate(65.26,122.98)" d="M2.5,0A2.5,2.5 0 1,1 0,-2.5A2.5,2.5 0 0,1 2.5,0Z" style="opacity: 1; stroke-width: 0px; fill: rgb(234, 79, 136); fill-opacity: 1;"/><path class="point" transform="translate(93.78,84.88)" d="M2.5,0A2.5,2.5 0 1,1 0,-2.5A2.5,2.5 0 0,1 2.5,0Z" style="opacity: 1; stroke-width: 0px; fill: rgb(234, 79, 136); fill-opacity: 1;"/></g><g class="text"/></g><g class="trace scatter trace1c5802" style="stroke-miterlimit: 2; opacity: 0.8;"><g class="fills"/><g class="errorbars"/><g class="lines"><path class="js-line" d="M8.23,133.53L36.74,133.06L65.26,127.57L93.78,117.23" style="vector-effect: non-scaling-stroke; fill: none; stroke: rgb(234, 79, 136); stroke-opacity: 1; stroke-width: 1.5px; opacity: 1;"/></g><g class="points"><path class="point" transform="translate(8.23,133.53)" d="M2.5,0A2.5,2.5 0 1,1 0,-2.5A2.5,2.5 0 0,1 2.5,0Z" style="opacity: 1; stroke-width: 0px; fill: rgb(234, 79, 136); fill-opacity: 1;"/><path class="point" transform="translate(36.74,133.06)" d="M2.5,0A2.5,2.5 0 1,1 0,-2.5A2.5,2.5 0 0,1 2.5,0Z" style="opacity: 1; stroke-width: 0px; fill: rgb(234, 79, 136); fill-opacity: 1;"/><path class="point" transform="translate(65.26,127.57)" d="M2.5,0A2.5,2.5 0 1,1 0,-2.5A2.5,2.5 0 0,1 2.5,0Z" style="opacity: 1; stroke-width: 0px; fill: rgb(234, 79, 136); fill-opacity: 1;"/><path class="point" transform="translate(93.78,117.23)" d="M2.5,0A2.5,2.5 0 1,1 0,-2.5A2.5,2.5 0 0,1 2.5,0Z" style="opacity: 1; stroke-width: 0px; fill: rgb(234, 79, 136); fill-opacity: 1;"/></g><g class="text"/></g><g class="trace scatter trace0b62df" style="stroke-miterlimit: 2; opacity: 0.8;"><g class="fills"/><g class="errorbars"/><g class="lines"><path class="js-line" d="M8.23,133.44L36.74,126.47L65.26,109.59L93.78,106.89" style="vector-effect: non-scaling-stroke; fill: none; stroke: rgb(234, 79, 136); stroke-opacity: 1; stroke-width: 1.5px; opacity: 1;"/></g><g class="points"><path class="point" transform="translate(8.23,133.44)" d="M2.5,0A2.5,2.5 0 1,1 0,-2.5A2.5,2.5 0 0,1 2.5,0Z" style="opacity: 1; stroke-width: 0px; fill: rgb(234, 79, 136); fill-opacity: 1;"/><path class="point" transform="translate(36.74,126.47)" d="M2.5,0A2.5,2.5 0 1,1 0,-2.5A2.5,2.5 0 0,1 2.5,0Z" style="opacity: 1; stroke-width: 0px; fill: rgb(234, 79, 136); fill-opacity: 1;"/><path class="point" transform="translate(65.26,109.59)" d="M2.5,0A2.5,2.5 0 1,1 0,-2.5A2.5,2.5 0 0,1 2.5,0Z" style="opacity: 1; stroke-width: 0px; fill: rgb(234, 79, 136); fill-opacity: 1;"/><path class="point" transform="translate(93.78,106.89)" d="M2.5,0A2.5,2.5 0 1,1 0,-2.5A2.5,2.5 0 0,1 2.5,0Z" style="opacity: 1; stroke-width: 0px; fill: rgb(234, 79, 136); fill-opacity: 1;"/></g><g class="text"/></g><g class="trace scatter tracec9e4d7" style="stroke-miterlimit: 2; opacity: 0.8;"><g class="fills"/><g class="errorbars"/><g class="lines"><path class="js-line" d="M8.23,93.42L36.74,72.48L65.26,111.5L93.78,40.65" style="vector-effect: non-scaling-stroke; fill: none; stroke: rgb(234, 79, 136); stroke-opacity: 1; stroke-width: 1.5px; opacity: 1;"/></g><g class="points"><path class="point" transform="translate(8.23,93.42)" d="M2.5,0A2.5,2.5 0 1,1 0,-2.5A2.5,2.5 0 0,1 2.5,0Z" style="opacity: 1; stroke-width: 0px; fill: rgb(234, 79, 136); fill-opacity: 1;"/><path class="point" transform="translate(36.74,72.48)" d="M2.5,0A2.5,2.5 0 1,1 0,-2.5A2.5,2.5 0 0,1 2.5,0Z" style="opacity: 1; stroke-width: 0px; fill: rgb(234, 79, 136); fill-opacity: 1;"/><path class="point" transform="translate(65.26,111.5)" d="M2.5,0A2.5,2.5 0 1,1 0,-2.5A2.5,2.5 0 0,1 2.5,0Z" style="opacity: 1; stroke-width: 0px; fill: rgb(234, 79, 136); fill-opacity: 1;"/><path class="point" transform="translate(93.78,40.65)" d="M2.5,0A2.5,2.5 0 1,1 0,-2.5A2.5,2.5 0 0,1 2.5,0Z" style="opacity: 1; stroke-width: 0px; fill: rgb(234, 79, 136); fill-opacity: 1;"/></g><g class="text"/></g><g class="trace scatter trace2b06f4" style="stroke-miterlimit: 2; opacity: 0.8;"><g class="fills"/><g class="errorbars"/><g class="lines"><path class="js-line" d="M8.23,133.29L36.74,105.17L65.26,34.86L93.78,12.93" style="vector-effect: non-scaling-stroke; fill: none; stroke: rgb(248, 145, 120); stroke-opacity: 1; stroke-width: 1.5px; opacity: 1;"/></g><g class="points"><path class="point" transform="translate(8.23,133.29)" d="M2.5,0A2.5,2.5 0 1,1 0,-2.5A2.5,2.5 0 0,1 2.5,0Z" style="opacity: 1; stroke-width: 0px; fill: rgb(248, 145, 120); fill-opacity: 1;"/><path class="point" transform="translate(36.74,105.17)" d="M2.5,0A2.5,2.5 0 1,1 0,-2.5A2.5,2.5 0 0,1 2.5,0Z" style="opacity: 1; stroke-width: 0px; fill: rgb(248, 145, 120); fill-opacity: 1;"/><path class="point" transform="translate(65.26,34.86)" d="M2.5,0A2.5,2.5 0 1,1 0,-2.5A2.5,2.5 0 0,1 2.5,0Z" style="opacity: 1; stroke-width: 0px; fill: rgb(248, 145, 120); fill-opacity: 1;"/><path class="point" transform="translate(93.78,12.93)" d="M2.5,0A2.5,2.5 0 1,1 0,-2.5A2.5,2.5 0 0,1 2.5,0Z" style="opacity: 1; stroke-width: 0px; fill: rgb(248, 145, 120); fill-opacity: 1;"/></g><g class="text"/></g><g class="trace scatter tracec7abaf" style="stroke-miterlimit: 2; opacity: 0.8;"><g class="fills"/><g class="errorbars"/><g class="lines"><path class="js-line" d="M8.23,137.1L36.74,133.11L65.26,98.94L93.78,83.42" style="vector-effect: non-scaling-stroke; fill: none; stroke: rgb(248, 145, 120); stroke-opacity: 1; stroke-width: 1.5px; opacity: 1;"/></g><g class="points"><path class="point" transform="translate(8.23,137.1)" d="M2.5,0A2.5,2.5 0 1,1 0,-2.5A2.5,2.5 0 0,1 2.5,0Z" style="opacity: 1; stroke-width: 0px; fill: rgb(248, 145, 120); fill-opacity: 1;"/><path class="point" transform="translate(36.74,133.11)" d="M2.5,0A2.5,2.5 0 1,1 0,-2.5A2.5,2.5 0 0,1 2.5,0Z" style="opacity: 1; stroke-width: 0px; fill: rgb(248, 145, 120); fill-opacity: 1;"/><path class="point" transform="translate(65.26,98.94)" d="M2.5,0A2.5,2.5 0 1,1 0,-2.5A2.5,2.5 0 0,1 2.5,0Z" style="opacity: 1; stroke-width: 0px; fill: rgb(248, 145, 120); fill-opacity: 1;"/><path class="point" transform="translate(93.78,83.42)" d="M2.5,0A2.5,2.5 0 1,1 0,-2.5A2.5,2.5 0 0,1 2.5,0Z" style="opacity: 1; stroke-width: 0px; fill: rgb(248, 145, 120); fill-opacity: 1;"/></g><g class="text"/></g><g class="trace scatter trace2db3f6" style="stroke-miterlimit: 2; opacity: 0.8;"><g class="fills"/><g class="errorbars"/><g class="lines"><path class="js-line" d="M8.23,137.5L36.74,122.94L65.26,84.8L93.78,57.77" style="vector-effect: non-scaling-stroke; fill: none; stroke: rgb(248, 145, 120); stroke-opacity: 1; stroke-width: 1.5px; opacity: 1;"/></g><g class="points"><path class="point" transform="translate(8.23,137.5)" d="M2.5,0A2.5,2.5 0 1,1 0,-2.5A2.5,2.5 0 0,1 2.5,0Z" style="opacity: 1; stroke-width: 0px; fill: rgb(248, 145, 120); fill-opacity: 1;"/><path class="point" transform="translate(36.74,122.94)" d="M2.5,0A2.5,2.5 0 1,1 0,-2.5A2.5,2.5 0 0,1 2.5,0Z" style="opacity: 1; stroke-width: 0px; fill: rgb(248, 145, 120); fill-opacity: 1;"/><path class="point" transform="translate(65.26,84.8)" d="M2.5,0A2.5,2.5 0 1,1 0,-2.5A2.5,2.5 0 0,1 2.5,0Z" style="opacity: 1; stroke-width: 0px; fill: rgb(248, 145, 120); fill-opacity: 1;"/><path class="point" transform="translate(93.78,57.77)" d="M2.5,0A2.5,2.5 0 1,1 0,-2.5A2.5,2.5 0 0,1 2.5,0Z" style="opacity: 1; stroke-width: 0px; fill: rgb(248, 145, 120); fill-opacity: 1;"/></g><g class="text"/></g><g class="trace scatter traceeb845f" style="stroke-miterlimit: 2; opacity: 0.8;"><g class="fills"/><g class="errorbars"/><g class="lines"><path class="js-line" d="M8.23,134.53L36.74,128.86L65.26,99.69L93.78,78.77" style="vector-effect: non-scaling-stroke; fill: none; stroke: rgb(248, 145, 120); stroke-opacity: 1; stroke-width: 1.5px; opacity: 1;"/></g><g class="points"><path class="point" transform="translate(8.23,134.53)" d="M2.5,0A2.5,2.5 0 1,1 0,-2.5A2.5,2.5 0 0,1 2.5,0Z" style="opacity: 1; stroke-width: 0px; fill: rgb(248, 145, 120); fill-opacity: 1;"/><path class="point" transform="translate(36.74,128.86)" d="M2.5,0A2.5,2.5 0 1,1 0,-2.5A2.5,2.5 0 0,1 2.5,0Z" style="opacity: 1; stroke-width: 0px; fill: rgb(248, 145, 120); fill-opacity: 1;"/><path class="point" transform="translate(65.26,99.69)" d="M2.5,0A2.5,2.5 0 1,1 0,-2.5A2.5,2.5 0 0,1 2.5,0Z" style="opacity: 1; stroke-width: 0px; fill: rgb(248, 145, 120); fill-opacity: 1;"/><path class="point" transform="translate(93.78,78.77)" d="M2.5,0A2.5,2.5 0 1,1 0,-2.5A2.5,2.5 0 0,1 2.5,0Z" style="opacity: 1; stroke-width: 0px; fill: rgb(248, 145, 120); fill-opacity: 1;"/></g><g class="text"/></g><g class="trace scatter trace05fad6" style="stroke-miterlimit: 2; opacity: 0.8;"><g class="fills"/><g class="errorbars"/><g class="lines"><path class="js-line" d="M8.23,134.43L36.74,96.23L65.26,110.86L93.78,56.66" style="vector-effect: non-scaling-stroke; fill: none; stroke: rgb(248, 145, 120); stroke-opacity: 1; stroke-width: 1.5px; opacity: 1;"/></g><g class="points"><path class="point" transform="translate(8.23,134.43)" d="M2.5,0A2.5,2.5 0 1,1 0,-2.5A2.5,2.5 0 0,1 2.5,0Z" style="opacity: 1; stroke-width: 0px; fill: rgb(248, 145, 120); fill-opacity: 1;"/><path class="point" transform="translate(36.74,96.23)" d="M2.5,0A2.5,2.5 0 1,1 0,-2.5A2.5,2.5 0 0,1 2.5,0Z" style="opacity: 1; stroke-width: 0px; fill: rgb(248, 145, 120); fill-opacity: 1;"/><path class="point" transform="translate(65.26,110.86)" d="M2.5,0A2.5,2.5 0 1,1 0,-2.5A2.5,2.5 0 0,1 2.5,0Z" style="opacity: 1; stroke-width: 0px; fill: rgb(248, 145, 120); fill-opacity: 1;"/><path class="point" transform="translate(93.78,56.66)" d="M2.5,0A2.5,2.5 0 1,1 0,-2.5A2.5,2.5 0 0,1 2.5,0Z" style="opacity: 1; stroke-width: 0px; fill: rgb(248, 145, 120); fill-opacity: 1;"/></g><g class="text"/></g></g></g><g class="overplot"/><path class="xlines-above crisp" d="M0,0" style="fill: none;"/><path class="ylines-above crisp" d="M0,0" style="fill: none;"/><g class="overlines-above"/><g class="xaxislayer-above"><g class="xtick"><text text-anchor="middle" x="0" y="227" transform="translate(41.230000000000004,0)" style="font-family: 'Open Sans', verdana, arial, sans-serif; font-size: 10px; fill: rgb(0, 0, 0); fill-opacity: 1; white-space: pre; opacity: 1;">11</text></g><g class="xtick"><text text-anchor="middle" x="0" y="227" transform="translate(69.74000000000001,0)" style="font-family: 'Open Sans', verdana, arial, sans-serif; font-size: 10px; fill: rgb(0, 0, 0); fill-opacity: 1; white-space: pre; opacity: 1;">22</text></g><g class="xtick"><text text-anchor="middle" x="0" y="227" transform="translate(98.26,0)" style="font-family: 'Open Sans', verdana, arial, sans-serif; font-size: 10px; fill: rgb(0, 0, 0); fill-opacity: 1; white-space: pre; opacity: 1;">33</text></g><g class="xtick"><text text-anchor="middle" x="0" y="227" transform="translate(126.78,0)" style="font-family: 'Open Sans', verdana, arial, sans-serif; font-size: 10px; fill: rgb(0, 0, 0); fill-opacity: 1; white-space: pre; opacity: 1;">44</text></g></g><g class="yaxislayer-above"><g class="ytick"><text text-anchor="end" x="32" y="3.5" transform="translate(0,216)" style="font-family: 'Open Sans', verdana, arial, sans-serif; font-size: 10px; fill: rgb(0, 0, 0); fill-opacity: 1; white-space: pre; opacity: 1;">0</text></g><g class="ytick"><text text-anchor="end" x="32" y="3.5" style="font-family: 'Open Sans', verdana, arial, sans-serif; font-size: 10px; fill: rgb(0, 0, 0); fill-opacity: 1; white-space: pre; opacity: 1;" transform="translate(0,193.29)">2</text></g><g class="ytick"><text text-anchor="end" x="32" y="3.5" style="font-family: 'Open Sans', verdana, arial, sans-serif; font-size: 10px; fill: rgb(0, 0, 0); fill-opacity: 1; white-space: pre; opacity: 1;" transform="translate(0,170.58)">4</text></g><g class="ytick"><text text-anchor="end" x="32" y="3.5" style="font-family: 'Open Sans', verdana, arial, sans-serif; font-size: 10px; fill: rgb(0, 0, 0); fill-opacity: 1; white-space: pre; opacity: 1;" transform="translate(0,147.88)">6</text></g><g class="ytick"><text text-anchor="end" x="32" y="3.5" style="font-family: 'Open Sans', verdana, arial, sans-serif; font-size: 10px; fill: rgb(0, 0, 0); fill-opacity: 1; white-space: pre; opacity: 1;" transform="translate(0,125.17)">8</text></g><g class="ytick"><text text-anchor="end" x="32" y="3.5" style="font-family: 'Open Sans', verdana, arial, sans-serif; font-size: 10px; fill: rgb(0, 0, 0); fill-opacity: 1; white-space: pre; opacity: 1;" transform="translate(0,102.46)">10</text></g><g class="ytick"><text text-anchor="end" x="32" y="3.5" style="font-family: 'Open Sans', verdana, arial, sans-serif; font-size: 10px; fill: rgb(0, 0, 0); fill-opacity: 1; white-space: pre; opacity: 1;" transform="translate(0,79.75)">12</text></g><g class="ytick"><text text-anchor="end" x="32" y="3.5" style="font-family: 'Open Sans', verdana, arial, sans-serif; font-size: 10px; fill: rgb(0, 0, 0); fill-opacity: 1; white-space: pre; opacity: 1;" transform="translate(0,57.04)">14</text></g><g class="ytick"><text text-anchor="end" x="32" y="3.5" style="font-family: 'Open Sans', verdana, arial, sans-serif; font-size: 10px; fill: rgb(0, 0, 0); fill-opacity: 1; white-space: pre; opacity: 1;" transform="translate(0,34.33)">16</text></g></g><g class="overaxes-above"/></g></g><g class="polarlayer"/><g class="smithlayer"/><g class="ternarylayer"/><g class="geolayer"/><g class="funnelarealayer"/><g class="pielayer"/><g class="iciclelayer"/><g class="treemaplayer"/><g class="sunburstlayer"/><g class="glimages"/><defs id="topdefs-465ba1"><g class="clips"/><clipPath id="legend465ba1"><rect width="51" height="80" x="0" y="0"/></clipPath></defs><g class="layer-above"><g class="imagelayer"/><g class="shapelayer"/></g><g class="infolayer"><g class="legend" pointer-events="all" transform="translate(137.04000000000002,20)"><rect class="bg" shape-rendering="crispEdges" width="51" height="80" x="0" y="0" style="stroke: rgb(68, 68, 68); stroke-opacity: 1; fill: rgb(255, 255, 255); fill-opacity: 1; stroke-width: 0px;"/><g class="scrollbox" transform="" clip-path="url(#legend465ba1)"><text class="legendtitletext" text-anchor="start" x="2" y="13" style="font-family: 'Open Sans', verdana, arial, sans-serif; font-size: 10px; fill: rgb(0, 0, 0); fill-opacity: 1; white-space: pre;">Condition</text><g class="groups" transform=""><g class="traces" transform="translate(0,27.5)" style="opacity: 1;"><text class="legendtext" text-anchor="start" x="40" y="3.9" style="font-family: 'Open Sans', verdana, arial, sans-serif; font-size: 10px; fill: rgb(0, 0, 0); fill-opacity: 1; white-space: pre;">2</text><g class="layers" style="opacity: 0.8;"><g class="legendfill"/><g class="legendlines"><path class="js-line" d="M5,0h30" style="fill: none; stroke: rgb(164, 49, 160); stroke-opacity: 1; stroke-width: 1.5px;"/></g><g class="legendsymbols"><g class="legendpoints"><path class="scatterpts" transform="translate(20,0)" d="M2.5,0A2.5,2.5 0 1,1 0,-2.5A2.5,2.5 0 0,1 2.5,0Z" style="opacity: 1; stroke-width: 0px; fill: rgb(164, 49, 160); fill-opacity: 1;"/></g></g></g><rect class="legendtoggle" x="0" y="-9.5" width="46" height="19" style="fill: rgb(0, 0, 0); fill-opacity: 0;"/></g></g><g class="groups" transform=""><g class="traces" transform="translate(0,46.5)" style="opacity: 1;"><text class="legendtext" text-anchor="start" x="40" y="3.9" style="font-family: 'Open Sans', verdana, arial, sans-serif; font-size: 10px; fill: rgb(0, 0, 0); fill-opacity: 1; white-space: pre;">3</text><g class="layers" style="opacity: 0.8;"><g class="legendfill"/><g class="legendlines"><path class="js-line" d="M5,0h30" style="fill: none; stroke: rgb(234, 79, 136); stroke-opacity: 1; stroke-width: 1.5px;"/></g><g class="legendsymbols"><g class="legendpoints"><path class="scatterpts" transform="translate(20,0)" d="M2.5,0A2.5,2.5 0 1,1 0,-2.5A2.5,2.5 0 0,1 2.5,0Z" style="opacity: 1; stroke-width: 0px; fill: rgb(234, 79, 136); fill-opacity: 1;"/></g></g></g><rect class="legendtoggle" x="0" y="-9.5" width="46" height="19" style="fill: rgb(0, 0, 0); fill-opacity: 0;"/></g></g><g class="groups" transform=""><g class="traces" transform="translate(0,65.5)" style="opacity: 1;"><text class="legendtext" text-anchor="start" x="40" y="3.9" style="font-family: 'Open Sans', verdana, arial, sans-serif; font-size: 10px; fill: rgb(0, 0, 0); fill-opacity: 1; white-space: pre;">4</text><g class="layers" style="opacity: 0.8;"><g class="legendfill"/><g class="legendlines"><path class="js-line" d="M5,0h30" style="fill: none; stroke: rgb(248, 145, 120); stroke-opacity: 1; stroke-width: 1.5px;"/></g><g class="legendsymbols"><g class="legendpoints"><path class="scatterpts" transform="translate(20,0)" d="M2.5,0A2.5,2.5 0 1,1 0,-2.5A2.5,2.5 0 0,1 2.5,0Z" style="opacity: 1; stroke-width: 0px; fill: rgb(248, 145, 120); fill-opacity: 1;"/></g></g></g><rect class="legendtoggle" x="0" y="-9.5" width="46" height="19" style="fill: rgb(0, 0, 0); fill-opacity: 0;"/></g></g></g><rect class="scrollbar" rx="20" ry="3" width="0" height="0" x="0" y="0" style="fill: rgb(128, 139, 164); fill-opacity: 1;"/></g><g class="g-gtitle"/><g class="g-xtitle" transform="translate(0,4.599999999999994)"><text class="xtitle" x="84" y="238.4" text-anchor="middle" style="font-family: 'Open Sans', verdana, arial, sans-serif; font-size: 12px; fill: rgb(0, 0, 0); opacity: 1; font-weight: normal; white-space: pre;">Transfer</text></g><g class="g-ytitle" transform="translate(0.837890625,0)"><text class="ytitle" transform="rotate(-90,12.162500000000001,118)" x="12.162500000000001" y="118" text-anchor="middle" style="font-family: 'Open Sans', verdana, arial, sans-serif; font-size: 12px; fill: rgb(0, 0, 0); opacity: 1; font-weight: normal; white-space: pre;">Total alllele frequency</text></g></g></svg>