<svg class="main-svg" xmlns="http://www.w3.org/2000/svg" xmlns:xlink="http://www.w3.org/1999/xlink" width="350" height="300" style="" viewBox="0 0 350 300"><rect x="0" y="0" width="350" height="300" style="fill: rgb(255, 255, 255); fill-opacity: 1;"/><defs id="defs-9af9d6"><g class="clips"><clipPath id="clip9af9d6xyplot" class="plotclip"><rect width="236" height="232"/></clipPath><clipPath class="axesclip" id="clip9af9d6x"><rect x="46" y="0" width="236" height="300"/></clipPath><clipPath class="axesclip" id="clip9af9d6y"><rect x="0" y="20" width="350" height="232"/></clipPath><clipPath class="axesclip" id="clip9af9d6xy"><rect x="46" y="20" width="236" height="232"/></clipPath></g><g class="gradients"/><g class="patterns"/></defs><g class="bglayer"><rect class="bg" x="46" y="20" width="236" height="232" style="fill: rgb(229, 236, 246); fill-opacity: 1; stroke-width: 0;"/></g><g class="layer-below"><g class="imagelayer"/><g class="shapelayer"/></g><g class="cartesianlayer"><g class="subplot xy"><g class="layer-subplot"><g class="shapelayer"/><g class="imagelayer"/></g><g class="minor-gridlayer"><g class="x"/><g class="y"/></g><g class="gridlayer"><g class="x"/><g class="y"><path class="ygrid crisp" transform="translate(0,216.45)" d="M46,0h236" style="stroke: rgb(255, 255, 255); stroke-opacity: 1; stroke-width: 1px;"/><path class="ygrid crisp" transform="translate(0,180.9)" d="M46,0h236" style="stroke: rgb(255, 255, 255); stroke-opacity: 1; stroke-width: 1px;"/><path class="ygrid crisp" transform="translate(0,145.35)" d="M46,0h236" style="stroke: rgb(255, 255, 255); stroke-opacity: 1; stroke-width: 1px;"/><path class="ygrid crisp" transform="translate(0,109.81)" d="M46,0h236" style="stroke: rgb(255, 255, 255); stroke-opacity: 1; stroke-width: 1px;"/><path class="ygrid crisp" transform="translate(0,74.25999999999999)" d="M46,0h236" style="stroke: rgb(255, 255, 255); stroke-opacity: 1; stroke-width: 1px;"/><path class="ygrid crisp" transform="translate(0,38.71)" d="M46,0h236" style="stroke: rgb(255, 255, 255); stroke-opacity: 1; stroke-width: 1px;"/></g></g><g class="zerolinelayer"><path class="yzl zl crisp" transform="translate(0,252)" d="M46,0h236" style="stroke: rgb(255, 255, 255); stroke-opacity: 1; stroke-width: 2px;"/></g><path class="xlines-below"/><path class="ylines-below"/><g class="overlines-below"/><g class="xaxislayer-below"/><g class="yaxislayer-below"/><g class="overaxes-below"/><g class="plot" transform="translate(46,20)" clip-path="url(#clip9af9d6xyplot)"><g class="boxlayer mlayer"><g class="trace boxes" style="opacity: 1;"><path class="box" d="M10.92,175.12H20.55M10.92,189.34H20.55V89.81H10.92ZM15.73,189.34V189.34M15.73,89.81V75.59M13.32,189.34H18.14M13.32,75.59H18.14" style="vector-effect: non-scaling-stroke; stroke-width: 0.5px; stroke: rgb(164, 49, 160); stroke-opacity: 1; fill: rgb(164, 49, 160); fill-opacity: 0.5;"/><path class="box" d="M69.91,168.01H79.55M69.91,175.12H79.55V164.46H69.91ZM74.73,175.12V175.12M74.73,164.46V160.9M72.32,175.12H77.14M72.32,160.9H77.14" style="vector-effect: non-scaling-stroke; stroke-width: 0.5px; stroke: rgb(164, 49, 160); stroke-opacity: 1; fill: rgb(164, 49, 160); fill-opacity: 0.5;"/><path class="box" d="M128.92,168.01H138.55M128.92,175.12H138.55V128.91H128.92ZM133.73,175.12V175.12M133.73,128.91V118.25M131.32,175.12H136.14M131.32,118.25H136.14" style="vector-effect: non-scaling-stroke; stroke-width: 0.5px; stroke: rgb(164, 49, 160); stroke-opacity: 1; fill: rgb(164, 49, 160); fill-opacity: 0.5;"/><path class="box" d="M187.92,146.68H197.55M187.92,160.9H197.55V111.14H187.92ZM192.73,160.9V168.01M192.73,111.14V89.81M190.32,168.01H195.14M190.32,89.81H195.14" style="vector-effect: non-scaling-stroke; stroke-width: 0.5px; stroke: rgb(164, 49, 160); stroke-opacity: 1; fill: rgb(164, 49, 160); fill-opacity: 0.5;"/><g class="points"><path class="point" transform="translate(18.23,189.34)" d="M1.5,0A1.5,1.5 0 1,1 0,-1.5A1.5,1.5 0 0,1 1.5,0Z" style="opacity: 1; stroke-width: 0px; fill: rgb(164, 49, 160); fill-opacity: 1;"/><path class="point" transform="translate(12.66,189.34)" d="M1.5,0A1.5,1.5 0 1,1 0,-1.5A1.5,1.5 0 0,1 1.5,0Z" style="opacity: 1; stroke-width: 0px; fill: rgb(164, 49, 160); fill-opacity: 1;"/><path class="point" transform="translate(19.47,175.12)" d="M1.5,0A1.5,1.5 0 1,1 0,-1.5A1.5,1.5 0 0,1 1.5,0Z" style="opacity: 1; stroke-width: 0px; fill: rgb(164, 49, 160); fill-opacity: 1;"/><path class="point" transform="translate(11.66,104.03)" d="M1.5,0A1.5,1.5 0 1,1 0,-1.5A1.5,1.5 0 0,1 1.5,0Z" style="opacity: 1; stroke-width: 0px; fill: rgb(164, 49, 160); fill-opacity: 1;"/><path class="point" transform="translate(14.55,75.59)" d="M1.5,0A1.5,1.5 0 1,1 0,-1.5A1.5,1.5 0 0,1 1.5,0Z" style="opacity: 1; stroke-width: 0px; fill: rgb(164, 49, 160); fill-opacity: 1;"/></g><g class="points"><path class="point" transform="translate(77.26,175.12)" d="M1.5,0A1.5,1.5 0 1,1 0,-1.5A1.5,1.5 0 0,1 1.5,0Z" style="opacity: 1; stroke-width: 0px; fill: rgb(164, 49, 160); fill-opacity: 1;"/><path class="point" transform="translate(74.55,175.12)" d="M1.5,0A1.5,1.5 0 1,1 0,-1.5A1.5,1.5 0 0,1 1.5,0Z" style="opacity: 1; stroke-width: 0px; fill: rgb(164, 49, 160); fill-opacity: 1;"/><path class="point" transform="translate(76.13,168.01)" d="M1.5,0A1.5,1.5 0 1,1 0,-1.5A1.5,1.5 0 0,1 1.5,0Z" style="opacity: 1; stroke-width: 0px; fill: rgb(164, 49, 160); fill-opacity: 1;"/><path class="point" transform="translate(73.2,168.01)" d="M1.5,0A1.5,1.5 0 1,1 0,-1.5A1.5,1.5 0 0,1 1.5,0Z" style="opacity: 1; stroke-width: 0px; fill: rgb(164, 49, 160); fill-opacity: 1;"/><path class="point" transform="translate(71.2,160.9)" d="M1.5,0A1.5,1.5 0 1,1 0,-1.5A1.5,1.5 0 0,1 1.5,0Z" style="opacity: 1; stroke-width: 0px; fill: rgb(164, 49, 160); fill-opacity: 1;"/></g><g class="points"><path class="point" transform="translate(135.02,175.12)" d="M1.5,0A1.5,1.5 0 1,1 0,-1.5A1.5,1.5 0 0,1 1.5,0Z" style="opacity: 1; stroke-width: 0px; fill: rgb(164, 49, 160); fill-opacity: 1;"/><path class="point" transform="translate(132.15,175.12)" d="M1.5,0A1.5,1.5 0 1,1 0,-1.5A1.5,1.5 0 0,1 1.5,0Z" style="opacity: 1; stroke-width: 0px; fill: rgb(164, 49, 160); fill-opacity: 1;"/><path class="point" transform="translate(136.79,168.01)" d="M1.5,0A1.5,1.5 0 1,1 0,-1.5A1.5,1.5 0 0,1 1.5,0Z" style="opacity: 1; stroke-width: 0px; fill: rgb(164, 49, 160); fill-opacity: 1;"/><path class="point" transform="translate(129.04,139.57)" d="M1.5,0A1.5,1.5 0 1,1 0,-1.5A1.5,1.5 0 0,1 1.5,0Z" style="opacity: 1; stroke-width: 0px; fill: rgb(164, 49, 160); fill-opacity: 1;"/><path class="point" transform="translate(130.95,118.25)" d="M1.5,0A1.5,1.5 0 1,1 0,-1.5A1.5,1.5 0 0,1 1.5,0Z" style="opacity: 1; stroke-width: 0px; fill: rgb(164, 49, 160); fill-opacity: 1;"/></g><g class="points"><path class="point" transform="translate(197,168.01)" d="M1.5,0A1.5,1.5 0 1,1 0,-1.5A1.5,1.5 0 0,1 1.5,0Z" style="opacity: 1; stroke-width: 0px; fill: rgb(164, 49, 160); fill-opacity: 1;"/><path class="point" transform="translate(191.53,153.79)" d="M1.5,0A1.5,1.5 0 1,1 0,-1.5A1.5,1.5 0 0,1 1.5,0Z" style="opacity: 1; stroke-width: 0px; fill: rgb(164, 49, 160); fill-opacity: 1;"/><path class="point" transform="translate(188.6,146.68)" d="M1.5,0A1.5,1.5 0 1,1 0,-1.5A1.5,1.5 0 0,1 1.5,0Z" style="opacity: 1; stroke-width: 0px; fill: rgb(164, 49, 160); fill-opacity: 1;"/><path class="point" transform="translate(191.14,132.46)" d="M1.5,0A1.5,1.5 0 1,1 0,-1.5A1.5,1.5 0 0,1 1.5,0Z" style="opacity: 1; stroke-width: 0px; fill: rgb(164, 49, 160); fill-opacity: 1;"/><path class="point" transform="translate(192.63,89.81)" d="M1.5,0A1.5,1.5 0 1,1 0,-1.5A1.5,1.5 0 0,1 1.5,0Z" style="opacity: 1; stroke-width: 0px; fill: rgb(164, 49, 160); fill-opacity: 1;"/></g><path class="mean" d="M10.92,146.68H20.55" style="fill: none; vector-effect: non-scaling-stroke; stroke-width: 0.5; stroke-dasharray: 1px, 0.5px; stroke: rgb(164, 49, 160); stroke-opacity: 1;"/><path class="mean" d="M69.91,169.43H79.55" style="fill: none; vector-effect: non-scaling-stroke; stroke-width: 0.5; stroke-dasharray: 1px, 0.5px; stroke: rgb(164, 49, 160); stroke-opacity: 1;"/><path class="mean" d="M128.92,155.22H138.55" style="fill: none; vector-effect: non-scaling-stroke; stroke-width: 0.5; stroke-dasharray: 1px, 0.5px; stroke: rgb(164, 49, 160); stroke-opacity: 1;"/><path class="mean" d="M187.92,138.15H197.55" style="fill: none; vector-effect: non-scaling-stroke; stroke-width: 0.5; stroke-dasharray: 1px, 0.5px; stroke: rgb(164, 49, 160); stroke-opacity: 1;"/></g><g class="trace boxes" style="opacity: 1;"><path class="box" d="M24.68,154.79H34.32M24.68,168.01H34.32V153.79H24.68ZM29.5,168.01V168.01M29.5,153.79V153.79M27.09,168.01H31.91M27.09,153.79H31.91" style="vector-effect: non-scaling-stroke; stroke-width: 0.5px; stroke: rgb(234, 79, 136); stroke-opacity: 1; fill: rgb(234, 79, 136); fill-opacity: 0.5;"/><path class="box" d="M83.68,160.9H93.32M83.68,171.57H93.32V132.46H83.68ZM88.5,171.57V175.12M88.5,132.46V118.25M86.09,175.12H90.91M86.09,118.25H90.91" style="vector-effect: non-scaling-stroke; stroke-width: 0.5px; stroke: rgb(234, 79, 136); stroke-opacity: 1; fill: rgb(234, 79, 136); fill-opacity: 0.5;"/><path class="box" d="M142.68,160.9H152.32M142.68,168.01H152.32V150.24H142.68ZM147.5,168.01V175.12M147.5,150.24V146.68M145.09,175.12H149.91M145.09,146.68H149.91" style="vector-effect: non-scaling-stroke; stroke-width: 0.5px; stroke: rgb(234, 79, 136); stroke-opacity: 1; fill: rgb(234, 79, 136); fill-opacity: 0.5;"/><path class="box" d="M201.68,139.57H211.32M201.68,168.01H211.32V57.81H201.68ZM206.5,168.01V175.12M206.5,57.81V40.04M204.09,175.12H208.91M204.09,40.04H208.91" style="vector-effect: non-scaling-stroke; stroke-width: 0.5px; stroke: rgb(234, 79, 136); stroke-opacity: 1; fill: rgb(234, 79, 136); fill-opacity: 0.5;"/><g class="points"><path class="point" transform="translate(32,168.01)" d="M1.5,0A1.5,1.5 0 1,1 0,-1.5A1.5,1.5 0 0,1 1.5,0Z" style="opacity: 1; stroke-width: 0px; fill: rgb(234, 79, 136); fill-opacity: 1;"/><path class="point" transform="translate(26.43,168.01)" d="M1.5,0A1.5,1.5 0 1,1 0,-1.5A1.5,1.5 0 0,1 1.5,0Z" style="opacity: 1; stroke-width: 0px; fill: rgb(234, 79, 136); fill-opacity: 1;"/><path class="point" transform="translate(33.24,153.79)" d="M1.5,0A1.5,1.5 0 1,1 0,-1.5A1.5,1.5 0 0,1 1.5,0Z" style="opacity: 1; stroke-width: 0px; fill: rgb(234, 79, 136); fill-opacity: 1;"/><path class="point" transform="translate(25.42,153.79)" d="M1.5,0A1.5,1.5 0 1,1 0,-1.5A1.5,1.5 0 0,1 1.5,0Z" style="opacity: 1; stroke-width: 0px; fill: rgb(234, 79, 136); fill-opacity: 1;"/><path class="point" transform="translate(28.31,153.79)" d="M1.5,0A1.5,1.5 0 1,1 0,-1.5A1.5,1.5 0 0,1 1.5,0Z" style="opacity: 1; stroke-width: 0px; fill: rgb(234, 79, 136); fill-opacity: 1;"/></g><g class="points"><path class="point" transform="translate(91.03,175.12)" d="M1.5,0A1.5,1.5 0 1,1 0,-1.5A1.5,1.5 0 0,1 1.5,0Z" style="opacity: 1; stroke-width: 0px; fill: rgb(234, 79, 136); fill-opacity: 1;"/><path class="point" transform="translate(88.32,168.01)" d="M1.5,0A1.5,1.5 0 1,1 0,-1.5A1.5,1.5 0 0,1 1.5,0Z" style="opacity: 1; stroke-width: 0px; fill: rgb(234, 79, 136); fill-opacity: 1;"/><path class="point" transform="translate(89.9,160.9)" d="M1.5,0A1.5,1.5 0 1,1 0,-1.5A1.5,1.5 0 0,1 1.5,0Z" style="opacity: 1; stroke-width: 0px; fill: rgb(234, 79, 136); fill-opacity: 1;"/><path class="point" transform="translate(86.96,146.68)" d="M1.5,0A1.5,1.5 0 1,1 0,-1.5A1.5,1.5 0 0,1 1.5,0Z" style="opacity: 1; stroke-width: 0px; fill: rgb(234, 79, 136); fill-opacity: 1;"/><path class="point" transform="translate(84.97,118.25)" d="M1.5,0A1.5,1.5 0 1,1 0,-1.5A1.5,1.5 0 0,1 1.5,0Z" style="opacity: 1; stroke-width: 0px; fill: rgb(234, 79, 136); fill-opacity: 1;"/></g><g class="points"><path class="point" transform="translate(148.79,175.12)" d="M1.5,0A1.5,1.5 0 1,1 0,-1.5A1.5,1.5 0 0,1 1.5,0Z" style="opacity: 1; stroke-width: 0px; fill: rgb(234, 79, 136); fill-opacity: 1;"/><path class="point" transform="translate(145.91,160.9)" d="M1.5,0A1.5,1.5 0 1,1 0,-1.5A1.5,1.5 0 0,1 1.5,0Z" style="opacity: 1; stroke-width: 0px; fill: rgb(234, 79, 136); fill-opacity: 1;"/><path class="point" transform="translate(150.55,160.9)" d="M1.5,0A1.5,1.5 0 1,1 0,-1.5A1.5,1.5 0 0,1 1.5,0Z" style="opacity: 1; stroke-width: 0px; fill: rgb(234, 79, 136); fill-opacity: 1;"/><path class="point" transform="translate(142.81,153.79)" d="M1.5,0A1.5,1.5 0 1,1 0,-1.5A1.5,1.5 0 0,1 1.5,0Z" style="opacity: 1; stroke-width: 0px; fill: rgb(234, 79, 136); fill-opacity: 1;"/><path class="point" transform="translate(144.71,146.68)" d="M1.5,0A1.5,1.5 0 1,1 0,-1.5A1.5,1.5 0 0,1 1.5,0Z" style="opacity: 1; stroke-width: 0px; fill: rgb(234, 79, 136); fill-opacity: 1;"/></g><g class="points"><path class="point" transform="translate(210.76,175.12)" d="M1.5,0A1.5,1.5 0 1,1 0,-1.5A1.5,1.5 0 0,1 1.5,0Z" style="opacity: 1; stroke-width: 0px; fill: rgb(234, 79, 136); fill-opacity: 1;"/><path class="point" transform="translate(205.29,160.9)" d="M1.5,0A1.5,1.5 0 1,1 0,-1.5A1.5,1.5 0 0,1 1.5,0Z" style="opacity: 1; stroke-width: 0px; fill: rgb(234, 79, 136); fill-opacity: 1;"/><path class="point" transform="translate(202.36,139.57)" d="M1.5,0A1.5,1.5 0 1,1 0,-1.5A1.5,1.5 0 0,1 1.5,0Z" style="opacity: 1; stroke-width: 0px; fill: rgb(234, 79, 136); fill-opacity: 1;"/><path class="point" transform="translate(204.91,75.59)" d="M1.5,0A1.5,1.5 0 1,1 0,-1.5A1.5,1.5 0 0,1 1.5,0Z" style="opacity: 1; stroke-width: 0px; fill: rgb(234, 79, 136); fill-opacity: 1;"/><path class="point" transform="translate(206.4,40.04)" d="M1.5,0A1.5,1.5 0 1,1 0,-1.5A1.5,1.5 0 0,1 1.5,0Z" style="opacity: 1; stroke-width: 0px; fill: rgb(234, 79, 136); fill-opacity: 1;"/></g><path class="mean" d="M24.68,159.48H34.32" style="fill: none; vector-effect: non-scaling-stroke; stroke-width: 0.5; stroke-dasharray: 1px, 0.5px; stroke: rgb(234, 79, 136); stroke-opacity: 1;"/><path class="mean" d="M83.68,153.79H93.32" style="fill: none; vector-effect: non-scaling-stroke; stroke-width: 0.5; stroke-dasharray: 1px, 0.5px; stroke: rgb(234, 79, 136); stroke-opacity: 1;"/><path class="mean" d="M142.68,159.48H152.32" style="fill: none; vector-effect: non-scaling-stroke; stroke-width: 0.5; stroke-dasharray: 1px, 0.5px; stroke: rgb(234, 79, 136); stroke-opacity: 1;"/><path class="mean" d="M201.68,118.25H211.32" style="fill: none; vector-effect: non-scaling-stroke; stroke-width: 0.5; stroke-dasharray: 1px, 0.5px; stroke: rgb(234, 79, 136); stroke-opacity: 1;"/></g><g class="trace boxes" style="opacity: 1;"><path class="box" d="M38.45,168.01H48.09M38.45,178.68H48.09V160.9H38.45ZM43.27,178.68V182.23M43.27,160.9V153.79M40.86,182.23H45.68M40.86,153.79H45.68" style="vector-effect: non-scaling-stroke; stroke-width: 0.5px; stroke: rgb(248, 145, 120); stroke-opacity: 1; fill: rgb(248, 145, 120); fill-opacity: 0.5;"/><path class="box" d="M97.45,146.68H107.09M97.45,168.01H107.09V139.57H97.45ZM102.27,168.01V182.23M102.27,139.57V139.57M99.86,182.23H104.68M99.86,139.57H104.68" style="vector-effect: non-scaling-stroke; stroke-width: 0.5px; stroke: rgb(248, 145, 120); stroke-opacity: 1; fill: rgb(248, 145, 120); fill-opacity: 0.5;"/><path class="box" d="M156.45,96.92H166.09M156.45,118.25H166.09V93.36H156.45ZM161.27,118.25V125.35M161.27,93.36V89.81M158.86,125.35H163.68M158.86,89.81H163.68" style="vector-effect: non-scaling-stroke; stroke-width: 0.5px; stroke: rgb(248, 145, 120); stroke-opacity: 1; fill: rgb(248, 145, 120); fill-opacity: 0.5;"/><path class="box" d="M215.45,82.7H225.09M215.45,96.92H225.09V43.59H215.45ZM220.27,96.92V111.14M220.27,43.59V11.6M217.86,111.14H222.68M217.86,11.6H222.68" style="vector-effect: non-scaling-stroke; stroke-width: 0.5px; stroke: rgb(248, 145, 120); stroke-opacity: 1; fill: rgb(248, 145, 120); fill-opacity: 0.5;"/><g class="points"><path class="point" transform="translate(45.77,182.23)" d="M1.5,0A1.5,1.5 0 1,1 0,-1.5A1.5,1.5 0 0,1 1.5,0Z" style="opacity: 1; stroke-width: 0px; fill: rgb(248, 145, 120); fill-opacity: 1;"/><path class="point" transform="translate(40.2,175.12)" d="M1.5,0A1.5,1.5 0 1,1 0,-1.5A1.5,1.5 0 0,1 1.5,0Z" style="opacity: 1; stroke-width: 0px; fill: rgb(248, 145, 120); fill-opacity: 1;"/><path class="point" transform="translate(47,168.01)" d="M1.5,0A1.5,1.5 0 1,1 0,-1.5A1.5,1.5 0 0,1 1.5,0Z" style="opacity: 1; stroke-width: 0px; fill: rgb(248, 145, 120); fill-opacity: 1;"/><path class="point" transform="translate(39.19,168.01)" d="M1.5,0A1.5,1.5 0 1,1 0,-1.5A1.5,1.5 0 0,1 1.5,0Z" style="opacity: 1; stroke-width: 0px; fill: rgb(248, 145, 120); fill-opacity: 1;"/><path class="point" transform="translate(42.08,153.79)" d="M1.5,0A1.5,1.5 0 1,1 0,-1.5A1.5,1.5 0 0,1 1.5,0Z" style="opacity: 1; stroke-width: 0px; fill: rgb(248, 145, 120); fill-opacity: 1;"/></g><g class="points"><path class="point" transform="translate(104.8,182.23)" d="M1.5,0A1.5,1.5 0 1,1 0,-1.5A1.5,1.5 0 0,1 1.5,0Z" style="opacity: 1; stroke-width: 0px; fill: rgb(248, 145, 120); fill-opacity: 1;"/><path class="point" transform="translate(102.09,153.79)" d="M1.5,0A1.5,1.5 0 1,1 0,-1.5A1.5,1.5 0 0,1 1.5,0Z" style="opacity: 1; stroke-width: 0px; fill: rgb(248, 145, 120); fill-opacity: 1;"/><path class="point" transform="translate(103.66,146.68)" d="M1.5,0A1.5,1.5 0 1,1 0,-1.5A1.5,1.5 0 0,1 1.5,0Z" style="opacity: 1; stroke-width: 0px; fill: rgb(248, 145, 120); fill-opacity: 1;"/><path class="point" transform="translate(100.73,139.57)" d="M1.5,0A1.5,1.5 0 1,1 0,-1.5A1.5,1.5 0 0,1 1.5,0Z" style="opacity: 1; stroke-width: 0px; fill: rgb(248, 145, 120); fill-opacity: 1;"/><path class="point" transform="translate(98.73,139.57)" d="M1.5,0A1.5,1.5 0 1,1 0,-1.5A1.5,1.5 0 0,1 1.5,0Z" style="opacity: 1; stroke-width: 0px; fill: rgb(248, 145, 120); fill-opacity: 1;"/></g><g class="points"><path class="point" transform="translate(162.55,125.35)" d="M1.5,0A1.5,1.5 0 1,1 0,-1.5A1.5,1.5 0 0,1 1.5,0Z" style="opacity: 1; stroke-width: 0px; fill: rgb(248, 145, 120); fill-opacity: 1;"/><path class="point" transform="translate(159.68,111.14)" d="M1.5,0A1.5,1.5 0 1,1 0,-1.5A1.5,1.5 0 0,1 1.5,0Z" style="opacity: 1; stroke-width: 0px; fill: rgb(248, 145, 120); fill-opacity: 1;"/><path class="point" transform="translate(164.32,96.92)" d="M1.5,0A1.5,1.5 0 1,1 0,-1.5A1.5,1.5 0 0,1 1.5,0Z" style="opacity: 1; stroke-width: 0px; fill: rgb(248, 145, 120); fill-opacity: 1;"/><path class="point" transform="translate(156.58,96.92)" d="M1.5,0A1.5,1.5 0 1,1 0,-1.5A1.5,1.5 0 0,1 1.5,0Z" style="opacity: 1; stroke-width: 0px; fill: rgb(248, 145, 120); fill-opacity: 1;"/><path class="point" transform="translate(158.48,89.81)" d="M1.5,0A1.5,1.5 0 1,1 0,-1.5A1.5,1.5 0 0,1 1.5,0Z" style="opacity: 1; stroke-width: 0px; fill: rgb(248, 145, 120); fill-opacity: 1;"/></g><g class="points"><path class="point" transform="translate(224.53,111.14)" d="M1.5,0A1.5,1.5 0 1,1 0,-1.5A1.5,1.5 0 0,1 1.5,0Z" style="opacity: 1; stroke-width: 0px; fill: rgb(248, 145, 120); fill-opacity: 1;"/><path class="point" transform="translate(219.06,82.7)" d="M1.5,0A1.5,1.5 0 1,1 0,-1.5A1.5,1.5 0 0,1 1.5,0Z" style="opacity: 1; stroke-width: 0px; fill: rgb(248, 145, 120); fill-opacity: 1;"/><path class="point" transform="translate(216.13,82.7)" d="M1.5,0A1.5,1.5 0 1,1 0,-1.5A1.5,1.5 0 0,1 1.5,0Z" style="opacity: 1; stroke-width: 0px; fill: rgb(248, 145, 120); fill-opacity: 1;"/><path class="point" transform="translate(218.67,75.59)" d="M1.5,0A1.5,1.5 0 1,1 0,-1.5A1.5,1.5 0 0,1 1.5,0Z" style="opacity: 1; stroke-width: 0px; fill: rgb(248, 145, 120); fill-opacity: 1;"/><path class="point" transform="translate(220.16,11.6)" d="M1.5,0A1.5,1.5 0 1,1 0,-1.5A1.5,1.5 0 0,1 1.5,0Z" style="opacity: 1; stroke-width: 0px; fill: rgb(248, 145, 120); fill-opacity: 1;"/></g><path class="mean" d="M38.45,169.43H48.09" style="fill: none; vector-effect: non-scaling-stroke; stroke-width: 0.5; stroke-dasharray: 1px, 0.5px; stroke: rgb(248, 145, 120); stroke-opacity: 1;"/><path class="mean" d="M97.45,152.37H107.09" style="fill: none; vector-effect: non-scaling-stroke; stroke-width: 0.5; stroke-dasharray: 1px, 0.5px; stroke: rgb(248, 145, 120); stroke-opacity: 1;"/><path class="mean" d="M156.45,104.03H166.09" style="fill: none; vector-effect: non-scaling-stroke; stroke-width: 0.5; stroke-dasharray: 1px, 0.5px; stroke: rgb(248, 145, 120); stroke-opacity: 1;"/><path class="mean" d="M215.45,72.74H225.09" style="fill: none; vector-effect: non-scaling-stroke; stroke-width: 0.5; stroke-dasharray: 1px, 0.5px; stroke: rgb(248, 145, 120); stroke-opacity: 1;"/></g></g></g><g class="overplot"/><path class="xlines-above crisp" d="M0,0" style="fill: none;"/><path class="ylines-above crisp" d="M0,0" style="fill: none;"/><g class="overlines-above"/><g class="xaxislayer-above"><g class="xtick"><text text-anchor="middle" x="0" y="263" transform="translate(75.5,0)" style="font-family: 'Open Sans', verdana, arial, sans-serif; font-size: 10px; fill: rgb(0, 0, 0); fill-opacity: 1; white-space: pre; opacity: 1;">T11</text></g><g class="xtick"><text text-anchor="middle" x="0" y="263" transform="translate(134.5,0)" style="font-family: 'Open Sans', verdana, arial, sans-serif; font-size: 10px; fill: rgb(0, 0, 0); fill-opacity: 1; white-space: pre; opacity: 1;">T22</text></g><g class="xtick"><text text-anchor="middle" x="0" y="263" transform="translate(193.5,0)" style="font-family: 'Open Sans', verdana, arial, sans-serif; font-size: 10px; fill: rgb(0, 0, 0); fill-opacity: 1; white-space: pre; opacity: 1;">T33</text></g><g class="xtick"><text text-anchor="middle" x="0" y="263" transform="translate(252.5,0)" style="font-family: 'Open Sans', verdana, arial, sans-serif; font-size: 10px; fill: rgb(0, 0, 0); fill-opacity: 1; white-space: pre; opacity: 1;">T44</text></g></g><g class="yaxislayer-above"><g class="ytick"><text text-anchor="end" x="45" y="3.5" transform="translate(0,252)" style="font-family: 'Open Sans', verdana, arial, sans-serif; font-size: 10px; fill: rgb(0, 0, 0); fill-opacity: 1; white-space: pre; opacity: 1;">0</text></g><g class="ytick"><text text-anchor="end" x="45" y="3.5" style="font-family: 'Open Sans', verdana, arial, sans-serif; font-size: 10px; fill: rgb(0, 0, 0); fill-opacity: 1; white-space: pre; opacity: 1;" transform="translate(0,216.45)">5</text></g><g class="ytick"><text text-anchor="end" x="45" y="3.5" style="font-family: 'Open Sans', verdana, arial, sans-serif; font-size: 10px; fill: rgb(0, 0, 0); fill-opacity: 1; white-space: pre; opacity: 1;" transform="translate(0,180.9)">10</text></g><g class="ytick"><text text-anchor="end" x="45" y="3.5" style="font-family: 'Open Sans', verdana, arial, sans-serif; font-size: 10px; fill: rgb(0, 0, 0); fill-opacity: 1; white-space: pre; opacity: 1;" transform="translate(0,145.35)">15</text></g><g class="ytick"><text text-anchor="end" x="45" y="3.5" style="font-family: 'Open Sans', verdana, arial, sans-serif; font-size: 10px; fill: rgb(0, 0, 0); fill-opacity: 1; white-space: pre; opacity: 1;" transform="translate(0,109.81)">20</text></g><g class="ytick"><text text-anchor="end" x="45" y="3.5" style="font-family: 'Open Sans', verdana, arial, sans-serif; font-size: 10px; fill: rgb(0, 0, 0); fill-opacity: 1; white-space: pre; opacity: 1;" transform="translate(0,74.25999999999999)">25</text></g><g class="ytick"><text text-anchor="end" x="45" y="3.5" style="font-family: 'Open Sans', verdana, arial, sans-serif; font-size: 10px; fill: rgb(0, 0, 0); fill-opacity: 1; white-space: pre; opacity: 1;" transform="translate(0,38.71)">30</text></g></g><g class="overaxes-above"/></g></g><g class="polarlayer"/><g class="smithlayer"/><g class="ternarylayer"/><g class="geolayer"/><g class="funnelarealayer"/><g class="pielayer"/><g class="iciclelayer"/><g class="treemaplayer"/><g class="sunburstlayer"/><g class="glimages"/><defs id="topdefs-9af9d6"><g class="clips"/><clipPath id="legend9af9d6"><rect width="51" height="80" x="0" y="0"/></clipPath></defs><g class="layer-above"><g class="imagelayer"/><g class="shapelayer"/></g><g class="infolayer"><g class="legend" pointer-events="all" transform="translate(286.72,20)"><rect class="bg" shape-rendering="crispEdges" width="51" height="80" x="0" y="0" style="stroke: rgb(68, 68, 68); stroke-opacity: 1; fill: rgb(255, 255, 255); fill-opacity: 1; stroke-width: 0px;"/><g class="scrollbox" transform="" clip-path="url(#legend9af9d6)"><text class="legendtitletext" text-anchor="start" x="2" y="13" style="font-family: 'Open Sans', verdana, arial, sans-serif; font-size: 10px; fill: rgb(0, 0, 0); fill-opacity: 1; white-space: pre;">Condition</text><g class="groups" transform=""><g class="traces" transform="translate(0,27.5)" style="opacity: 1;"><text class="legendtext" text-anchor="start" x="40" y="3.9" style="font-family: 'Open Sans', verdana, arial, sans-serif; font-size: 10px; fill: rgb(0, 0, 0); fill-opacity: 1; white-space: pre;">2</text><g class="layers" style="opacity: 1;"><g class="legendfill"/><g class="legendlines"/><g class="legendsymbols"><g class="legendpoints"><path class="legendbox" d="M6,6H-6V-6H6Z" transform="translate(20,0)" style="stroke-width: 0.5px; fill: rgb(164, 49, 160); fill-opacity: 0.5; stroke: rgb(164, 49, 160); stroke-opacity: 1;"/></g></g></g><rect class="legendtoggle" x="0" y="-9.5" width="46" height="19" style="fill: rgb(0, 0, 0); fill-opacity: 0;"/></g></g><g class="groups" transform=""><g class="traces" transform="translate(0,46.5)" style="opacity: 1;"><text class="legendtext" text-anchor="start" x="40" y="3.9" style="font-family: 'Open Sans', verdana, arial, sans-serif; font-size: 10px; fill: rgb(0, 0, 0); fill-opacity: 1; white-space: pre;">3</text><g class="layers" style="opacity: 1;"><g class="legendfill"/><g class="legendlines"/><g class="legendsymbols"><g class="legendpoints"><path class="legendbox" d="M6,6H-6V-6H6Z" transform="translate(20,0)" style="stroke-width: 0.5px; fill: rgb(234, 79, 136); fill-opacity: 0.5; stroke: rgb(234, 79, 136); stroke-opacity: 1;"/></g></g></g><rect class="legendtoggle" x="0" y="-9.5" width="46" height="19" style="fill: rgb(0, 0, 0); fill-opacity: 0;"/></g></g><g class="groups" transform=""><g class="traces" transform="translate(0,65.5)" style="opacity: 1;"><text class="legendtext" text-anchor="start" x="40" y="3.9" style="font-family: 'Open Sans', verdana, arial, sans-serif; font-size: 10px; fill: rgb(0, 0, 0); fill-opacity: 1; white-space: pre;">4</text><g class="layers" style="opacity: 1;"><g class="legendfill"/><g class="legendlines"/><g class="legendsymbols"><g class="legendpoints"><path class="legendbox" d="M6,6H-6V-6H6Z" transform="translate(20,0)" style="stroke-width: 0.5px; fill: rgb(248, 145, 120); fill-opacity: 0.5; stroke: rgb(248, 145, 120); stroke-opacity: 1;"/></g></g></g><rect class="legendtoggle" x="0" y="-9.5" width="46" height="19" style="fill: rgb(0, 0, 0); fill-opacity: 0;"/></g></g></g><rect class="scrollbar" rx="20" ry="3" width="0" height="0" x="0" y="0" style="fill: rgb(128, 139, 164); fill-opacity: 1;"/></g><g class="g-gtitle"/><g class="g-xtitle"><text class="xtitle" x="164" y="288" text-anchor="middle" style="font-family: 'Open Sans', verdana, arial, sans-serif; font-size: 10px; fill: rgb(0, 0, 0); opacity: 1; font-weight: normal; white-space: pre;">Time-point</text></g><g class="g-ytitle"><text class="ytitle" transform="rotate(-90,11.5625,136)" x="11.5625" y="136" text-anchor="middle" style="font-family: 'Open Sans', verdana, arial, sans-serif; font-size: 10px; fill: rgb(0, 0, 0); opacity: 1; font-weight: normal; white-space: pre;">Number of variants</text></g></g></svg>