<svg class="main-svg" xmlns="http://www.w3.org/2000/svg" xmlns:xlink="http://www.w3.org/1999/xlink" width="350" height="300" style="" viewBox="0 0 350 300"><rect x="0" y="0" width="350" height="300" style="fill: rgb(255, 255, 255); fill-opacity: 1;"/><defs id="defs-21c0fa"><g class="clips"><clipPath id="clip21c0faxyplot" class="plotclip"><rect width="190" height="160"/></clipPath><clipPath class="axesclip" id="clip21c0fax"><rect x="80" y="0" width="190" height="300"/></clipPath><clipPath class="axesclip" id="clip21c0fay"><rect x="0" y="60" width="350" height="160"/></clipPath><clipPath class="axesclip" id="clip21c0faxy"><rect x="80" y="60" width="190" height="160"/></clipPath></g><g class="gradients"/><g class="patterns"/></defs><g class="bglayer"><rect class="bg" x="80" y="60" width="190" height="160" style="fill: rgb(229, 236, 246); fill-opacity: 1; stroke-width: 0;"/></g><g class="layer-below"><g class="imagelayer"/><g class="shapelayer"/></g><g class="cartesianlayer"><g class="subplot xy"><g class="layer-subplot"><g class="shapelayer"/><g class="imagelayer"/></g><g class="minor-gridlayer"><g class="x"/><g class="y"/></g><g class="gridlayer"><g class="x"/><g class="y"><path class="ygrid crisp" transform="translate(0,176.57)" d="M80,0h190" style="stroke: rgb(255, 255, 255); stroke-opacity: 1; stroke-width: 1px;"/><path class="ygrid crisp" transform="translate(0,133.14)" d="M80,0h190" style="stroke: rgb(255, 255, 255); stroke-opacity: 1; stroke-width: 1px;"/><path class="ygrid crisp" transform="translate(0,89.71000000000001)" d="M80,0h190" style="stroke: rgb(255, 255, 255); stroke-opacity: 1; stroke-width: 1px;"/></g></g><g class="zerolinelayer"><path class="yzl zl crisp" transform="translate(0,220)" d="M80,0h190" style="stroke: rgb(255, 255, 255); stroke-opacity: 1; stroke-width: 2px;"/></g><path class="xlines-below"/><path class="ylines-below"/><g class="overlines-below"/><g class="xaxislayer-below"/><g class="yaxislayer-below"/><g class="overaxes-below"/><g class="plot" transform="translate(80,60)" clip-path="url(#clip21c0faxyplot)"><g class="boxlayer mlayer"><g class="trace boxes" style="opacity: 1;"><path class="box" d="M8.23,119.91H17.1M8.23,120.91H17.1V116.57H8.23ZM12.67,120.91V120.91M12.67,116.57V116.57M10.45,120.91H14.88M10.45,116.57H14.88" style="vector-effect: non-scaling-stroke; stroke-width: 0.5px; stroke: rgb(75, 41, 145); stroke-opacity: 1; fill: rgb(75, 41, 145); fill-opacity: 0.5;"/><g class="points"><path class="point" transform="translate(14.97,120.91)" d="M1.5,0A1.5,1.5 0 1,1 0,-1.5A1.5,1.5 0 0,1 1.5,0Z" style="opacity: 1; stroke-width: 0px; fill: rgb(75, 41, 145); fill-opacity: 1;"/><path class="point" transform="translate(9.84,120.91)" d="M1.5,0A1.5,1.5 0 1,1 0,-1.5A1.5,1.5 0 0,1 1.5,0Z" style="opacity: 1; stroke-width: 0px; fill: rgb(75, 41, 145); fill-opacity: 1;"/><path class="point" transform="translate(16.1,116.57)" d="M1.5,0A1.5,1.5 0 1,1 0,-1.5A1.5,1.5 0 0,1 1.5,0Z" style="opacity: 1; stroke-width: 0px; fill: rgb(75, 41, 145); fill-opacity: 1;"/></g><path class="mean" d="M8.23,119.47H17.1" style="fill: none; vector-effect: non-scaling-stroke; stroke-width: 0.5; stroke-dasharray: 1px, 0.5px; stroke: rgb(75, 41, 145); stroke-opacity: 1;"/></g><g class="trace boxes" style="opacity: 1;"><path class="box" d="M55.73,86.17H64.6M55.73,103.54H64.6V77.49H55.73ZM60.17,103.54V112.23M60.17,77.49V77.49M57.95,112.23H62.38M57.95,77.49H62.38" style="vector-effect: non-scaling-stroke; stroke-width: 0.5px; stroke: rgb(192, 54, 157); stroke-opacity: 1; fill: rgb(192, 54, 157); fill-opacity: 0.5;"/><g class="points"><path class="point" transform="translate(62.47,112.23)" d="M1.5,0A1.5,1.5 0 1,1 0,-1.5A1.5,1.5 0 0,1 1.5,0Z" style="opacity: 1; stroke-width: 0px; fill: rgb(192, 54, 157); fill-opacity: 1;"/><path class="point" transform="translate(57.34,94.86)" d="M1.5,0A1.5,1.5 0 1,1 0,-1.5A1.5,1.5 0 0,1 1.5,0Z" style="opacity: 1; stroke-width: 0px; fill: rgb(192, 54, 157); fill-opacity: 1;"/><path class="point" transform="translate(63.6,86.17)" d="M1.5,0A1.5,1.5 0 1,1 0,-1.5A1.5,1.5 0 0,1 1.5,0Z" style="opacity: 1; stroke-width: 0px; fill: rgb(192, 54, 157); fill-opacity: 1;"/><path class="point" transform="translate(56.42,77.49)" d="M1.5,0A1.5,1.5 0 1,1 0,-1.5A1.5,1.5 0 0,1 1.5,0Z" style="opacity: 1; stroke-width: 0px; fill: rgb(192, 54, 157); fill-opacity: 1;"/><path class="point" transform="translate(59.07,77.49)" d="M1.5,0A1.5,1.5 0 1,1 0,-1.5A1.5,1.5 0 0,1 1.5,0Z" style="opacity: 1; stroke-width: 0px; fill: rgb(192, 54, 157); fill-opacity: 1;"/></g><path class="mean" d="M55.73,89.65H64.6" style="fill: none; vector-effect: non-scaling-stroke; stroke-width: 0.5; stroke-dasharray: 1px, 0.5px; stroke: rgb(192, 54, 157); stroke-opacity: 1;"/></g><g class="trace boxes" style="opacity: 1;"><path class="box" d="M19.32,120.91H28.18M19.32,127.43H28.18V116.57H19.32ZM23.75,127.43V129.6M23.75,116.57V112.23M21.53,129.6H25.97M21.53,112.23H25.97" style="vector-effect: non-scaling-stroke; stroke-width: 0.5px; stroke: rgb(250, 120, 118); stroke-opacity: 1; fill: rgb(250, 120, 118); fill-opacity: 0.5;"/><path class="box" d="M66.82,99.2H75.68M66.82,105.71H75.68V90.51H66.82ZM71.25,105.71V107.89M71.25,90.51V86.17M69.03,107.89H73.47M69.03,86.17H73.47" style="vector-effect: non-scaling-stroke; stroke-width: 0.5px; stroke: rgb(250, 120, 118); stroke-opacity: 1; fill: rgb(250, 120, 118); fill-opacity: 0.5;"/><path class="box" d="M114.32,86.17H123.18M114.32,94.86H123.18V77.49H114.32ZM118.75,94.86V103.54M118.75,77.49V73.14M116.53,103.54H120.97M116.53,73.14H120.97" style="vector-effect: non-scaling-stroke; stroke-width: 0.5px; stroke: rgb(250, 120, 118); stroke-opacity: 1; fill: rgb(250, 120, 118); fill-opacity: 0.5;"/><g class="points"><path class="point" transform="translate(26.05,129.6)" d="M1.5,0A1.5,1.5 0 1,1 0,-1.5A1.5,1.5 0 0,1 1.5,0Z" style="opacity: 1; stroke-width: 0px; fill: rgb(250, 120, 118); fill-opacity: 1;"/><path class="point" transform="translate(20.92,125.26)" d="M1.5,0A1.5,1.5 0 1,1 0,-1.5A1.5,1.5 0 0,1 1.5,0Z" style="opacity: 1; stroke-width: 0px; fill: rgb(250, 120, 118); fill-opacity: 1;"/><path class="point" transform="translate(27.19,120.91)" d="M1.5,0A1.5,1.5 0 1,1 0,-1.5A1.5,1.5 0 0,1 1.5,0Z" style="opacity: 1; stroke-width: 0px; fill: rgb(250, 120, 118); fill-opacity: 1;"/><path class="point" transform="translate(20,120.91)" d="M1.5,0A1.5,1.5 0 1,1 0,-1.5A1.5,1.5 0 0,1 1.5,0Z" style="opacity: 1; stroke-width: 0px; fill: rgb(250, 120, 118); fill-opacity: 1;"/><path class="point" transform="translate(22.66,112.23)" d="M1.5,0A1.5,1.5 0 1,1 0,-1.5A1.5,1.5 0 0,1 1.5,0Z" style="opacity: 1; stroke-width: 0px; fill: rgb(250, 120, 118); fill-opacity: 1;"/></g><g class="points"><path class="point" transform="translate(73.58,107.89)" d="M1.5,0A1.5,1.5 0 1,1 0,-1.5A1.5,1.5 0 0,1 1.5,0Z" style="opacity: 1; stroke-width: 0px; fill: rgb(250, 120, 118); fill-opacity: 1;"/><path class="point" transform="translate(71.08,103.54)" d="M1.5,0A1.5,1.5 0 1,1 0,-1.5A1.5,1.5 0 0,1 1.5,0Z" style="opacity: 1; stroke-width: 0px; fill: rgb(250, 120, 118); fill-opacity: 1;"/><path class="point" transform="translate(72.54,99.2)" d="M1.5,0A1.5,1.5 0 1,1 0,-1.5A1.5,1.5 0 0,1 1.5,0Z" style="opacity: 1; stroke-width: 0px; fill: rgb(250, 120, 118); fill-opacity: 1;"/><path class="point" transform="translate(69.84,94.86)" d="M1.5,0A1.5,1.5 0 1,1 0,-1.5A1.5,1.5 0 0,1 1.5,0Z" style="opacity: 1; stroke-width: 0px; fill: rgb(250, 120, 118); fill-opacity: 1;"/><path class="point" transform="translate(68,86.17)" d="M1.5,0A1.5,1.5 0 1,1 0,-1.5A1.5,1.5 0 0,1 1.5,0Z" style="opacity: 1; stroke-width: 0px; fill: rgb(250, 120, 118); fill-opacity: 1;"/></g><g class="points"><path class="point" transform="translate(119.93,103.54)" d="M1.5,0A1.5,1.5 0 1,1 0,-1.5A1.5,1.5 0 0,1 1.5,0Z" style="opacity: 1; stroke-width: 0px; fill: rgb(250, 120, 118); fill-opacity: 1;"/><path class="point" transform="translate(117.29,86.17)" d="M1.5,0A1.5,1.5 0 1,1 0,-1.5A1.5,1.5 0 0,1 1.5,0Z" style="opacity: 1; stroke-width: 0px; fill: rgb(250, 120, 118); fill-opacity: 1;"/><path class="point" transform="translate(121.56,86.17)" d="M1.5,0A1.5,1.5 0 1,1 0,-1.5A1.5,1.5 0 0,1 1.5,0Z" style="opacity: 1; stroke-width: 0px; fill: rgb(250, 120, 118); fill-opacity: 1;"/><path class="point" transform="translate(114.43,81.83)" d="M1.5,0A1.5,1.5 0 1,1 0,-1.5A1.5,1.5 0 0,1 1.5,0Z" style="opacity: 1; stroke-width: 0px; fill: rgb(250, 120, 118); fill-opacity: 1;"/><path class="point" transform="translate(116.19,73.14)" d="M1.5,0A1.5,1.5 0 1,1 0,-1.5A1.5,1.5 0 0,1 1.5,0Z" style="opacity: 1; stroke-width: 0px; fill: rgb(250, 120, 118); fill-opacity: 1;"/></g><path class="mean" d="M19.32,121.78H28.18" style="fill: none; vector-effect: non-scaling-stroke; stroke-width: 0.5; stroke-dasharray: 1px, 0.5px; stroke: rgb(250, 120, 118); stroke-opacity: 1;"/><path class="mean" d="M66.82,98.33H75.68" style="fill: none; vector-effect: non-scaling-stroke; stroke-width: 0.5; stroke-dasharray: 1px, 0.5px; stroke: rgb(250, 120, 118); stroke-opacity: 1;"/><path class="mean" d="M114.32,86.17H123.18" style="fill: none; vector-effect: non-scaling-stroke; stroke-width: 0.5; stroke-dasharray: 1px, 0.5px; stroke: rgb(250, 120, 118); stroke-opacity: 1;"/></g><g class="trace boxes" style="opacity: 1;"><path class="box" d="M30.4,112.23H39.27M30.4,127.43H39.27V77.49H30.4ZM34.83,127.43V142.63M34.83,77.49V42.74M32.62,142.63H37.05M32.62,42.74H37.05" style="vector-effect: non-scaling-stroke; stroke-width: 0.5px; stroke: rgb(237, 217, 163); stroke-opacity: 1; fill: rgb(237, 217, 163); fill-opacity: 0.5;"/><path class="box" d="M77.9,75.31H86.77M77.9,107.89H86.77V68.8H77.9ZM82.33,107.89V112.23M82.33,68.8V60.11M80.12,112.23H84.55M80.12,60.11H84.55" style="vector-effect: non-scaling-stroke; stroke-width: 0.5px; stroke: rgb(237, 217, 163); stroke-opacity: 1; fill: rgb(237, 217, 163); fill-opacity: 0.5;"/><path class="box" d="M125.4,80.83H134.27M125.4,81.83H134.27V8H125.4ZM129.83,81.83V81.83M129.83,8V8M127.62,81.83H132.05M127.62,8H132.05" style="vector-effect: non-scaling-stroke; stroke-width: 0.5px; stroke: rgb(237, 217, 163); stroke-opacity: 1; fill: rgb(237, 217, 163); fill-opacity: 0.5;"/><path class="box" d="M172.9,105.71H181.77M172.9,123.09H181.77V97.03H172.9ZM177.33,123.09V129.6M177.33,97.03V90.51M175.12,129.6H179.55M175.12,90.51H179.55" style="vector-effect: non-scaling-stroke; stroke-width: 0.5px; stroke: rgb(237, 217, 163); stroke-opacity: 1; fill: rgb(237, 217, 163); fill-opacity: 0.5;"/><g class="points"><path class="point" transform="translate(37.13,142.63)" d="M1.5,0A1.5,1.5 0 1,1 0,-1.5A1.5,1.5 0 0,1 1.5,0Z" style="opacity: 1; stroke-width: 0px; fill: rgb(237, 217, 163); fill-opacity: 1;"/><path class="point" transform="translate(32.01,112.23)" d="M1.5,0A1.5,1.5 0 1,1 0,-1.5A1.5,1.5 0 0,1 1.5,0Z" style="opacity: 1; stroke-width: 0px; fill: rgb(237, 217, 163); fill-opacity: 1;"/><path class="point" transform="translate(38.27,112.23)" d="M1.5,0A1.5,1.5 0 1,1 0,-1.5A1.5,1.5 0 0,1 1.5,0Z" style="opacity: 1; stroke-width: 0px; fill: rgb(237, 217, 163); fill-opacity: 1;"/><path class="point" transform="translate(31.08,112.23)" d="M1.5,0A1.5,1.5 0 1,1 0,-1.5A1.5,1.5 0 0,1 1.5,0Z" style="opacity: 1; stroke-width: 0px; fill: rgb(237, 217, 163); fill-opacity: 1;"/><path class="point" transform="translate(33.74,42.74)" d="M1.5,0A1.5,1.5 0 1,1 0,-1.5A1.5,1.5 0 0,1 1.5,0Z" style="opacity: 1; stroke-width: 0px; fill: rgb(237, 217, 163); fill-opacity: 1;"/></g><g class="points"><path class="point" transform="translate(84.66,112.23)" d="M1.5,0A1.5,1.5 0 1,1 0,-1.5A1.5,1.5 0 0,1 1.5,0Z" style="opacity: 1; stroke-width: 0px; fill: rgb(237, 217, 163); fill-opacity: 1;"/><path class="point" transform="translate(82.17,107.89)" d="M1.5,0A1.5,1.5 0 1,1 0,-1.5A1.5,1.5 0 0,1 1.5,0Z" style="opacity: 1; stroke-width: 0px; fill: rgb(237, 217, 163); fill-opacity: 1;"/><path class="point" transform="translate(83.62,77.49)" d="M1.5,0A1.5,1.5 0 1,1 0,-1.5A1.5,1.5 0 0,1 1.5,0Z" style="opacity: 1; stroke-width: 0px; fill: rgb(237, 217, 163); fill-opacity: 1;"/><path class="point" transform="translate(80.92,73.14)" d="M1.5,0A1.5,1.5 0 1,1 0,-1.5A1.5,1.5 0 0,1 1.5,0Z" style="opacity: 1; stroke-width: 0px; fill: rgb(237, 217, 163); fill-opacity: 1;"/><path class="point" transform="translate(79.08,68.8)" d="M1.5,0A1.5,1.5 0 1,1 0,-1.5A1.5,1.5 0 0,1 1.5,0Z" style="opacity: 1; stroke-width: 0px; fill: rgb(237, 217, 163); fill-opacity: 1;"/><path class="point" transform="translate(83.52,60.11)" d="M1.5,0A1.5,1.5 0 1,1 0,-1.5A1.5,1.5 0 0,1 1.5,0Z" style="opacity: 1; stroke-width: 0px; fill: rgb(237, 217, 163); fill-opacity: 1;"/></g><g class="points"><path class="point" transform="translate(128.37,81.83)" d="M1.5,0A1.5,1.5 0 1,1 0,-1.5A1.5,1.5 0 0,1 1.5,0Z" style="opacity: 1; stroke-width: 0px; fill: rgb(237, 217, 163); fill-opacity: 1;"/><path class="point" transform="translate(132.64,81.83)" d="M1.5,0A1.5,1.5 0 1,1 0,-1.5A1.5,1.5 0 0,1 1.5,0Z" style="opacity: 1; stroke-width: 0px; fill: rgb(237, 217, 163); fill-opacity: 1;"/><path class="point" transform="translate(125.52,8)" d="M1.5,0A1.5,1.5 0 1,1 0,-1.5A1.5,1.5 0 0,1 1.5,0Z" style="opacity: 1; stroke-width: 0px; fill: rgb(237, 217, 163); fill-opacity: 1;"/></g><g class="points"><path class="point" transform="translate(174.96,129.6)" d="M1.5,0A1.5,1.5 0 1,1 0,-1.5A1.5,1.5 0 0,1 1.5,0Z" style="opacity: 1; stroke-width: 0px; fill: rgb(237, 217, 163); fill-opacity: 1;"/><path class="point" transform="translate(181.05,129.6)" d="M1.5,0A1.5,1.5 0 1,1 0,-1.5A1.5,1.5 0 0,1 1.5,0Z" style="opacity: 1; stroke-width: 0px; fill: rgb(237, 217, 163); fill-opacity: 1;"/><path class="point" transform="translate(176.26,116.57)" d="M1.5,0A1.5,1.5 0 1,1 0,-1.5A1.5,1.5 0 0,1 1.5,0Z" style="opacity: 1; stroke-width: 0px; fill: rgb(237, 217, 163); fill-opacity: 1;"/><path class="point" transform="translate(173.66,107.89)" d="M1.5,0A1.5,1.5 0 1,1 0,-1.5A1.5,1.5 0 0,1 1.5,0Z" style="opacity: 1; stroke-width: 0px; fill: rgb(237, 217, 163); fill-opacity: 1;"/><path class="point" transform="translate(175.92,103.54)" d="M1.5,0A1.5,1.5 0 1,1 0,-1.5A1.5,1.5 0 0,1 1.5,0Z" style="opacity: 1; stroke-width: 0px; fill: rgb(237, 217, 163); fill-opacity: 1;"/><path class="point" transform="translate(177.24,99.2)" d="M1.5,0A1.5,1.5 0 1,1 0,-1.5A1.5,1.5 0 0,1 1.5,0Z" style="opacity: 1; stroke-width: 0px; fill: rgb(237, 217, 163); fill-opacity: 1;"/><path class="point" transform="translate(179.12,94.86)" d="M1.5,0A1.5,1.5 0 1,1 0,-1.5A1.5,1.5 0 0,1 1.5,0Z" style="opacity: 1; stroke-width: 0px; fill: rgb(237, 217, 163); fill-opacity: 1;"/><path class="point" transform="translate(177.83,90.51)" d="M1.5,0A1.5,1.5 0 1,1 0,-1.5A1.5,1.5 0 0,1 1.5,0Z" style="opacity: 1; stroke-width: 0px; fill: rgb(237, 217, 163); fill-opacity: 1;"/></g><path class="mean" d="M30.4,104.41H39.27" style="fill: none; vector-effect: non-scaling-stroke; stroke-width: 0.5; stroke-dasharray: 1px, 0.5px; stroke: rgb(237, 217, 163); stroke-opacity: 1;"/><path class="mean" d="M77.9,83.28H86.77" style="fill: none; vector-effect: non-scaling-stroke; stroke-width: 0.5; stroke-dasharray: 1px, 0.5px; stroke: rgb(237, 217, 163); stroke-opacity: 1;"/><path class="mean" d="M125.4,57.22H134.27" style="fill: none; vector-effect: non-scaling-stroke; stroke-width: 0.5; stroke-dasharray: 1px, 0.5px; stroke: rgb(237, 217, 163); stroke-opacity: 1;"/><path class="mean" d="M172.9,108.97H181.77" style="fill: none; vector-effect: non-scaling-stroke; stroke-width: 0.5; stroke-dasharray: 1px, 0.5px; stroke: rgb(237, 217, 163); stroke-opacity: 1;"/></g></g></g><g class="overplot"/><path class="xlines-above crisp" d="M0,0" style="fill: none;"/><path class="ylines-above crisp" d="M0,0" style="fill: none;"/><g class="overlines-above"/><g class="xaxislayer-above"><g class="xtick"><text text-anchor="middle" x="0" y="231" transform="translate(103.75,0)" style="font-family: 'Open Sans', verdana, arial, sans-serif; font-size: 10px; fill: rgb(0, 0, 0); fill-opacity: 1; white-space: pre; opacity: 1;">At</text></g><g class="xtick"><text text-anchor="middle" x="0" y="231" transform="translate(151.25,0)" style="font-family: 'Open Sans', verdana, arial, sans-serif; font-size: 10px; fill: rgb(0, 0, 0); fill-opacity: 1; white-space: pre; opacity: 1;">Ct</text></g><g class="xtick"><text text-anchor="middle" x="0" y="231" transform="translate(198.75,0)" style="font-family: 'Open Sans', verdana, arial, sans-serif; font-size: 10px; fill: rgb(0, 0, 0); fill-opacity: 1; white-space: pre; opacity: 1;">Ms</text></g><g class="xtick"><text text-anchor="middle" x="0" y="231" transform="translate(246.25,0)" style="font-family: 'Open Sans', verdana, arial, sans-serif; font-size: 10px; fill: rgb(0, 0, 0); fill-opacity: 1; white-space: pre; opacity: 1;">Oa</text></g></g><g class="yaxislayer-above"><g class="ytick"><text text-anchor="end" x="79" y="3.5" transform="translate(0,220)" style="font-family: 'Open Sans', verdana, arial, sans-serif; font-size: 10px; fill: rgb(0, 0, 0); fill-opacity: 1; white-space: pre; opacity: 1;">0</text></g><g class="ytick"><text text-anchor="end" x="79" y="3.5" style="font-family: 'Open Sans', verdana, arial, sans-serif; font-size: 10px; fill: rgb(0, 0, 0); fill-opacity: 1; white-space: pre; opacity: 1;" transform="translate(0,176.57)">10</text></g><g class="ytick"><text text-anchor="end" x="79" y="3.5" style="font-family: 'Open Sans', verdana, arial, sans-serif; font-size: 10px; fill: rgb(0, 0, 0); fill-opacity: 1; white-space: pre; opacity: 1;" transform="translate(0,133.14)">20</text></g><g class="ytick"><text text-anchor="end" x="79" y="3.5" style="font-family: 'Open Sans', verdana, arial, sans-serif; font-size: 10px; fill: rgb(0, 0, 0); fill-opacity: 1; white-space: pre; opacity: 1;" transform="translate(0,89.71000000000001)">30</text></g></g><g class="overaxes-above"/></g></g><g class="polarlayer"/><g class="smithlayer"/><g class="ternarylayer"/><g class="geolayer"/><g class="funnelarealayer"/><g class="pielayer"/><g class="iciclelayer"/><g class="treemaplayer"/><g class="sunburstlayer"/><g class="glimages"/><defs id="topdefs-21c0fa"><g class="clips"/><clipPath id="legend21c0fa"><rect width="54" height="99" x="0" y="0"/></clipPath></defs><g class="layer-above"><g class="imagelayer"/><g class="shapelayer"/></g><g class="infolayer"><g class="legend" pointer-events="all" transform="translate(273.8,60)"><rect class="bg" shape-rendering="crispEdges" width="54" height="99" x="0" y="0" style="stroke: rgb(68, 68, 68); stroke-opacity: 1; fill: rgb(255, 255, 255); fill-opacity: 1; stroke-width: 0px;"/><g class="scrollbox" transform="" clip-path="url(#legend21c0fa)"><text class="legendtitletext" text-anchor="start" x="2" y="13" style="font-family: 'Open Sans', verdana, arial, sans-serif; font-size: 10px; fill: rgb(0, 0, 0); fill-opacity: 1; white-space: pre;">Treatment</text><g class="groups" transform=""><g class="traces" transform="translate(0,27.5)" style="opacity: 1;"><text class="legendtext" text-anchor="start" x="40" y="3.9" style="font-family: 'Open Sans', verdana, arial, sans-serif; font-size: 10px; fill: rgb(0, 0, 0); fill-opacity: 1; white-space: pre;">1</text><g class="layers" style="opacity: 1;"><g class="legendfill"/><g class="legendlines"/><g class="legendsymbols"><g class="legendpoints"><path class="legendbox" d="M6,6H-6V-6H6Z" transform="translate(20,0)" style="stroke-width: 0.5px; fill: rgb(75, 41, 145); fill-opacity: 0.5; stroke: rgb(75, 41, 145); stroke-opacity: 1;"/></g></g></g><rect class="legendtoggle" x="0" y="-9.5" width="46" height="19" style="fill: rgb(0, 0, 0); fill-opacity: 0;"/></g></g><g class="groups" transform=""><g class="traces" transform="translate(0,46.5)" style="opacity: 1;"><text class="legendtext" text-anchor="start" x="40" y="3.9" style="font-family: 'Open Sans', verdana, arial, sans-serif; font-size: 10px; fill: rgb(0, 0, 0); fill-opacity: 1; white-space: pre;">2</text><g class="layers" style="opacity: 1;"><g class="legendfill"/><g class="legendlines"/><g class="legendsymbols"><g class="legendpoints"><path class="legendbox" d="M6,6H-6V-6H6Z" transform="translate(20,0)" style="stroke-width: 0.5px; fill: rgb(192, 54, 157); fill-opacity: 0.5; stroke: rgb(192, 54, 157); stroke-opacity: 1;"/></g></g></g><rect class="legendtoggle" x="0" y="-9.5" width="46" height="19" style="fill: rgb(0, 0, 0); fill-opacity: 0;"/></g></g><g class="groups" transform=""><g class="traces" transform="translate(0,65.5)" style="opacity: 1;"><text class="legendtext" text-anchor="start" x="40" y="3.9" style="font-family: 'Open Sans', verdana, arial, sans-serif; font-size: 10px; fill: rgb(0, 0, 0); fill-opacity: 1; white-space: pre;">3</text><g class="layers" style="opacity: 1;"><g class="legendfill"/><g class="legendlines"/><g class="legendsymbols"><g class="legendpoints"><path class="legendbox" d="M6,6H-6V-6H6Z" transform="translate(20,0)" style="stroke-width: 0.5px; fill: rgb(250, 120, 118); fill-opacity: 0.5; stroke: rgb(250, 120, 118); stroke-opacity: 1;"/></g></g></g><rect class="legendtoggle" x="0" y="-9.5" width="46" height="19" style="fill: rgb(0, 0, 0); fill-opacity: 0;"/></g></g><g class="groups" transform=""><g class="traces" transform="translate(0,84.5)" style="opacity: 1;"><text class="legendtext" text-anchor="start" x="40" y="3.9" style="font-family: 'Open Sans', verdana, arial, sans-serif; font-size: 10px; fill: rgb(0, 0, 0); fill-opacity: 1; white-space: pre;">4</text><g class="layers" style="opacity: 1;"><g class="legendfill"/><g class="legendlines"/><g class="legendsymbols"><g class="legendpoints"><path class="legendbox" d="M6,6H-6V-6H6Z" transform="translate(20,0)" style="stroke-width: 0.5px; fill: rgb(237, 217, 163); fill-opacity: 0.5; stroke: rgb(237, 217, 163); stroke-opacity: 1;"/></g></g></g><rect class="legendtoggle" x="0" y="-9.5" width="46" height="19" style="fill: rgb(0, 0, 0); fill-opacity: 0;"/></g></g></g><rect class="scrollbar" rx="20" ry="3" width="0" height="0" x="0" y="0" style="fill: rgb(128, 139, 164); fill-opacity: 1;"/></g><g class="g-gtitle"/><g class="g-xtitle"><text class="xtitle" x="175" y="256" text-anchor="middle" style="font-family: 'Open Sans', verdana, arial, sans-serif; font-size: 10px; fill: rgb(0, 0, 0); opacity: 1; font-weight: normal; white-space: pre;">Timepoint</text></g><g class="g-ytitle"><text class="ytitle" transform="rotate(-90,45.5625,140)" x="45.5625" y="140" text-anchor="middle" style="font-family: 'Open Sans', verdana, arial, sans-serif; font-size: 10px; fill: rgb(0, 0, 0); opacity: 1; font-weight: normal; white-space: pre;">SNPs</text></g></g></svg>