<svg class="main-svg" xmlns="http://www.w3.org/2000/svg" xmlns:xlink="http://www.w3.org/1999/xlink" width="350" height="250" style="" viewBox="0 0 350 250"><rect x="0" y="0" width="350" height="250" style="fill: rgb(255, 255, 255); fill-opacity: 1;"/><defs id="defs-b96b0f"><g class="clips"><clipPath id="clipb96b0fxyplot" class="plotclip"><rect width="190" height="110"/></clipPath><clipPath class="axesclip" id="clipb96b0fx"><rect x="80" y="0" width="190" height="250"/></clipPath><clipPath class="axesclip" id="clipb96b0fy"><rect x="0" y="60" width="350" height="110"/></clipPath><clipPath class="axesclip" id="clipb96b0fxy"><rect x="80" y="60" width="190" height="110"/></clipPath></g><g class="gradients"/><g class="patterns"/></defs><g class="bglayer"><rect class="bg" x="80" y="60" width="190" height="110" style="fill: rgb(229, 236, 246); fill-opacity: 1; stroke-width: 0;"/></g><g class="layer-below"><g class="imagelayer"/><g class="shapelayer"/></g><g class="cartesianlayer"><g class="subplot xy"><g class="layer-subplot"><g class="shapelayer"/><g class="imagelayer"/></g><g class="gridlayer"><g class="x"/><g class="y"><path class="ygrid crisp" transform="translate(0,143.79000000000002)" d="M80,0h190" style="stroke: rgb(255, 255, 255); stroke-opacity: 1; stroke-width: 1px;"/><path class="ygrid crisp" transform="translate(0,117.28)" d="M80,0h190" style="stroke: rgb(255, 255, 255); stroke-opacity: 1; stroke-width: 1px;"/><path class="ygrid crisp" transform="translate(0,90.77)" d="M80,0h190" style="stroke: rgb(255, 255, 255); stroke-opacity: 1; stroke-width: 1px;"/><path class="ygrid crisp" transform="translate(0,64.25)" d="M80,0h190" style="stroke: rgb(255, 255, 255); stroke-opacity: 1; stroke-width: 1px;"/></g></g><g class="zerolinelayer"/><path class="xlines-below"/><path class="ylines-below"/><g class="overlines-below"/><g class="xaxislayer-below"/><g class="yaxislayer-below"/><g class="overaxes-below"/><g class="plot" transform="translate(80,60)" clip-path="url(#clipb96b0fxyplot)"><g class="boxlayer mlayer"><g class="trace boxes" style="opacity: 1;"><path class="box" d="M8.23,24.48H17.1M8.23,83.75H17.1V12.08H8.23ZM12.67,83.75V86.37M12.67,12.08V8.07M10.45,86.37H14.88M10.45,8.07H14.88" style="vector-effect: non-scaling-stroke; stroke-width: 0.5px; stroke: rgb(75, 41, 145); stroke-opacity: 1; fill: rgb(75, 41, 145); fill-opacity: 0.5;"/><path class="box" d="M55.73,39.03H64.6M55.73,57.9H64.6V19.13H55.73ZM60.17,57.9V61.35M60.17,19.13V15.8M57.95,61.35H62.38M57.95,15.8H62.38" style="vector-effect: non-scaling-stroke; stroke-width: 0.5px; stroke: rgb(75, 41, 145); stroke-opacity: 1; fill: rgb(75, 41, 145); fill-opacity: 0.5;"/><path class="box" d="M103.23,38.88H112.1M103.23,57.48H112.1V14.46H103.23ZM107.67,57.48V73.75M107.67,14.46V5.5M105.45,73.75H109.88M105.45,5.5H109.88" style="vector-effect: non-scaling-stroke; stroke-width: 0.5px; stroke: rgb(75, 41, 145); stroke-opacity: 1; fill: rgb(75, 41, 145); fill-opacity: 0.5;"/><path class="box" d="M150.73,35.01H159.6M150.73,58.97H159.6V14.04H150.73ZM155.17,58.97V77.56M155.17,14.04V13.6M152.95,77.56H157.38M152.95,13.6H157.38" style="vector-effect: non-scaling-stroke; stroke-width: 0.5px; stroke: rgb(75, 41, 145); stroke-opacity: 1; fill: rgb(75, 41, 145); fill-opacity: 0.5;"/><g class="points"><path class="point" transform="translate(14.97,86.37)" d="M1.5,0A1.5,1.5 0 1,1 0,-1.5A1.5,1.5 0 0,1 1.5,0Z" style="opacity: 1; stroke-width: 0px; fill: rgb(75, 41, 145); fill-opacity: 1;"/><path class="point" transform="translate(9.84,81.13)" d="M1.5,0A1.5,1.5 0 1,1 0,-1.5A1.5,1.5 0 0,1 1.5,0Z" style="opacity: 1; stroke-width: 0px; fill: rgb(75, 41, 145); fill-opacity: 1;"/><path class="point" transform="translate(16.1,24.48)" d="M1.5,0A1.5,1.5 0 1,1 0,-1.5A1.5,1.5 0 0,1 1.5,0Z" style="opacity: 1; stroke-width: 0px; fill: rgb(75, 41, 145); fill-opacity: 1;"/><path class="point" transform="translate(8.92,16.09)" d="M1.5,0A1.5,1.5 0 1,1 0,-1.5A1.5,1.5 0 0,1 1.5,0Z" style="opacity: 1; stroke-width: 0px; fill: rgb(75, 41, 145); fill-opacity: 1;"/><path class="point" transform="translate(11.57,8.07)" d="M1.5,0A1.5,1.5 0 1,1 0,-1.5A1.5,1.5 0 0,1 1.5,0Z" style="opacity: 1; stroke-width: 0px; fill: rgb(75, 41, 145); fill-opacity: 1;"/></g><g class="points"><path class="point" transform="translate(62.49,61.35)" d="M1.5,0A1.5,1.5 0 1,1 0,-1.5A1.5,1.5 0 0,1 1.5,0Z" style="opacity: 1; stroke-width: 0px; fill: rgb(75, 41, 145); fill-opacity: 1;"/><path class="point" transform="translate(60,54.45)" d="M1.5,0A1.5,1.5 0 1,1 0,-1.5A1.5,1.5 0 0,1 1.5,0Z" style="opacity: 1; stroke-width: 0px; fill: rgb(75, 41, 145); fill-opacity: 1;"/><path class="point" transform="translate(61.45,39.03)" d="M1.5,0A1.5,1.5 0 1,1 0,-1.5A1.5,1.5 0 0,1 1.5,0Z" style="opacity: 1; stroke-width: 0px; fill: rgb(75, 41, 145); fill-opacity: 1;"/><path class="point" transform="translate(58.75,22.45)" d="M1.5,0A1.5,1.5 0 1,1 0,-1.5A1.5,1.5 0 0,1 1.5,0Z" style="opacity: 1; stroke-width: 0px; fill: rgb(75, 41, 145); fill-opacity: 1;"/><path class="point" transform="translate(56.92,15.8)" d="M1.5,0A1.5,1.5 0 1,1 0,-1.5A1.5,1.5 0 0,1 1.5,0Z" style="opacity: 1; stroke-width: 0px; fill: rgb(75, 41, 145); fill-opacity: 1;"/></g><g class="points"><path class="point" transform="translate(108.85,73.75)" d="M1.5,0A1.5,1.5 0 1,1 0,-1.5A1.5,1.5 0 0,1 1.5,0Z" style="opacity: 1; stroke-width: 0px; fill: rgb(75, 41, 145); fill-opacity: 1;"/><path class="point" transform="translate(106.21,41.2)" d="M1.5,0A1.5,1.5 0 1,1 0,-1.5A1.5,1.5 0 0,1 1.5,0Z" style="opacity: 1; stroke-width: 0px; fill: rgb(75, 41, 145); fill-opacity: 1;"/><path class="point" transform="translate(110.48,38.88)" d="M1.5,0A1.5,1.5 0 1,1 0,-1.5A1.5,1.5 0 0,1 1.5,0Z" style="opacity: 1; stroke-width: 0px; fill: rgb(75, 41, 145); fill-opacity: 1;"/><path class="point" transform="translate(103.35,23.42)" d="M1.5,0A1.5,1.5 0 1,1 0,-1.5A1.5,1.5 0 0,1 1.5,0Z" style="opacity: 1; stroke-width: 0px; fill: rgb(75, 41, 145); fill-opacity: 1;"/><path class="point" transform="translate(105.1,5.5)" d="M1.5,0A1.5,1.5 0 1,1 0,-1.5A1.5,1.5 0 0,1 1.5,0Z" style="opacity: 1; stroke-width: 0px; fill: rgb(75, 41, 145); fill-opacity: 1;"/></g><g class="points"><path class="point" transform="translate(159.09,77.56)" d="M1.5,0A1.5,1.5 0 1,1 0,-1.5A1.5,1.5 0 0,1 1.5,0Z" style="opacity: 1; stroke-width: 0px; fill: rgb(75, 41, 145); fill-opacity: 1;"/><path class="point" transform="translate(154.06,40.39)" d="M1.5,0A1.5,1.5 0 1,1 0,-1.5A1.5,1.5 0 0,1 1.5,0Z" style="opacity: 1; stroke-width: 0px; fill: rgb(75, 41, 145); fill-opacity: 1;"/><path class="point" transform="translate(151.36,35.01)" d="M1.5,0A1.5,1.5 0 1,1 0,-1.5A1.5,1.5 0 0,1 1.5,0Z" style="opacity: 1; stroke-width: 0px; fill: rgb(75, 41, 145); fill-opacity: 1;"/><path class="point" transform="translate(153.7,14.48)" d="M1.5,0A1.5,1.5 0 1,1 0,-1.5A1.5,1.5 0 0,1 1.5,0Z" style="opacity: 1; stroke-width: 0px; fill: rgb(75, 41, 145); fill-opacity: 1;"/><path class="point" transform="translate(155.07,13.6)" d="M1.5,0A1.5,1.5 0 1,1 0,-1.5A1.5,1.5 0 0,1 1.5,0Z" style="opacity: 1; stroke-width: 0px; fill: rgb(75, 41, 145); fill-opacity: 1;"/></g><path class="mean" d="M8.23,43.23H17.1" style="fill: none; vector-effect: non-scaling-stroke; stroke-width: 0.5; stroke-dasharray: 1px, 0.5px; stroke: rgb(75, 41, 145); stroke-opacity: 1;"/><path class="mean" d="M55.73,38.62H64.6" style="fill: none; vector-effect: non-scaling-stroke; stroke-width: 0.5; stroke-dasharray: 1px, 0.5px; stroke: rgb(75, 41, 145); stroke-opacity: 1;"/><path class="mean" d="M103.23,36.55H112.1" style="fill: none; vector-effect: non-scaling-stroke; stroke-width: 0.5; stroke-dasharray: 1px, 0.5px; stroke: rgb(75, 41, 145); stroke-opacity: 1;"/><path class="mean" d="M150.73,36.21H159.6" style="fill: none; vector-effect: non-scaling-stroke; stroke-width: 0.5; stroke-dasharray: 1px, 0.5px; stroke: rgb(75, 41, 145); stroke-opacity: 1;"/></g><g class="trace boxes" style="opacity: 1;"><path class="box" d="M19.32,53.99H28.18M19.32,73.99H28.18V52.07H19.32ZM23.75,73.99V81.52M23.75,52.07V51.58M21.53,81.52H25.97M21.53,51.58H25.97" style="vector-effect: non-scaling-stroke; stroke-width: 0.5px; stroke: rgb(234, 79, 136); stroke-opacity: 1; fill: rgb(234, 79, 136); fill-opacity: 0.5;"/><path class="box" d="M66.82,55.94H75.68M66.82,63.94H75.68V48.86H66.82ZM71.25,63.94V65.61M71.25,48.86V48.78M69.03,65.61H73.47M69.03,48.78H73.47" style="vector-effect: non-scaling-stroke; stroke-width: 0.5px; stroke: rgb(234, 79, 136); stroke-opacity: 1; fill: rgb(234, 79, 136); fill-opacity: 0.5;"/><path class="box" d="M114.32,60.35H123.18M114.32,75.68H123.18V53.65H114.32ZM118.75,75.68V89.48M118.75,53.65V48.45M116.53,89.48H120.97M116.53,48.45H120.97" style="vector-effect: non-scaling-stroke; stroke-width: 0.5px; stroke: rgb(234, 79, 136); stroke-opacity: 1; fill: rgb(234, 79, 136); fill-opacity: 0.5;"/><path class="box" d="M161.82,67.52H170.68M161.82,88.34H170.68V57.02H161.82ZM166.25,88.34V104.5M166.25,57.02V52.44M164.03,104.5H168.47M164.03,52.44H168.47" style="vector-effect: non-scaling-stroke; stroke-width: 0.5px; stroke: rgb(234, 79, 136); stroke-opacity: 1; fill: rgb(234, 79, 136); fill-opacity: 0.5;"/><g class="points"><path class="point" transform="translate(26.05,81.52)" d="M1.5,0A1.5,1.5 0 1,1 0,-1.5A1.5,1.5 0 0,1 1.5,0Z" style="opacity: 1; stroke-width: 0px; fill: rgb(234, 79, 136); fill-opacity: 1;"/><path class="point" transform="translate(20.92,66.47)" d="M1.5,0A1.5,1.5 0 1,1 0,-1.5A1.5,1.5 0 0,1 1.5,0Z" style="opacity: 1; stroke-width: 0px; fill: rgb(234, 79, 136); fill-opacity: 1;"/><path class="point" transform="translate(27.19,53.99)" d="M1.5,0A1.5,1.5 0 1,1 0,-1.5A1.5,1.5 0 0,1 1.5,0Z" style="opacity: 1; stroke-width: 0px; fill: rgb(234, 79, 136); fill-opacity: 1;"/><path class="point" transform="translate(20,52.56)" d="M1.5,0A1.5,1.5 0 1,1 0,-1.5A1.5,1.5 0 0,1 1.5,0Z" style="opacity: 1; stroke-width: 0px; fill: rgb(234, 79, 136); fill-opacity: 1;"/><path class="point" transform="translate(22.66,51.58)" d="M1.5,0A1.5,1.5 0 1,1 0,-1.5A1.5,1.5 0 0,1 1.5,0Z" style="opacity: 1; stroke-width: 0px; fill: rgb(234, 79, 136); fill-opacity: 1;"/></g><g class="points"><path class="point" transform="translate(73.58,65.61)" d="M1.5,0A1.5,1.5 0 1,1 0,-1.5A1.5,1.5 0 0,1 1.5,0Z" style="opacity: 1; stroke-width: 0px; fill: rgb(234, 79, 136); fill-opacity: 1;"/><path class="point" transform="translate(71.08,62.27)" d="M1.5,0A1.5,1.5 0 1,1 0,-1.5A1.5,1.5 0 0,1 1.5,0Z" style="opacity: 1; stroke-width: 0px; fill: rgb(234, 79, 136); fill-opacity: 1;"/><path class="point" transform="translate(72.54,55.94)" d="M1.5,0A1.5,1.5 0 1,1 0,-1.5A1.5,1.5 0 0,1 1.5,0Z" style="opacity: 1; stroke-width: 0px; fill: rgb(234, 79, 136); fill-opacity: 1;"/><path class="point" transform="translate(69.84,48.93)" d="M1.5,0A1.5,1.5 0 1,1 0,-1.5A1.5,1.5 0 0,1 1.5,0Z" style="opacity: 1; stroke-width: 0px; fill: rgb(234, 79, 136); fill-opacity: 1;"/><path class="point" transform="translate(68,48.78)" d="M1.5,0A1.5,1.5 0 1,1 0,-1.5A1.5,1.5 0 0,1 1.5,0Z" style="opacity: 1; stroke-width: 0px; fill: rgb(234, 79, 136); fill-opacity: 1;"/></g><g class="points"><path class="point" transform="translate(119.93,89.48)" d="M1.5,0A1.5,1.5 0 1,1 0,-1.5A1.5,1.5 0 0,1 1.5,0Z" style="opacity: 1; stroke-width: 0px; fill: rgb(234, 79, 136); fill-opacity: 1;"/><path class="point" transform="translate(117.29,61.87)" d="M1.5,0A1.5,1.5 0 1,1 0,-1.5A1.5,1.5 0 0,1 1.5,0Z" style="opacity: 1; stroke-width: 0px; fill: rgb(234, 79, 136); fill-opacity: 1;"/><path class="point" transform="translate(121.56,60.35)" d="M1.5,0A1.5,1.5 0 1,1 0,-1.5A1.5,1.5 0 0,1 1.5,0Z" style="opacity: 1; stroke-width: 0px; fill: rgb(234, 79, 136); fill-opacity: 1;"/><path class="point" transform="translate(114.43,58.84)" d="M1.5,0A1.5,1.5 0 1,1 0,-1.5A1.5,1.5 0 0,1 1.5,0Z" style="opacity: 1; stroke-width: 0px; fill: rgb(234, 79, 136); fill-opacity: 1;"/><path class="point" transform="translate(116.19,48.45)" d="M1.5,0A1.5,1.5 0 1,1 0,-1.5A1.5,1.5 0 0,1 1.5,0Z" style="opacity: 1; stroke-width: 0px; fill: rgb(234, 79, 136); fill-opacity: 1;"/></g><g class="points"><path class="point" transform="translate(170.17,104.5)" d="M1.5,0A1.5,1.5 0 1,1 0,-1.5A1.5,1.5 0 0,1 1.5,0Z" style="opacity: 1; stroke-width: 0px; fill: rgb(234, 79, 136); fill-opacity: 1;"/><path class="point" transform="translate(165.14,72.18)" d="M1.5,0A1.5,1.5 0 1,1 0,-1.5A1.5,1.5 0 0,1 1.5,0Z" style="opacity: 1; stroke-width: 0px; fill: rgb(234, 79, 136); fill-opacity: 1;"/><path class="point" transform="translate(162.44,67.52)" d="M1.5,0A1.5,1.5 0 1,1 0,-1.5A1.5,1.5 0 0,1 1.5,0Z" style="opacity: 1; stroke-width: 0px; fill: rgb(234, 79, 136); fill-opacity: 1;"/><path class="point" transform="translate(164.78,61.61)" d="M1.5,0A1.5,1.5 0 1,1 0,-1.5A1.5,1.5 0 0,1 1.5,0Z" style="opacity: 1; stroke-width: 0px; fill: rgb(234, 79, 136); fill-opacity: 1;"/><path class="point" transform="translate(166.16,52.44)" d="M1.5,0A1.5,1.5 0 1,1 0,-1.5A1.5,1.5 0 0,1 1.5,0Z" style="opacity: 1; stroke-width: 0px; fill: rgb(234, 79, 136); fill-opacity: 1;"/></g><path class="mean" d="M19.32,61.22H28.18" style="fill: none; vector-effect: non-scaling-stroke; stroke-width: 0.5; stroke-dasharray: 1px, 0.5px; stroke: rgb(234, 79, 136); stroke-opacity: 1;"/><path class="mean" d="M66.82,56.3H75.68" style="fill: none; vector-effect: non-scaling-stroke; stroke-width: 0.5; stroke-dasharray: 1px, 0.5px; stroke: rgb(234, 79, 136); stroke-opacity: 1;"/><path class="mean" d="M114.32,63.8H123.18" style="fill: none; vector-effect: non-scaling-stroke; stroke-width: 0.5; stroke-dasharray: 1px, 0.5px; stroke: rgb(234, 79, 136); stroke-opacity: 1;"/><path class="mean" d="M161.82,71.65H170.68" style="fill: none; vector-effect: non-scaling-stroke; stroke-width: 0.5; stroke-dasharray: 1px, 0.5px; stroke: rgb(234, 79, 136); stroke-opacity: 1;"/></g><g class="trace boxes" style="opacity: 1;"><path class="box" d="M30.4,46.67H39.27M30.4,51.05H39.27V33.12H30.4ZM34.83,51.05V51.65M34.83,33.12V21.38M32.62,51.65H37.05M32.62,21.38H37.05" style="vector-effect: non-scaling-stroke; stroke-width: 0.5px; stroke: rgb(237, 217, 163); stroke-opacity: 1; fill: rgb(237, 217, 163); fill-opacity: 0.5;"/><path class="box" d="M77.9,62.7H86.77M77.9,72.55H86.77V56.76H77.9ZM82.33,72.55V78.93M82.33,56.76V52.67M80.12,78.93H84.55M80.12,52.67H84.55" style="vector-effect: non-scaling-stroke; stroke-width: 0.5px; stroke: rgb(237, 217, 163); stroke-opacity: 1; fill: rgb(237, 217, 163); fill-opacity: 0.5;"/><path class="box" d="M125.4,74.74H134.27M125.4,88.05H134.27V60.45H125.4ZM129.83,88.05V90.62M129.83,60.45V52.02M127.62,90.62H132.05M127.62,52.02H132.05" style="vector-effect: non-scaling-stroke; stroke-width: 0.5px; stroke: rgb(237, 217, 163); stroke-opacity: 1; fill: rgb(237, 217, 163); fill-opacity: 0.5;"/><path class="box" d="M172.9,94.27H181.77M172.9,99.44H181.77V75.14H172.9ZM177.33,99.44V100.46M177.33,75.14V66.93M175.12,100.46H179.55M175.12,66.93H179.55" style="vector-effect: non-scaling-stroke; stroke-width: 0.5px; stroke: rgb(237, 217, 163); stroke-opacity: 1; fill: rgb(237, 217, 163); fill-opacity: 0.5;"/><g class="points"><path class="point" transform="translate(37.13,51.65)" d="M1.5,0A1.5,1.5 0 1,1 0,-1.5A1.5,1.5 0 0,1 1.5,0Z" style="opacity: 1; stroke-width: 0px; fill: rgb(237, 217, 163); fill-opacity: 1;"/><path class="point" transform="translate(32.01,50.44)" d="M1.5,0A1.5,1.5 0 1,1 0,-1.5A1.5,1.5 0 0,1 1.5,0Z" style="opacity: 1; stroke-width: 0px; fill: rgb(237, 217, 163); fill-opacity: 1;"/><path class="point" transform="translate(38.27,46.67)" d="M1.5,0A1.5,1.5 0 1,1 0,-1.5A1.5,1.5 0 0,1 1.5,0Z" style="opacity: 1; stroke-width: 0px; fill: rgb(237, 217, 163); fill-opacity: 1;"/><path class="point" transform="translate(31.08,44.86)" d="M1.5,0A1.5,1.5 0 1,1 0,-1.5A1.5,1.5 0 0,1 1.5,0Z" style="opacity: 1; stroke-width: 0px; fill: rgb(237, 217, 163); fill-opacity: 1;"/><path class="point" transform="translate(33.74,21.38)" d="M1.5,0A1.5,1.5 0 1,1 0,-1.5A1.5,1.5 0 0,1 1.5,0Z" style="opacity: 1; stroke-width: 0px; fill: rgb(237, 217, 163); fill-opacity: 1;"/></g><g class="points"><path class="point" transform="translate(84.66,78.93)" d="M1.5,0A1.5,1.5 0 1,1 0,-1.5A1.5,1.5 0 0,1 1.5,0Z" style="opacity: 1; stroke-width: 0px; fill: rgb(237, 217, 163); fill-opacity: 1;"/><path class="point" transform="translate(82.17,66.16)" d="M1.5,0A1.5,1.5 0 1,1 0,-1.5A1.5,1.5 0 0,1 1.5,0Z" style="opacity: 1; stroke-width: 0px; fill: rgb(237, 217, 163); fill-opacity: 1;"/><path class="point" transform="translate(83.62,62.7)" d="M1.5,0A1.5,1.5 0 1,1 0,-1.5A1.5,1.5 0 0,1 1.5,0Z" style="opacity: 1; stroke-width: 0px; fill: rgb(237, 217, 163); fill-opacity: 1;"/><path class="point" transform="translate(80.92,60.85)" d="M1.5,0A1.5,1.5 0 1,1 0,-1.5A1.5,1.5 0 0,1 1.5,0Z" style="opacity: 1; stroke-width: 0px; fill: rgb(237, 217, 163); fill-opacity: 1;"/><path class="point" transform="translate(79.08,52.67)" d="M1.5,0A1.5,1.5 0 1,1 0,-1.5A1.5,1.5 0 0,1 1.5,0Z" style="opacity: 1; stroke-width: 0px; fill: rgb(237, 217, 163); fill-opacity: 1;"/></g><g class="points"><path class="point" transform="translate(131.02,90.62)" d="M1.5,0A1.5,1.5 0 1,1 0,-1.5A1.5,1.5 0 0,1 1.5,0Z" style="opacity: 1; stroke-width: 0px; fill: rgb(237, 217, 163); fill-opacity: 1;"/><path class="point" transform="translate(128.37,85.48)" d="M1.5,0A1.5,1.5 0 1,1 0,-1.5A1.5,1.5 0 0,1 1.5,0Z" style="opacity: 1; stroke-width: 0px; fill: rgb(237, 217, 163); fill-opacity: 1;"/><path class="point" transform="translate(132.64,74.74)" d="M1.5,0A1.5,1.5 0 1,1 0,-1.5A1.5,1.5 0 0,1 1.5,0Z" style="opacity: 1; stroke-width: 0px; fill: rgb(237, 217, 163); fill-opacity: 1;"/><path class="point" transform="translate(125.52,68.88)" d="M1.5,0A1.5,1.5 0 1,1 0,-1.5A1.5,1.5 0 0,1 1.5,0Z" style="opacity: 1; stroke-width: 0px; fill: rgb(237, 217, 163); fill-opacity: 1;"/><path class="point" transform="translate(127.27,52.02)" d="M1.5,0A1.5,1.5 0 1,1 0,-1.5A1.5,1.5 0 0,1 1.5,0Z" style="opacity: 1; stroke-width: 0px; fill: rgb(237, 217, 163); fill-opacity: 1;"/></g><g class="points"><path class="point" transform="translate(181.26,100.46)" d="M1.5,0A1.5,1.5 0 1,1 0,-1.5A1.5,1.5 0 0,1 1.5,0Z" style="opacity: 1; stroke-width: 0px; fill: rgb(237, 217, 163); fill-opacity: 1;"/><path class="point" transform="translate(176.22,98.42)" d="M1.5,0A1.5,1.5 0 1,1 0,-1.5A1.5,1.5 0 0,1 1.5,0Z" style="opacity: 1; stroke-width: 0px; fill: rgb(237, 217, 163); fill-opacity: 1;"/><path class="point" transform="translate(173.53,94.27)" d="M1.5,0A1.5,1.5 0 1,1 0,-1.5A1.5,1.5 0 0,1 1.5,0Z" style="opacity: 1; stroke-width: 0px; fill: rgb(237, 217, 163); fill-opacity: 1;"/><path class="point" transform="translate(175.87,83.34)" d="M1.5,0A1.5,1.5 0 1,1 0,-1.5A1.5,1.5 0 0,1 1.5,0Z" style="opacity: 1; stroke-width: 0px; fill: rgb(237, 217, 163); fill-opacity: 1;"/><path class="point" transform="translate(177.24,66.93)" d="M1.5,0A1.5,1.5 0 1,1 0,-1.5A1.5,1.5 0 0,1 1.5,0Z" style="opacity: 1; stroke-width: 0px; fill: rgb(237, 217, 163); fill-opacity: 1;"/></g><path class="mean" d="M30.4,43H39.27" style="fill: none; vector-effect: non-scaling-stroke; stroke-width: 0.5; stroke-dasharray: 1px, 0.5px; stroke: rgb(237, 217, 163); stroke-opacity: 1;"/><path class="mean" d="M77.9,64.27H86.77" style="fill: none; vector-effect: non-scaling-stroke; stroke-width: 0.5; stroke-dasharray: 1px, 0.5px; stroke: rgb(237, 217, 163); stroke-opacity: 1;"/><path class="mean" d="M125.4,74.35H134.27" style="fill: none; vector-effect: non-scaling-stroke; stroke-width: 0.5; stroke-dasharray: 1px, 0.5px; stroke: rgb(237, 217, 163); stroke-opacity: 1;"/><path class="mean" d="M172.9,88.69H181.77" style="fill: none; vector-effect: non-scaling-stroke; stroke-width: 0.5; stroke-dasharray: 1px, 0.5px; stroke: rgb(237, 217, 163); stroke-opacity: 1;"/></g></g></g><g class="overplot"/><path class="xlines-above crisp" d="M0,0" style="fill: none;"/><path class="ylines-above crisp" d="M0,0" style="fill: none;"/><g class="overlines-above"/><g class="xaxislayer-above"><g class="xtick"><text text-anchor="middle" x="0" y="181" transform="translate(103.75,0)" style="font-family: 'Open Sans', verdana, arial, sans-serif; font-size: 10px; fill: rgb(0, 0, 0); fill-opacity: 1; white-space: pre; opacity: 1;">T11</text></g><g class="xtick"><text text-anchor="middle" x="0" y="181" transform="translate(151.25,0)" style="font-family: 'Open Sans', verdana, arial, sans-serif; font-size: 10px; fill: rgb(0, 0, 0); fill-opacity: 1; white-space: pre; opacity: 1;">T22</text></g><g class="xtick"><text text-anchor="middle" x="0" y="181" transform="translate(198.75,0)" style="font-family: 'Open Sans', verdana, arial, sans-serif; font-size: 10px; fill: rgb(0, 0, 0); fill-opacity: 1; white-space: pre; opacity: 1;">T33</text></g><g class="xtick"><text text-anchor="middle" x="0" y="181" transform="translate(246.25,0)" style="font-family: 'Open Sans', verdana, arial, sans-serif; font-size: 10px; fill: rgb(0, 0, 0); fill-opacity: 1; white-space: pre; opacity: 1;">T44</text></g></g><g class="yaxislayer-above"><g class="ytick"><text text-anchor="end" x="79" y="3.5" transform="translate(0,143.79000000000002)" style="font-family: 'Open Sans', verdana, arial, sans-serif; font-size: 10px; fill: rgb(0, 0, 0); fill-opacity: 1; white-space: pre; opacity: 1;">0.4</text></g><g class="ytick"><text text-anchor="end" x="79" y="3.5" style="font-family: 'Open Sans', verdana, arial, sans-serif; font-size: 10px; fill: rgb(0, 0, 0); fill-opacity: 1; white-space: pre; opacity: 1;" transform="translate(0,117.28)">0.6</text></g><g class="ytick"><text text-anchor="end" x="79" y="3.5" style="font-family: 'Open Sans', verdana, arial, sans-serif; font-size: 10px; fill: rgb(0, 0, 0); fill-opacity: 1; white-space: pre; opacity: 1;" transform="translate(0,90.77)">0.8</text></g><g class="ytick"><text text-anchor="end" x="79" y="3.5" style="font-family: 'Open Sans', verdana, arial, sans-serif; font-size: 10px; fill: rgb(0, 0, 0); fill-opacity: 1; white-space: pre; opacity: 1;" transform="translate(0,64.25)">1</text></g></g><g class="overaxes-above"/></g></g><g class="polarlayer"/><g class="ternarylayer"/><g class="geolayer"/><g class="funnelarealayer"/><g class="pielayer"/><g class="iciclelayer"/><g class="treemaplayer"/><g class="sunburstlayer"/><g class="glimages"/><defs id="topdefs-b96b0f"><g class="clips"/><clipPath id="legendb96b0f"><rect width="56" height="80" x="0" y="0"/></clipPath></defs><g class="layer-above"><g class="imagelayer"/><g class="shapelayer"/></g><g class="infolayer"><g class="legend" pointer-events="all" transform="translate(273.8,60)"><rect class="bg" shape-rendering="crispEdges" width="56" height="80" x="0" y="0" style="stroke: rgb(68, 68, 68); stroke-opacity: 1; fill: rgb(255, 255, 255); fill-opacity: 1; stroke-width: 0px;"/><g class="scrollbox" transform="" clip-path="url(#legendb96b0f)"><text class="legendtitletext" text-anchor="start" x="2" y="13" style="font-family: 'Open Sans', verdana, arial, sans-serif; font-size: 10px; fill: rgb(0, 0, 0); fill-opacity: 1; white-space: pre;">Treatment</text><g class="groups" transform=""><g class="traces" transform="translate(0,27.5)" style="opacity: 1;"><text class="legendtext" text-anchor="start" x="40" y="3.9" style="font-family: 'Open Sans', verdana, arial, sans-serif; font-size: 10px; fill: rgb(0, 0, 0); fill-opacity: 1; white-space: pre;">2</text><g class="layers" style="opacity: 1;"><g class="legendfill"/><g class="legendlines"/><g class="legendsymbols"><g class="legendpoints"><path class="legendbox" d="M6,6H-6V-6H6Z" transform="translate(20,0)" style="stroke-width: 0.5px; fill: rgb(75, 41, 145); fill-opacity: 0.5; stroke: rgb(75, 41, 145); stroke-opacity: 1;"/></g></g></g><rect class="legendtoggle" x="0" y="-9.5" width="46.375" height="19" style="fill: rgb(0, 0, 0); fill-opacity: 0;"/></g></g><g class="groups" transform=""><g class="traces" transform="translate(0,46.5)" style="opacity: 1;"><text class="legendtext" text-anchor="start" x="40" y="3.9" style="font-family: 'Open Sans', verdana, arial, sans-serif; font-size: 10px; fill: rgb(0, 0, 0); fill-opacity: 1; white-space: pre;">3</text><g class="layers" style="opacity: 1;"><g class="legendfill"/><g class="legendlines"/><g class="legendsymbols"><g class="legendpoints"><path class="legendbox" d="M6,6H-6V-6H6Z" transform="translate(20,0)" style="stroke-width: 0.5px; fill: rgb(234, 79, 136); fill-opacity: 0.5; stroke: rgb(234, 79, 136); stroke-opacity: 1;"/></g></g></g><rect class="legendtoggle" x="0" y="-9.5" width="46.375" height="19" style="fill: rgb(0, 0, 0); fill-opacity: 0;"/></g></g><g class="groups" transform=""><g class="traces" transform="translate(0,65.5)" style="opacity: 1;"><text class="legendtext" text-anchor="start" x="40" y="3.9" style="font-family: 'Open Sans', verdana, arial, sans-serif; font-size: 10px; fill: rgb(0, 0, 0); fill-opacity: 1; white-space: pre;">4</text><g class="layers" style="opacity: 1;"><g class="legendfill"/><g class="legendlines"/><g class="legendsymbols"><g class="legendpoints"><path class="legendbox" d="M6,6H-6V-6H6Z" transform="translate(20,0)" style="stroke-width: 0.5px; fill: rgb(237, 217, 163); fill-opacity: 0.5; stroke: rgb(237, 217, 163); stroke-opacity: 1;"/></g></g></g><rect class="legendtoggle" x="0" y="-9.5" width="46.375" height="19" style="fill: rgb(0, 0, 0); fill-opacity: 0;"/></g></g></g><rect class="scrollbar" rx="20" ry="3" width="0" height="0" x="0" y="0" style="fill: rgb(128, 139, 164); fill-opacity: 1;"/></g><g class="g-gtitle"/><g class="g-xtitle"/><g class="g-ytitle"><text class="ytitle" transform="rotate(-90,41.09375,115)" x="41.09375" y="115" text-anchor="middle" style="font-family: 'Open Sans', verdana, arial, sans-serif; font-size: 10px; fill: rgb(0, 0, 0); opacity: 1; font-weight: normal; white-space: pre;">Fixed mutations/Total allele frequency</text></g></g></svg>