<svg class="main-svg" xmlns="http://www.w3.org/2000/svg" xmlns:xlink="http://www.w3.org/1999/xlink" width="260" height="220" style="" viewBox="0 0 260 220"><rect x="0" y="0" width="260" height="220" style="fill: rgb(255, 255, 255); fill-opacity: 1;"/><defs id="defs-9efe0b"><g class="clips"><clipPath id="clip9efe0bxyplot" class="plotclip"><rect width="160" height="167"/></clipPath><clipPath class="axesclip" id="clip9efe0bx"><rect x="34" y="0" width="160" height="220"/></clipPath><clipPath class="axesclip" id="clip9efe0by"><rect x="0" y="20" width="260" height="167"/></clipPath><clipPath class="axesclip" id="clip9efe0bxy"><rect x="34" y="20" width="160" height="167"/></clipPath></g><g class="gradients"/><g class="patterns"/></defs><g class="bglayer"><rect class="bg" x="34" y="20" width="160" height="167" style="fill: rgb(229, 236, 246); fill-opacity: 1; stroke-width: 0;"/></g><g class="layer-below"><g class="imagelayer"/><g class="shapelayer"/></g><g class="cartesianlayer"><g class="subplot xy"><g class="layer-subplot"><g class="shapelayer"/><g class="imagelayer"/></g><g class="minor-gridlayer"><g class="x"/><g class="y"/></g><g class="gridlayer"><g class="x"/><g class="y"><path class="ygrid crisp" transform="translate(0,182.4)" d="M34,0h160" style="stroke: rgb(255, 255, 255); stroke-opacity: 1; stroke-width: 1px;"/><path class="ygrid crisp" transform="translate(0,143.43)" d="M34,0h160" style="stroke: rgb(255, 255, 255); stroke-opacity: 1; stroke-width: 1px;"/><path class="ygrid crisp" transform="translate(0,104.46)" d="M34,0h160" style="stroke: rgb(255, 255, 255); stroke-opacity: 1; stroke-width: 1px;"/><path class="ygrid crisp" transform="translate(0,65.49000000000001)" d="M34,0h160" style="stroke: rgb(255, 255, 255); stroke-opacity: 1; stroke-width: 1px;"/><path class="ygrid crisp" transform="translate(0,26.52)" d="M34,0h160" style="stroke: rgb(255, 255, 255); stroke-opacity: 1; stroke-width: 1px;"/></g></g><g class="zerolinelayer"/><path class="xlines-below"/><path class="ylines-below"/><g class="overlines-below"/><g class="xaxislayer-below"/><g class="yaxislayer-below"/><g class="overaxes-below"/><g class="plot" transform="translate(34,20)" clip-path="url(#clip9efe0bxyplot)"><g class="boxlayer mlayer"><g class="trace boxes" style="opacity: 1;"><path class="box" d="M6.93,36.24H14.4M6.93,137.65H14.4V21.54H6.93ZM10.67,137.65V142.45M10.67,21.54V19.17M8.8,142.45H12.53M8.8,19.17H12.53" style="vector-effect: non-scaling-stroke; stroke-width: 0.5px; stroke: rgb(164, 49, 160); stroke-opacity: 1; fill: rgb(164, 49, 160); fill-opacity: 0.5;"/><path class="box" d="M46.93,60.78H54.4M46.93,85.38H54.4V38.63H46.93ZM50.67,85.38V90.44M50.67,38.63V23.49M48.8,90.44H52.53M48.8,23.49H52.53" style="vector-effect: non-scaling-stroke; stroke-width: 0.5px; stroke: rgb(164, 49, 160); stroke-opacity: 1; fill: rgb(164, 49, 160); fill-opacity: 0.5;"/><path class="box" d="M86.93,60.83H94.4M86.93,91.79H94.4V25.34H86.93ZM90.67,91.79V108.67M90.67,25.34V8.35M88.8,108.67H92.53M88.8,8.35H92.53" style="vector-effect: non-scaling-stroke; stroke-width: 0.5px; stroke: rgb(164, 49, 160); stroke-opacity: 1; fill: rgb(164, 49, 160); fill-opacity: 0.5;"/><path class="box" d="M126.93,51.72H134.4M126.93,86.95H134.4V31.14H126.93ZM130.67,86.95V114.27M130.67,31.14V21.55M128.8,114.27H132.53M128.8,21.55H132.53" style="vector-effect: non-scaling-stroke; stroke-width: 0.5px; stroke: rgb(164, 49, 160); stroke-opacity: 1; fill: rgb(164, 49, 160); fill-opacity: 0.5;"/><g class="points"><path class="point" transform="translate(12.6,142.45)" d="M1.5,0A1.5,1.5 0 1,1 0,-1.5A1.5,1.5 0 0,1 1.5,0Z" style="opacity: 1; stroke-width: 0px; fill: rgb(164, 49, 160); fill-opacity: 1;"/><path class="point" transform="translate(8.29,132.86)" d="M1.5,0A1.5,1.5 0 1,1 0,-1.5A1.5,1.5 0 0,1 1.5,0Z" style="opacity: 1; stroke-width: 0px; fill: rgb(164, 49, 160); fill-opacity: 1;"/><path class="point" transform="translate(13.56,36.24)" d="M1.5,0A1.5,1.5 0 1,1 0,-1.5A1.5,1.5 0 0,1 1.5,0Z" style="opacity: 1; stroke-width: 0px; fill: rgb(164, 49, 160); fill-opacity: 1;"/><path class="point" transform="translate(7.51,23.92)" d="M1.5,0A1.5,1.5 0 1,1 0,-1.5A1.5,1.5 0 0,1 1.5,0Z" style="opacity: 1; stroke-width: 0px; fill: rgb(164, 49, 160); fill-opacity: 1;"/><path class="point" transform="translate(9.75,19.17)" d="M1.5,0A1.5,1.5 0 1,1 0,-1.5A1.5,1.5 0 0,1 1.5,0Z" style="opacity: 1; stroke-width: 0px; fill: rgb(164, 49, 160); fill-opacity: 1;"/></g><g class="points"><path class="point" transform="translate(52.63,90.44)" d="M1.5,0A1.5,1.5 0 1,1 0,-1.5A1.5,1.5 0 0,1 1.5,0Z" style="opacity: 1; stroke-width: 0px; fill: rgb(164, 49, 160); fill-opacity: 1;"/><path class="point" transform="translate(50.53,80.31)" d="M1.5,0A1.5,1.5 0 1,1 0,-1.5A1.5,1.5 0 0,1 1.5,0Z" style="opacity: 1; stroke-width: 0px; fill: rgb(164, 49, 160); fill-opacity: 1;"/><path class="point" transform="translate(51.75,60.78)" d="M1.5,0A1.5,1.5 0 1,1 0,-1.5A1.5,1.5 0 0,1 1.5,0Z" style="opacity: 1; stroke-width: 0px; fill: rgb(164, 49, 160); fill-opacity: 1;"/><path class="point" transform="translate(49.48,53.77)" d="M1.5,0A1.5,1.5 0 1,1 0,-1.5A1.5,1.5 0 0,1 1.5,0Z" style="opacity: 1; stroke-width: 0px; fill: rgb(164, 49, 160); fill-opacity: 1;"/><path class="point" transform="translate(47.93,23.49)" d="M1.5,0A1.5,1.5 0 1,1 0,-1.5A1.5,1.5 0 0,1 1.5,0Z" style="opacity: 1; stroke-width: 0px; fill: rgb(164, 49, 160); fill-opacity: 1;"/></g><g class="points"><path class="point" transform="translate(91.66,108.67)" d="M1.5,0A1.5,1.5 0 1,1 0,-1.5A1.5,1.5 0 0,1 1.5,0Z" style="opacity: 1; stroke-width: 0px; fill: rgb(164, 49, 160); fill-opacity: 1;"/><path class="point" transform="translate(89.44,74.92)" d="M1.5,0A1.5,1.5 0 1,1 0,-1.5A1.5,1.5 0 0,1 1.5,0Z" style="opacity: 1; stroke-width: 0px; fill: rgb(164, 49, 160); fill-opacity: 1;"/><path class="point" transform="translate(93.03,60.83)" d="M1.5,0A1.5,1.5 0 1,1 0,-1.5A1.5,1.5 0 0,1 1.5,0Z" style="opacity: 1; stroke-width: 0px; fill: rgb(164, 49, 160); fill-opacity: 1;"/><path class="point" transform="translate(87.03,42.34)" d="M1.5,0A1.5,1.5 0 1,1 0,-1.5A1.5,1.5 0 0,1 1.5,0Z" style="opacity: 1; stroke-width: 0px; fill: rgb(164, 49, 160); fill-opacity: 1;"/><path class="point" transform="translate(88.51,8.35)" d="M1.5,0A1.5,1.5 0 1,1 0,-1.5A1.5,1.5 0 0,1 1.5,0Z" style="opacity: 1; stroke-width: 0px; fill: rgb(164, 49, 160); fill-opacity: 1;"/></g><g class="points"><path class="point" transform="translate(133.97,114.27)" d="M1.5,0A1.5,1.5 0 1,1 0,-1.5A1.5,1.5 0 0,1 1.5,0Z" style="opacity: 1; stroke-width: 0px; fill: rgb(164, 49, 160); fill-opacity: 1;"/><path class="point" transform="translate(129.73,59.63)" d="M1.5,0A1.5,1.5 0 1,1 0,-1.5A1.5,1.5 0 0,1 1.5,0Z" style="opacity: 1; stroke-width: 0px; fill: rgb(164, 49, 160); fill-opacity: 1;"/><path class="point" transform="translate(127.46,51.72)" d="M1.5,0A1.5,1.5 0 1,1 0,-1.5A1.5,1.5 0 0,1 1.5,0Z" style="opacity: 1; stroke-width: 0px; fill: rgb(164, 49, 160); fill-opacity: 1;"/><path class="point" transform="translate(129.43,40.74)" d="M1.5,0A1.5,1.5 0 1,1 0,-1.5A1.5,1.5 0 0,1 1.5,0Z" style="opacity: 1; stroke-width: 0px; fill: rgb(164, 49, 160); fill-opacity: 1;"/><path class="point" transform="translate(130.59,21.55)" d="M1.5,0A1.5,1.5 0 1,1 0,-1.5A1.5,1.5 0 0,1 1.5,0Z" style="opacity: 1; stroke-width: 0px; fill: rgb(164, 49, 160); fill-opacity: 1;"/></g><path class="mean" d="M6.93,70.93H14.4" style="fill: none; vector-effect: non-scaling-stroke; stroke-width: 0.5; stroke-dasharray: 1px, 0.5px; stroke: rgb(164, 49, 160); stroke-opacity: 1;"/><path class="mean" d="M46.93,61.76H54.4" style="fill: none; vector-effect: non-scaling-stroke; stroke-width: 0.5; stroke-dasharray: 1px, 0.5px; stroke: rgb(164, 49, 160); stroke-opacity: 1;"/><path class="mean" d="M86.93,59.02H94.4" style="fill: none; vector-effect: non-scaling-stroke; stroke-width: 0.5; stroke-dasharray: 1px, 0.5px; stroke: rgb(164, 49, 160); stroke-opacity: 1;"/><path class="mean" d="M126.93,57.58H134.4" style="fill: none; vector-effect: non-scaling-stroke; stroke-width: 0.5; stroke-dasharray: 1px, 0.5px; stroke: rgb(164, 49, 160); stroke-opacity: 1;"/></g><g class="trace boxes" style="opacity: 1;"><path class="box" d="M16.27,101.55H23.73M16.27,124.35H23.73V95.21H16.27ZM20,124.35V136.67M20,95.21V95.13M18.13,136.67H21.87M18.13,95.13H21.87" style="vector-effect: non-scaling-stroke; stroke-width: 0.5px; stroke: rgb(234, 79, 136); stroke-opacity: 1; fill: rgb(234, 79, 136); fill-opacity: 0.5;"/><path class="box" d="M56.27,95.92H63.73M56.27,107.21H63.73V92.8H56.27ZM60,107.21V108.5M60,92.8V91.7M58.13,108.5H61.87M58.13,91.7H61.87" style="vector-effect: non-scaling-stroke; stroke-width: 0.5px; stroke: rgb(234, 79, 136); stroke-opacity: 1; fill: rgb(234, 79, 136); fill-opacity: 0.5;"/><path class="box" d="M96.27,103.73H103.73M96.27,122.58H103.73V97.8H96.27ZM100,122.58V140.78M100,97.8V96.64M98.13,140.78H101.87M98.13,96.64H101.87" style="vector-effect: non-scaling-stroke; stroke-width: 0.5px; stroke: rgb(234, 79, 136); stroke-opacity: 1; fill: rgb(234, 79, 136); fill-opacity: 0.5;"/><path class="box" d="M136.27,110.34H143.73M136.27,140.19H143.73V95.54H136.27ZM140,140.19V158.65M140,95.54V89.02M138.13,158.65H141.87M138.13,89.02H141.87" style="vector-effect: non-scaling-stroke; stroke-width: 0.5px; stroke: rgb(234, 79, 136); stroke-opacity: 1; fill: rgb(234, 79, 136); fill-opacity: 0.5;"/><g class="points"><path class="point" transform="translate(21.94,136.67)" d="M1.5,0A1.5,1.5 0 1,1 0,-1.5A1.5,1.5 0 0,1 1.5,0Z" style="opacity: 1; stroke-width: 0px; fill: rgb(234, 79, 136); fill-opacity: 1;"/><path class="point" transform="translate(17.62,112.03)" d="M1.5,0A1.5,1.5 0 1,1 0,-1.5A1.5,1.5 0 0,1 1.5,0Z" style="opacity: 1; stroke-width: 0px; fill: rgb(234, 79, 136); fill-opacity: 1;"/><path class="point" transform="translate(22.89,101.55)" d="M1.5,0A1.5,1.5 0 1,1 0,-1.5A1.5,1.5 0 0,1 1.5,0Z" style="opacity: 1; stroke-width: 0px; fill: rgb(234, 79, 136); fill-opacity: 1;"/><path class="point" transform="translate(16.84,95.29)" d="M1.5,0A1.5,1.5 0 1,1 0,-1.5A1.5,1.5 0 0,1 1.5,0Z" style="opacity: 1; stroke-width: 0px; fill: rgb(234, 79, 136); fill-opacity: 1;"/><path class="point" transform="translate(19.08,95.13)" d="M1.5,0A1.5,1.5 0 1,1 0,-1.5A1.5,1.5 0 0,1 1.5,0Z" style="opacity: 1; stroke-width: 0px; fill: rgb(234, 79, 136); fill-opacity: 1;"/></g><g class="points"><path class="point" transform="translate(61.96,108.5)" d="M1.5,0A1.5,1.5 0 1,1 0,-1.5A1.5,1.5 0 0,1 1.5,0Z" style="opacity: 1; stroke-width: 0px; fill: rgb(234, 79, 136); fill-opacity: 1;"/><path class="point" transform="translate(59.86,105.92)" d="M1.5,0A1.5,1.5 0 1,1 0,-1.5A1.5,1.5 0 0,1 1.5,0Z" style="opacity: 1; stroke-width: 0px; fill: rgb(234, 79, 136); fill-opacity: 1;"/><path class="point" transform="translate(61.08,95.92)" d="M1.5,0A1.5,1.5 0 1,1 0,-1.5A1.5,1.5 0 0,1 1.5,0Z" style="opacity: 1; stroke-width: 0px; fill: rgb(234, 79, 136); fill-opacity: 1;"/><path class="point" transform="translate(58.81,93.91)" d="M1.5,0A1.5,1.5 0 1,1 0,-1.5A1.5,1.5 0 0,1 1.5,0Z" style="opacity: 1; stroke-width: 0px; fill: rgb(234, 79, 136); fill-opacity: 1;"/><path class="point" transform="translate(57.26,91.7)" d="M1.5,0A1.5,1.5 0 1,1 0,-1.5A1.5,1.5 0 0,1 1.5,0Z" style="opacity: 1; stroke-width: 0px; fill: rgb(234, 79, 136); fill-opacity: 1;"/></g><g class="points"><path class="point" transform="translate(101,140.78)" d="M1.5,0A1.5,1.5 0 1,1 0,-1.5A1.5,1.5 0 0,1 1.5,0Z" style="opacity: 1; stroke-width: 0px; fill: rgb(234, 79, 136); fill-opacity: 1;"/><path class="point" transform="translate(98.77,104.39)" d="M1.5,0A1.5,1.5 0 1,1 0,-1.5A1.5,1.5 0 0,1 1.5,0Z" style="opacity: 1; stroke-width: 0px; fill: rgb(234, 79, 136); fill-opacity: 1;"/><path class="point" transform="translate(102.37,103.73)" d="M1.5,0A1.5,1.5 0 1,1 0,-1.5A1.5,1.5 0 0,1 1.5,0Z" style="opacity: 1; stroke-width: 0px; fill: rgb(234, 79, 136); fill-opacity: 1;"/><path class="point" transform="translate(96.37,98.96)" d="M1.5,0A1.5,1.5 0 1,1 0,-1.5A1.5,1.5 0 0,1 1.5,0Z" style="opacity: 1; stroke-width: 0px; fill: rgb(234, 79, 136); fill-opacity: 1;"/><path class="point" transform="translate(97.84,96.64)" d="M1.5,0A1.5,1.5 0 1,1 0,-1.5A1.5,1.5 0 0,1 1.5,0Z" style="opacity: 1; stroke-width: 0px; fill: rgb(234, 79, 136); fill-opacity: 1;"/></g><g class="points"><path class="point" transform="translate(143.3,158.65)" d="M1.5,0A1.5,1.5 0 1,1 0,-1.5A1.5,1.5 0 0,1 1.5,0Z" style="opacity: 1; stroke-width: 0px; fill: rgb(234, 79, 136); fill-opacity: 1;"/><path class="point" transform="translate(139.06,121.74)" d="M1.5,0A1.5,1.5 0 1,1 0,-1.5A1.5,1.5 0 0,1 1.5,0Z" style="opacity: 1; stroke-width: 0px; fill: rgb(234, 79, 136); fill-opacity: 1;"/><path class="point" transform="translate(136.8,110.34)" d="M1.5,0A1.5,1.5 0 1,1 0,-1.5A1.5,1.5 0 0,1 1.5,0Z" style="opacity: 1; stroke-width: 0px; fill: rgb(234, 79, 136); fill-opacity: 1;"/><path class="point" transform="translate(138.77,102.07)" d="M1.5,0A1.5,1.5 0 1,1 0,-1.5A1.5,1.5 0 0,1 1.5,0Z" style="opacity: 1; stroke-width: 0px; fill: rgb(234, 79, 136); fill-opacity: 1;"/><path class="point" transform="translate(139.92,89.02)" d="M1.5,0A1.5,1.5 0 1,1 0,-1.5A1.5,1.5 0 0,1 1.5,0Z" style="opacity: 1; stroke-width: 0px; fill: rgb(234, 79, 136); fill-opacity: 1;"/></g><path class="mean" d="M16.27,108.13H23.73" style="fill: none; vector-effect: non-scaling-stroke; stroke-width: 0.5; stroke-dasharray: 1px, 0.5px; stroke: rgb(234, 79, 136); stroke-opacity: 1;"/><path class="mean" d="M56.27,99.19H63.73" style="fill: none; vector-effect: non-scaling-stroke; stroke-width: 0.5; stroke-dasharray: 1px, 0.5px; stroke: rgb(234, 79, 136); stroke-opacity: 1;"/><path class="mean" d="M96.27,108.9H103.73" style="fill: none; vector-effect: non-scaling-stroke; stroke-width: 0.5; stroke-dasharray: 1px, 0.5px; stroke: rgb(234, 79, 136); stroke-opacity: 1;"/><path class="mean" d="M136.27,116.36H143.73" style="fill: none; vector-effect: non-scaling-stroke; stroke-width: 0.5; stroke-dasharray: 1px, 0.5px; stroke: rgb(234, 79, 136); stroke-opacity: 1;"/></g><g class="trace boxes" style="opacity: 1;"><path class="box" d="M25.6,93.39H33.07M25.6,94.56H33.07V69.52H25.6ZM29.33,94.56V95.54M29.33,69.52V51.11M27.47,95.54H31.2M27.47,51.11H31.2" style="vector-effect: non-scaling-stroke; stroke-width: 0.5px; stroke: rgb(248, 145, 120); stroke-opacity: 1; fill: rgb(248, 145, 120); fill-opacity: 0.5;"/><path class="box" d="M65.6,110.53H73.07M65.6,120.49H73.07V99.18H65.6ZM69.33,120.49V128.31M69.33,99.18V95.83M67.47,128.31H71.2M67.47,95.83H71.2" style="vector-effect: non-scaling-stroke; stroke-width: 0.5px; stroke: rgb(248, 145, 120); stroke-opacity: 1; fill: rgb(248, 145, 120); fill-opacity: 0.5;"/><path class="box" d="M105.6,123.42H113.07M105.6,137.07H113.07V107.73H105.6ZM109.33,137.07V141.69M109.33,107.73V105.27M107.47,141.69H111.2M107.47,105.27H111.2" style="vector-effect: non-scaling-stroke; stroke-width: 0.5px; stroke: rgb(248, 145, 120); stroke-opacity: 1; fill: rgb(248, 145, 120); fill-opacity: 0.5;"/><path class="box" d="M145.6,144.76H153.07M145.6,153.55H153.07V119.78H145.6ZM149.33,153.55V153.74M149.33,119.78V116.78M147.47,153.74H151.2M147.47,116.78H151.2" style="vector-effect: non-scaling-stroke; stroke-width: 0.5px; stroke: rgb(248, 145, 120); stroke-opacity: 1; fill: rgb(248, 145, 120); fill-opacity: 0.5;"/><g class="points"><path class="point" transform="translate(31.27,95.54)" d="M1.5,0A1.5,1.5 0 1,1 0,-1.5A1.5,1.5 0 0,1 1.5,0Z" style="opacity: 1; stroke-width: 0px; fill: rgb(248, 145, 120); fill-opacity: 1;"/><path class="point" transform="translate(26.95,93.58)" d="M1.5,0A1.5,1.5 0 1,1 0,-1.5A1.5,1.5 0 0,1 1.5,0Z" style="opacity: 1; stroke-width: 0px; fill: rgb(248, 145, 120); fill-opacity: 1;"/><path class="point" transform="translate(32.23,93.39)" d="M1.5,0A1.5,1.5 0 1,1 0,-1.5A1.5,1.5 0 0,1 1.5,0Z" style="opacity: 1; stroke-width: 0px; fill: rgb(248, 145, 120); fill-opacity: 1;"/><path class="point" transform="translate(26.18,87.93)" d="M1.5,0A1.5,1.5 0 1,1 0,-1.5A1.5,1.5 0 0,1 1.5,0Z" style="opacity: 1; stroke-width: 0px; fill: rgb(248, 145, 120); fill-opacity: 1;"/><path class="point" transform="translate(28.41,51.11)" d="M1.5,0A1.5,1.5 0 1,1 0,-1.5A1.5,1.5 0 0,1 1.5,0Z" style="opacity: 1; stroke-width: 0px; fill: rgb(248, 145, 120); fill-opacity: 1;"/></g><g class="points"><path class="point" transform="translate(71.29,128.31)" d="M1.5,0A1.5,1.5 0 1,1 0,-1.5A1.5,1.5 0 0,1 1.5,0Z" style="opacity: 1; stroke-width: 0px; fill: rgb(248, 145, 120); fill-opacity: 1;"/><path class="point" transform="translate(69.19,112.68)" d="M1.5,0A1.5,1.5 0 1,1 0,-1.5A1.5,1.5 0 0,1 1.5,0Z" style="opacity: 1; stroke-width: 0px; fill: rgb(248, 145, 120); fill-opacity: 1;"/><path class="point" transform="translate(70.42,110.53)" d="M1.5,0A1.5,1.5 0 1,1 0,-1.5A1.5,1.5 0 0,1 1.5,0Z" style="opacity: 1; stroke-width: 0px; fill: rgb(248, 145, 120); fill-opacity: 1;"/><path class="point" transform="translate(68.14,102.52)" d="M1.5,0A1.5,1.5 0 1,1 0,-1.5A1.5,1.5 0 0,1 1.5,0Z" style="opacity: 1; stroke-width: 0px; fill: rgb(248, 145, 120); fill-opacity: 1;"/><path class="point" transform="translate(66.6,95.83)" d="M1.5,0A1.5,1.5 0 1,1 0,-1.5A1.5,1.5 0 0,1 1.5,0Z" style="opacity: 1; stroke-width: 0px; fill: rgb(248, 145, 120); fill-opacity: 1;"/></g><g class="points"><path class="point" transform="translate(110.33,141.69)" d="M1.5,0A1.5,1.5 0 1,1 0,-1.5A1.5,1.5 0 0,1 1.5,0Z" style="opacity: 1; stroke-width: 0px; fill: rgb(248, 145, 120); fill-opacity: 1;"/><path class="point" transform="translate(108.1,132.46)" d="M1.5,0A1.5,1.5 0 1,1 0,-1.5A1.5,1.5 0 0,1 1.5,0Z" style="opacity: 1; stroke-width: 0px; fill: rgb(248, 145, 120); fill-opacity: 1;"/><path class="point" transform="translate(111.7,123.42)" d="M1.5,0A1.5,1.5 0 1,1 0,-1.5A1.5,1.5 0 0,1 1.5,0Z" style="opacity: 1; stroke-width: 0px; fill: rgb(248, 145, 120); fill-opacity: 1;"/><path class="point" transform="translate(105.7,110.2)" d="M1.5,0A1.5,1.5 0 1,1 0,-1.5A1.5,1.5 0 0,1 1.5,0Z" style="opacity: 1; stroke-width: 0px; fill: rgb(248, 145, 120); fill-opacity: 1;"/><path class="point" transform="translate(107.17,105.27)" d="M1.5,0A1.5,1.5 0 1,1 0,-1.5A1.5,1.5 0 0,1 1.5,0Z" style="opacity: 1; stroke-width: 0px; fill: rgb(248, 145, 120); fill-opacity: 1;"/></g><g class="points"><path class="point" transform="translate(152.64,153.74)" d="M1.5,0A1.5,1.5 0 1,1 0,-1.5A1.5,1.5 0 0,1 1.5,0Z" style="opacity: 1; stroke-width: 0px; fill: rgb(248, 145, 120); fill-opacity: 1;"/><path class="point" transform="translate(148.4,153.36)" d="M1.5,0A1.5,1.5 0 1,1 0,-1.5A1.5,1.5 0 0,1 1.5,0Z" style="opacity: 1; stroke-width: 0px; fill: rgb(248, 145, 120); fill-opacity: 1;"/><path class="point" transform="translate(146.13,144.76)" d="M1.5,0A1.5,1.5 0 1,1 0,-1.5A1.5,1.5 0 0,1 1.5,0Z" style="opacity: 1; stroke-width: 0px; fill: rgb(248, 145, 120); fill-opacity: 1;"/><path class="point" transform="translate(148.1,122.77)" d="M1.5,0A1.5,1.5 0 1,1 0,-1.5A1.5,1.5 0 0,1 1.5,0Z" style="opacity: 1; stroke-width: 0px; fill: rgb(248, 145, 120); fill-opacity: 1;"/><path class="point" transform="translate(149.25,116.78)" d="M1.5,0A1.5,1.5 0 1,1 0,-1.5A1.5,1.5 0 0,1 1.5,0Z" style="opacity: 1; stroke-width: 0px; fill: rgb(248, 145, 120); fill-opacity: 1;"/></g><path class="mean" d="M25.6,84.31H33.07" style="fill: none; vector-effect: non-scaling-stroke; stroke-width: 0.5; stroke-dasharray: 1px, 0.5px; stroke: rgb(248, 145, 120); stroke-opacity: 1;"/><path class="mean" d="M65.6,109.97H73.07" style="fill: none; vector-effect: non-scaling-stroke; stroke-width: 0.5; stroke-dasharray: 1px, 0.5px; stroke: rgb(248, 145, 120); stroke-opacity: 1;"/><path class="mean" d="M105.6,122.61H113.07" style="fill: none; vector-effect: non-scaling-stroke; stroke-width: 0.5; stroke-dasharray: 1px, 0.5px; stroke: rgb(248, 145, 120); stroke-opacity: 1;"/><path class="mean" d="M145.6,138.28H153.07" style="fill: none; vector-effect: non-scaling-stroke; stroke-width: 0.5; stroke-dasharray: 1px, 0.5px; stroke: rgb(248, 145, 120); stroke-opacity: 1;"/></g></g></g><g class="overplot"/><path class="xlines-above crisp" d="M0,0" style="fill: none;"/><path class="ylines-above crisp" d="M0,0" style="fill: none;"/><g class="overlines-above"/><g class="xaxislayer-above"><g class="xtick"><text text-anchor="middle" x="0" y="198" transform="translate(54,0)" style="font-family: 'Open Sans', verdana, arial, sans-serif; font-size: 10px; fill: rgb(0, 0, 0); fill-opacity: 1; white-space: pre; opacity: 1;">T11</text></g><g class="xtick"><text text-anchor="middle" x="0" y="198" transform="translate(94,0)" style="font-family: 'Open Sans', verdana, arial, sans-serif; font-size: 10px; fill: rgb(0, 0, 0); fill-opacity: 1; white-space: pre; opacity: 1;">T22</text></g><g class="xtick"><text text-anchor="middle" x="0" y="198" transform="translate(134,0)" style="font-family: 'Open Sans', verdana, arial, sans-serif; font-size: 10px; fill: rgb(0, 0, 0); fill-opacity: 1; white-space: pre; opacity: 1;">T33</text></g><g class="xtick"><text text-anchor="middle" x="0" y="198" transform="translate(174,0)" style="font-family: 'Open Sans', verdana, arial, sans-serif; font-size: 10px; fill: rgb(0, 0, 0); fill-opacity: 1; white-space: pre; opacity: 1;">T44</text></g></g><g class="yaxislayer-above"><g class="ytick"><text text-anchor="end" x="33" y="3.5" transform="translate(0,182.4)" style="font-family: 'Open Sans', verdana, arial, sans-serif; font-size: 10px; fill: rgb(0, 0, 0); fill-opacity: 1; white-space: pre; opacity: 1;">0.2</text></g><g class="ytick"><text text-anchor="end" x="33" y="3.5" style="font-family: 'Open Sans', verdana, arial, sans-serif; font-size: 10px; fill: rgb(0, 0, 0); fill-opacity: 1; white-space: pre; opacity: 1;" transform="translate(0,143.43)">0.4</text></g><g class="ytick"><text text-anchor="end" x="33" y="3.5" style="font-family: 'Open Sans', verdana, arial, sans-serif; font-size: 10px; fill: rgb(0, 0, 0); fill-opacity: 1; white-space: pre; opacity: 1;" transform="translate(0,104.46)">0.6</text></g><g class="ytick"><text text-anchor="end" x="33" y="3.5" style="font-family: 'Open Sans', verdana, arial, sans-serif; font-size: 10px; fill: rgb(0, 0, 0); fill-opacity: 1; white-space: pre; opacity: 1;" transform="translate(0,65.49000000000001)">0.8</text></g><g class="ytick"><text text-anchor="end" x="33" y="3.5" style="font-family: 'Open Sans', verdana, arial, sans-serif; font-size: 10px; fill: rgb(0, 0, 0); fill-opacity: 1; white-space: pre; opacity: 1;" transform="translate(0,26.52)">1</text></g></g><g class="overaxes-above"/></g></g><g class="polarlayer"/><g class="smithlayer"/><g class="ternarylayer"/><g class="geolayer"/><g class="funnelarealayer"/><g class="pielayer"/><g class="iciclelayer"/><g class="treemaplayer"/><g class="sunburstlayer"/><g class="glimages"/><defs id="topdefs-9efe0b"><g class="clips"/><clipPath id="legend9efe0b"><rect width="51" height="80" x="0" y="0"/></clipPath></defs><g class="layer-above"><g class="imagelayer"/><g class="shapelayer"/></g><g class="infolayer"><g class="legend" pointer-events="all" transform="translate(197.2,20)"><rect class="bg" shape-rendering="crispEdges" width="51" height="80" x="0" y="0" style="stroke: rgb(68, 68, 68); stroke-opacity: 1; fill: rgb(255, 255, 255); fill-opacity: 1; stroke-width: 0px;"/><g class="scrollbox" transform="" clip-path="url(#legend9efe0b)"><text class="legendtitletext" text-anchor="start" x="2" y="13" style="font-family: 'Open Sans', verdana, arial, sans-serif; font-size: 10px; fill: rgb(0, 0, 0); fill-opacity: 1; white-space: pre;">Condition</text><g class="groups" transform=""><g class="traces" transform="translate(0,27.5)" style="opacity: 1;"><text class="legendtext" text-anchor="start" x="40" y="3.9" style="font-family: 'Open Sans', verdana, arial, sans-serif; font-size: 10px; fill: rgb(0, 0, 0); fill-opacity: 1; white-space: pre;">2</text><g class="layers" style="opacity: 1;"><g class="legendfill"/><g class="legendlines"/><g class="legendsymbols"><g class="legendpoints"><path class="legendbox" d="M6,6H-6V-6H6Z" transform="translate(20,0)" style="stroke-width: 0.5px; fill: rgb(164, 49, 160); fill-opacity: 0.5; stroke: rgb(164, 49, 160); stroke-opacity: 1;"/></g></g></g><rect class="legendtoggle" x="0" y="-9.5" width="46" height="19" style="fill: rgb(0, 0, 0); fill-opacity: 0;"/></g></g><g class="groups" transform=""><g class="traces" transform="translate(0,46.5)" style="opacity: 1;"><text class="legendtext" text-anchor="start" x="40" y="3.9" style="font-family: 'Open Sans', verdana, arial, sans-serif; font-size: 10px; fill: rgb(0, 0, 0); fill-opacity: 1; white-space: pre;">3</text><g class="layers" style="opacity: 1;"><g class="legendfill"/><g class="legendlines"/><g class="legendsymbols"><g class="legendpoints"><path class="legendbox" d="M6,6H-6V-6H6Z" transform="translate(20,0)" style="stroke-width: 0.5px; fill: rgb(234, 79, 136); fill-opacity: 0.5; stroke: rgb(234, 79, 136); stroke-opacity: 1;"/></g></g></g><rect class="legendtoggle" x="0" y="-9.5" width="46" height="19" style="fill: rgb(0, 0, 0); fill-opacity: 0;"/></g></g><g class="groups" transform=""><g class="traces" transform="translate(0,65.5)" style="opacity: 1;"><text class="legendtext" text-anchor="start" x="40" y="3.9" style="font-family: 'Open Sans', verdana, arial, sans-serif; font-size: 10px; fill: rgb(0, 0, 0); fill-opacity: 1; white-space: pre;">4</text><g class="layers" style="opacity: 1;"><g class="legendfill"/><g class="legendlines"/><g class="legendsymbols"><g class="legendpoints"><path class="legendbox" d="M6,6H-6V-6H6Z" transform="translate(20,0)" style="stroke-width: 0.5px; fill: rgb(248, 145, 120); fill-opacity: 0.5; stroke: rgb(248, 145, 120); stroke-opacity: 1;"/></g></g></g><rect class="legendtoggle" x="0" y="-9.5" width="46" height="19" style="fill: rgb(0, 0, 0); fill-opacity: 0;"/></g></g></g><rect class="scrollbar" rx="20" ry="3" width="0" height="0" x="0" y="0" style="fill: rgb(128, 139, 164); fill-opacity: 1;"/></g><g class="g-gtitle"/><g class="g-xtitle" transform="translate(0,4)"><text class="xtitle" x="114" y="208" text-anchor="middle" style="font-family: 'Open Sans', verdana, arial, sans-serif; font-size: 10px; fill: rgb(0, 0, 0); opacity: 1; font-weight: normal; white-space: pre;">Time-point</text></g><g class="g-ytitle"><text class="ytitle" transform="rotate(-90,11.890625,103.5)" x="11.890625" y="103.5" text-anchor="middle" style="font-family: 'Open Sans', verdana, arial, sans-serif; font-size: 10px; fill: rgb(0, 0, 0); opacity: 1; font-weight: normal; white-space: pre;">Ratio fixed mutations</text></g></g></svg>