<svg class="main-svg" xmlns="http://www.w3.org/2000/svg" xmlns:xlink="http://www.w3.org/1999/xlink" width="400" height="250" style="" viewBox="0 0 400 250"><rect x="0" y="0" width="400" height="250" style="fill: rgb(255, 255, 255); fill-opacity: 1;"/><defs id="defs-1c9e3a"><g class="clips"><clipPath id="clip1c9e3axyplot" class="plotclip"><rect width="274" height="182"/></clipPath><clipPath class="axesclip" id="clip1c9e3ax"><rect x="58" y="0" width="274" height="250"/></clipPath><clipPath class="axesclip" id="clip1c9e3ay"><rect x="0" y="20" width="400" height="182"/></clipPath><clipPath class="axesclip" id="clip1c9e3axy"><rect x="58" y="20" width="274" height="182"/></clipPath></g><g class="gradients"/><g class="patterns"/></defs><g class="bglayer"><rect class="bg" x="58" y="20" width="274" height="182" style="fill: rgb(229, 236, 246); fill-opacity: 1; stroke-width: 0;"/></g><g class="layer-below"><g class="imagelayer"/><g class="shapelayer"/></g><g class="cartesianlayer"><g class="subplot xy"><g class="layer-subplot"><g class="shapelayer"/><g class="imagelayer"/></g><g class="minor-gridlayer"><g class="x"/><g class="y"/></g><g class="gridlayer"><g class="x"><path class="xgrid crisp" transform="translate(120.27000000000001,0)" d="M0,20v182" style="stroke: rgb(255, 255, 255); stroke-opacity: 1; stroke-width: 1px;"/><path class="xgrid crisp" transform="translate(182.55,0)" d="M0,20v182" style="stroke: rgb(255, 255, 255); stroke-opacity: 1; stroke-width: 1px;"/><path class="xgrid crisp" transform="translate(244.82,0)" d="M0,20v182" style="stroke: rgb(255, 255, 255); stroke-opacity: 1; stroke-width: 1px;"/><path class="xgrid crisp" transform="translate(307.09000000000003,0)" d="M0,20v182" style="stroke: rgb(255, 255, 255); stroke-opacity: 1; stroke-width: 1px;"/></g><g class="y"><path class="ygrid crisp" transform="translate(0,192.9)" d="M58,0h274" style="stroke: rgb(255, 255, 255); stroke-opacity: 1; stroke-width: 1px;"/><path class="ygrid crisp" transform="translate(0,152.2)" d="M58,0h274" style="stroke: rgb(255, 255, 255); stroke-opacity: 1; stroke-width: 1px;"/><path class="ygrid crisp" transform="translate(0,111.5)" d="M58,0h274" style="stroke: rgb(255, 255, 255); stroke-opacity: 1; stroke-width: 1px;"/><path class="ygrid crisp" transform="translate(0,70.8)" d="M58,0h274" style="stroke: rgb(255, 255, 255); stroke-opacity: 1; stroke-width: 1px;"/><path class="ygrid crisp" transform="translate(0,30.1)" d="M58,0h274" style="stroke: rgb(255, 255, 255); stroke-opacity: 1; stroke-width: 1px;"/></g></g><g class="zerolinelayer"><path class="xzl zl crisp" transform="translate(58,0)" d="M0,20v182" style="stroke: rgb(255, 255, 255); stroke-opacity: 1; stroke-width: 2px;"/></g><path class="xlines-below"/><path class="ylines-below"/><g class="overlines-below"/><g class="xaxislayer-below"/><g class="yaxislayer-below"/><g class="overaxes-below"/><g class="plot" transform="translate(58,20)" clip-path="url(#clip1c9e3axyplot)"><g class="scatterlayer mlayer"><g class="trace scatter trace7249b8" style="stroke-miterlimit: 2; opacity: 1;"><g class="fills"/><g class="errorbars"/><g class="lines"><path class="js-line" d="M0,17.63L12.45,105.72L18.68,172.9L24.91,70.07L31.14,52.24L37.36,63.79L43.59,59.12L49.82,49.64L56.05,64.18L62.27,57.29L68.5,71.15L74.73,68.83L80.95,39.99L87.18,39.24L93.41,40.25L99.64,39.99L105.86,35.11L118.32,37.71L124.55,39.48L137,34.53L143.23,37.12L149.45,38.12L155.68,37.71L161.91,39.73L168.14,37.12L174.36,39.99L180.59,49.96L186.82,39L193.05,44.24L199.27,41.09L205.5,36.94L211.73,38.55L217.95,36.23L224.18,35.27L230.41,35.11L236.64,35.58L242.86,37.91L249.09,33.35L255.32,34.53L261.55,36.58L267.77,35.9L274,39.99" style="vector-effect: none; fill: none; stroke: rgb(117, 112, 179); stroke-opacity: 1; stroke-width: 1px; opacity: 1;"/></g><g class="points"/><g class="text"/></g><g class="trace scatter tracee0583d" style="stroke-miterlimit: 2; opacity: 1;"><g class="fills"/><g class="errorbars"/><g class="lines"><path class="js-line" d="M0,17.63L6.23,56.08L12.45,132.2L18.68,172.9L24.91,72.8L31.14,58.06L37.36,64.59L43.59,60.34L49.82,47.46L56.05,72.38L62.27,72.69L68.5,77.64L74.73,85.37L80.95,39.99L87.18,37.31L93.41,45.61L99.64,39L105.86,37.71L112.09,37.31L118.32,33.35L124.55,34.26L130.77,44.68L137,40.8L143.23,35.27L149.45,70.31L155.68,41.39L161.91,59.83L168.14,39.24L174.36,36.06L180.59,33.73L186.82,41.09L193.05,36.94L199.27,33.73L211.73,37.71L217.95,34.82L224.18,31.28L230.41,40.52L236.64,35.42L242.86,37.51L249.09,36.23L255.32,40.52L261.55,34.97L267.77,34.82L274,38.55" style="vector-effect: none; fill: none; stroke: rgb(117, 112, 179); stroke-opacity: 1; stroke-width: 1px; opacity: 1;"/></g><g class="points"/><g class="text"/></g><g class="trace scatter trace9e7728" style="stroke-miterlimit: 2; opacity: 1;"><g class="fills"/><g class="errorbars"/><g class="lines"><path class="js-line" d="M0,17.63L6.23,63.41L12.45,115L18.68,132.2L24.91,74.69L31.14,55.77L37.36,66.46L43.59,79.25L49.82,45.18L56.05,67.57L62.27,43.83L74.73,59.12L80.95,38.12L87.18,40.25L93.41,46.11L99.64,39.24L105.86,35.9L112.09,40.25L118.32,39.48L124.55,37.71L130.77,49.19L137,52.77L143.23,35.73L149.45,54.47L155.68,41.7L161.91,51.44L168.14,42.02L174.36,35.42L180.59,35.73L186.82,36.4L193.05,33.23L199.27,36.06L205.5,35.27L217.95,36.23L224.18,41.7L230.41,39.73L236.64,30.45L242.86,32.31L249.09,36.94L255.32,40.25L261.55,36.06L267.77,31.09L274,30.36" style="vector-effect: none; fill: none; stroke: rgb(117, 112, 179); stroke-opacity: 1; stroke-width: 1px; opacity: 1;"/></g><g class="points"/><g class="text"/></g><g class="trace scatter trace530786" style="stroke-miterlimit: 2; opacity: 1;"><g class="fills"/><g class="errorbars"/><g class="lines"><path class="js-line" d="M0,17.63L6.23,61.15L12.45,132.2L18.68,126.07L24.91,71.51L31.14,52.24L37.36,67.57L43.59,71.15L49.82,48.69L56.05,52.03L62.27,58.06L68.5,58.68L74.73,57.86L80.95,40.8L87.18,38.77L93.41,42.7L99.64,35.58L105.86,32.42L112.09,37.31L118.32,41.39L124.55,39.99L137,44.68L143.23,35.27L149.45,54.34L155.68,64.18L161.91,66.01L168.14,47.83L180.59,33.11L186.82,58.9L193.05,43.06L199.27,45.13L205.5,41.09L211.73,39.48L217.95,33.73L224.18,42.7L230.41,44.24L236.64,36.58L242.86,37.51L249.09,39.48L255.32,34.82L261.55,33.86L267.77,33.23L274,44.24" style="vector-effect: none; fill: none; stroke: rgb(117, 112, 179); stroke-opacity: 1; stroke-width: 1px; opacity: 1;"/></g><g class="points"/><g class="text"/></g><g class="trace scatter tracec0f7a2" style="stroke-miterlimit: 2; opacity: 1;"><g class="fills"/><g class="errorbars"/><g class="lines"><path class="js-line" d="M0,17.63L6.23,62.05L12.45,172.9L18.68,117.98L24.91,74.96L31.14,54.34L37.36,67.57L43.59,74.3L49.82,52.24L56.05,69.54L62.27,60.87L68.5,59.59L74.73,64.18L80.95,35.73L87.18,36.58L93.41,36.23L99.64,37.91L105.86,35.58L112.09,36.4L118.32,39.24L124.55,38.33L130.77,51.73L137,37.71L143.23,36.4L149.45,63.79L155.68,33.6L161.91,54.21L168.14,52.88L174.36,56.41L186.82,34.26L193.05,30.9L199.27,36.4L205.5,32.65L211.73,35.27L217.95,33.99L224.18,32.31L230.41,39.73L236.64,33.48L242.86,51.73L249.09,38.77L255.32,31.09L261.55,31.99L267.77,35.9L274,31.58" style="vector-effect: none; fill: none; stroke: rgb(117, 112, 179); stroke-opacity: 1; stroke-width: 1px; opacity: 1;"/></g><g class="points"/><g class="text"/></g><g class="trace scatter trace69fbcc" style="stroke-miterlimit: 2; opacity: 1;"><g class="fills"/><g class="errorbars"/><g class="lines"><path class="js-line" d="M0,17.63L6.23,79.25L12.45,74.3L18.68,71.15L24.91,57.86L31.14,36.94L37.36,35.42L43.59,44.24L49.82,39.24L56.05,46.65L62.27,31L74.73,39.73L80.95,38.77L87.18,43.06L93.41,43.06L105.86,38.77L112.09,41.7L118.32,39.48L124.55,44.68L137,28.13L143.23,28.84L149.45,33.35L155.68,31.48L161.91,42.36L168.14,44.68L174.36,54.21L180.59,43.44L186.82,33.11L193.05,27.48L199.27,15.71L205.5,33.11L211.73,26.3L217.95,31.38L230.41,23.09L236.64,30.63L242.86,29.61L249.09,21.04L255.32,25.26L261.55,25.26L267.77,22.71L274,22.71" style="vector-effect: none; fill: none; stroke: rgb(230, 171, 2); stroke-opacity: 1; stroke-width: 1px; opacity: 1;"/></g><g class="points"/><g class="text"/></g><g class="trace scatter trace933a24" style="stroke-miterlimit: 2; opacity: 1;"><g class="fills"/><g class="errorbars"/><g class="lines"><path class="js-line" d="M0,17.63L12.45,74.3L18.68,72.08L24.91,63.41L31.14,35.9L37.36,39.48L43.59,39L49.82,42.36L56.05,52.77L68.5,37.51L74.73,39.24L80.95,31.99L87.18,30.9L99.64,43.44L105.86,37.71L112.09,38.33L118.32,35.42L130.77,38.33L137,37.71L143.23,35.42L149.45,26.3L161.91,47.22L168.14,49.19L174.36,63.41L180.59,37.71L186.82,39.48L193.05,43.44L199.27,50.8L205.5,45.61L211.73,40.8L217.95,39L224.18,40.25L230.41,45.61L236.64,49.96L242.86,43.44L249.09,39L255.32,39.73L261.55,42.36L267.77,51.73L274,45.61" style="vector-effect: none; fill: none; stroke: rgb(230, 171, 2); stroke-opacity: 1; stroke-width: 1px; opacity: 1;"/></g><g class="points"/><g class="text"/></g><g class="trace scatter trace430007" style="stroke-miterlimit: 2; opacity: 1;"><g class="fills"/><g class="errorbars"/><g class="lines"><path class="js-line" d="M0,17.63L6.23,65.96L12.45,85.37L18.68,77.28L24.91,64.18L31.14,35.58L37.36,47.22L43.59,37.71L49.82,29.94L56.05,48.48L62.27,41.39L68.5,35.27L74.73,37.31L80.95,29.37L87.18,24.78L93.41,33.73L99.64,39.99L105.86,31.19L112.09,32.76L118.32,31.78L124.55,36.76L130.77,33.11L137,31.89L143.23,25.76L149.45,28.84L155.68,34.4L161.91,48.48L168.14,46.11L174.36,58.06L180.59,44.24L186.82,38.55L193.05,31.38L199.27,43.06L205.5,31L211.73,29.61L217.95,31.28L224.18,28.13L230.41,30.63L236.64,31.78L242.86,33.48L249.09,28.91L255.32,29.45L261.55,34.82L267.77,36.58L274,32.42" style="vector-effect: none; fill: none; stroke: rgb(230, 171, 2); stroke-opacity: 1; stroke-width: 1px; opacity: 1;"/></g><g class="points"/><g class="text"/></g><g class="trace scatter trace366988" style="stroke-miterlimit: 2; opacity: 1;"><g class="fills"/><g class="errorbars"/><g class="lines"><path class="js-line" d="M0,17.63L6.23,61.74L12.45,58.68L18.68,81.79L24.91,67.57L31.14,41.7L37.36,44.68L43.59,37.91L49.82,37.71L56.05,46.65L62.27,39.73L68.5,34.82L74.73,44.24L80.95,30.36L87.18,34.82L93.41,37.51L99.64,39L105.86,36.76L112.09,37.31L118.32,39.24L124.55,39.99L130.77,40.25L137,33.99L143.23,35.11L149.45,33.23L155.68,34.53L161.91,40.25L168.14,32.1L174.36,58.9L180.59,44.24L186.82,32.1L193.05,39.48L199.27,35.27L205.5,37.71L211.73,35.9L217.95,35.58L224.18,38.33L230.41,33.73L236.64,37.91L242.86,38.55L249.09,32.53L255.32,28.62L261.55,39.99L267.77,42.36L274,34.97" style="vector-effect: none; fill: none; stroke: rgb(230, 171, 2); stroke-opacity: 1; stroke-width: 1px; opacity: 1;"/></g><g class="points"/><g class="text"/></g><g class="trace scatter trace55e993" style="stroke-miterlimit: 2; opacity: 1;"><g class="fills"/><g class="errorbars"/><g class="lines"><path class="js-line" d="M0,17.63L6.23,65.03L12.45,64.18L18.68,85.37L24.91,54.61L31.14,35.9L37.36,43.83L43.59,39.73L49.82,36.94L56.05,44.68L62.27,59.83L68.5,55.93L74.73,46.11L80.95,39L87.18,39.24L93.41,36.4L99.64,41.09L105.86,42.02L112.09,47.22L118.32,43.44L124.55,46.11L130.77,50.71L137,33.35L149.45,43.83L155.68,45.13L161.91,59.59L168.14,50.8L174.36,62.37L180.59,52.77L186.82,34.4L193.05,39L199.27,57.29L205.5,44.68L211.73,48.48L217.95,42.02L230.41,48.48L236.64,41.7L242.86,38.33L249.09,39.99L255.32,40.8L261.55,50.8L267.77,56.93L274,43.06" style="vector-effect: none; fill: none; stroke: rgb(230, 171, 2); stroke-opacity: 1; stroke-width: 1px; opacity: 1;"/></g><g class="points"/><g class="text"/></g><g class="trace scatter trace627e0a" style="stroke-miterlimit: 2; opacity: 1;"><g class="fills"/><g class="errorbars"/><g class="lines"><path class="js-line" d="M0,17.63L6.23,60.34L12.45,70.31L18.68,102.14L24.91,63.79L31.14,40.25L37.36,56.08L43.59,49.96L49.82,41.09L56.05,44.68L62.27,44.24L68.5,32.88L74.73,56.93L80.95,32.65L87.18,32.42L93.41,29.61L99.64,37.91L105.86,27.48L112.09,30.45L118.32,32.65L124.55,33.99L130.77,33.99L137,37.51L143.23,30.45L149.45,33.6L155.68,31.68L161.91,47.7L168.14,50.8L174.36,61.15L180.59,50.8L186.82,24.33L193.05,24.33L199.27,33.11L211.73,36.58L217.95,36.23L224.18,37.71L230.41,27.48L242.86,31.38L249.09,30.9L255.32,32.31L261.55,39.48L267.77,48.48L274,38.55" style="vector-effect: none; fill: none; stroke: rgb(217, 95, 2); stroke-opacity: 1; stroke-width: 1px; opacity: 1;"/></g><g class="points"/><g class="text"/></g><g class="trace scatter traced76fb5" style="stroke-miterlimit: 2; opacity: 1;"><g class="fills"/><g class="errorbars"/><g class="lines"><path class="js-line" d="M0,17.63L6.23,73.12L12.45,72.08L18.68,91.5L24.91,62.05L31.14,43.44L37.36,52.77L43.59,44.68L49.82,33.86L62.27,44.68L68.5,33.6L74.73,37.71L80.95,33.86L93.41,24.33L99.64,27.41L105.86,26.87L112.09,32.42L118.32,33.99L124.55,39L130.77,38.33L137,35.27L143.23,33.6L149.45,32.76L155.68,34.53L161.91,47.22L168.14,46.11L174.36,39.73L180.59,35.58L186.82,29.77L193.05,22.71L199.27,30.45L205.5,34.4L211.73,32.76L224.18,34.68L230.41,34.26L236.64,36.94L242.86,38.77L249.09,33.11L255.32,31.48L261.55,50.8L267.77,40.25L274,40.25" style="vector-effect: none; fill: none; stroke: rgb(217, 95, 2); stroke-opacity: 1; stroke-width: 1px; opacity: 1;"/></g><g class="points"/><g class="text"/></g><g class="trace scatter trace0206f3" style="stroke-miterlimit: 2; opacity: 1;"><g class="fills"/><g class="errorbars"/><g class="lines"><path class="js-line" d="M0,17.63L6.23,34.53L12.45,69.54L18.68,94.65L24.91,62.71L31.14,42.02L37.36,50.8L43.59,46.11L49.82,37.51L56.05,39.99L62.27,46.93L68.5,61.44L74.73,44.24L80.95,31.38L87.18,33.11L93.41,35.42L99.64,31.58L105.86,28.84L112.09,30.45L118.32,29.69L124.55,33.6L130.77,34.97L137,32.21L143.23,32.42L149.45,31.78L155.68,38.33L161.91,54.08L168.14,51.73L174.36,52.03L180.59,56.41L186.82,41.39L193.05,30.02L199.27,37.31L211.73,37.12L217.95,35.73L224.18,36.4L230.41,32.99L236.64,34.97L242.86,39.48L249.09,33.86L255.32,34.12L261.55,43.44L267.77,48.48L274,23.48" style="vector-effect: none; fill: none; stroke: rgb(217, 95, 2); stroke-opacity: 1; stroke-width: 1px; opacity: 1;"/></g><g class="points"/><g class="text"/></g><g class="trace scatter trace53df08" style="stroke-miterlimit: 2; opacity: 1;"><g class="fills"/><g class="errorbars"/><g class="lines"><path class="js-line" d="M0,17.63L6.23,61.74L12.45,71.15L18.68,82.4L24.91,60.34L31.14,42.36L37.36,49.19L43.59,44.24L49.82,35.58L56.05,41.7L62.27,43.06L68.5,36.23L74.73,39L87.18,26.87L93.41,25.76L99.64,28.13L105.86,21.67L118.32,25.26L124.55,25.41L130.77,43.06L137,27.48L143.23,26.87L149.45,20.17L155.68,23.48L161.91,33.99L168.14,33.86L174.36,30.45L180.59,23.09L186.82,21.35L193.05,17.56L199.27,9.1L205.5,50.8L211.73,25.76L217.95,29.61L224.18,35.58L230.41,30.02L236.64,28.84L242.86,29.77L249.09,33.73L255.32,23.09L261.55,37.31L267.77,35.73L274,35.9" style="vector-effect: none; fill: none; stroke: rgb(217, 95, 2); stroke-opacity: 1; stroke-width: 1px; opacity: 1;"/></g><g class="points"/><g class="text"/></g><g class="trace scatter trace049609" style="stroke-miterlimit: 2; opacity: 1;"><g class="fills"/><g class="errorbars"/><g class="lines"><path class="js-line" d="M0,17.63L6.23,70.31L12.45,70.31L18.68,81.79L24.91,59.59L31.14,31.38L37.36,49.96L43.59,44.68L49.82,36.76L56.05,42.36L62.27,49.34L68.5,57.47L74.73,37.51L80.95,32.65L87.18,34.4L93.41,40.25L99.64,33.99L105.86,28.84L112.09,29.61L118.32,34.97L124.55,35.73L130.77,40.25L137,33.86L143.23,37.12L149.45,38.55L155.68,41.7L161.91,53.46L168.14,55.32L174.36,70.31L180.59,49.96L186.82,41.39L193.05,37.71L199.27,42.02L205.5,37.51L211.73,39.48L217.95,36.94L224.18,38.55L230.41,41.39L236.64,42.02L242.86,40.8L249.09,37.51L255.32,35.9L261.55,46.65L267.77,47.22L274,32.42" style="vector-effect: none; fill: none; stroke: rgb(217, 95, 2); stroke-opacity: 1; stroke-width: 1px; opacity: 1;"/></g><g class="points"/><g class="text"/></g></g></g><g class="overplot"/><path class="xlines-above crisp" d="M0,0" style="fill: none;"/><path class="ylines-above crisp" d="M0,0" style="fill: none;"/><g class="overlines-above"/><g class="xaxislayer-above"><g class="xtick"><text text-anchor="middle" x="0" y="213" transform="translate(58,0)" style="font-family: 'Open Sans', verdana, arial, sans-serif; font-size: 10px; fill: rgb(0, 0, 0); fill-opacity: 1; white-space: pre; opacity: 1;">0</text></g><g class="xtick"><text text-anchor="middle" x="0" y="213" style="font-family: 'Open Sans', verdana, arial, sans-serif; font-size: 10px; fill: rgb(0, 0, 0); fill-opacity: 1; white-space: pre; opacity: 1;" transform="translate(120.27000000000001,0)">10</text></g><g class="xtick"><text text-anchor="middle" x="0" y="213" style="font-family: 'Open Sans', verdana, arial, sans-serif; font-size: 10px; fill: rgb(0, 0, 0); fill-opacity: 1; white-space: pre; opacity: 1;" transform="translate(182.55,0)">20</text></g><g class="xtick"><text text-anchor="middle" x="0" y="213" style="font-family: 'Open Sans', verdana, arial, sans-serif; font-size: 10px; fill: rgb(0, 0, 0); fill-opacity: 1; white-space: pre; opacity: 1;" transform="translate(244.82,0)">30</text></g><g class="xtick"><text text-anchor="middle" x="0" y="213" style="font-family: 'Open Sans', verdana, arial, sans-serif; font-size: 10px; fill: rgb(0, 0, 0); fill-opacity: 1; white-space: pre; opacity: 1;" transform="translate(307.09000000000003,0)">40</text></g></g><g class="yaxislayer-above"><g class="ytick"><text text-anchor="end" x="57" y="3.5" transform="translate(0,192.9)" style="font-family: 'Open Sans', verdana, arial, sans-serif; font-size: 10px; fill: rgb(0, 0, 0); fill-opacity: 1; white-space: pre; opacity: 1;">1</text></g><g class="ytick"><text text-anchor="end" x="57" y="3.5" style="font-family: 'Open Sans', verdana, arial, sans-serif; font-size: 10px; fill: rgb(0, 0, 0); fill-opacity: 1; white-space: pre; opacity: 1;" transform="translate(0,152.2)">100</text></g><g class="ytick"><text text-anchor="end" x="57" y="3.5" style="font-family: 'Open Sans', verdana, arial, sans-serif; font-size: 10px; fill: rgb(0, 0, 0); fill-opacity: 1; white-space: pre; opacity: 1;" transform="translate(0,111.5)">1E+4</text></g><g class="ytick"><text text-anchor="end" x="57" y="3.5" style="font-family: 'Open Sans', verdana, arial, sans-serif; font-size: 10px; fill: rgb(0, 0, 0); fill-opacity: 1; white-space: pre; opacity: 1;" transform="translate(0,70.8)">1E+6</text></g><g class="ytick"><text text-anchor="end" x="57" y="3.5" style="font-family: 'Open Sans', verdana, arial, sans-serif; font-size: 10px; fill: rgb(0, 0, 0); fill-opacity: 1; white-space: pre; opacity: 1;" transform="translate(0,30.1)">1E+8</text></g></g><g class="overaxes-above"/></g></g><g class="polarlayer"/><g class="smithlayer"/><g class="ternarylayer"/><g class="geolayer"/><g class="funnelarealayer"/><g class="pielayer"/><g class="iciclelayer"/><g class="treemaplayer"/><g class="sunburstlayer"/><g class="glimages"/><defs id="topdefs-1c9e3a"><g class="clips"/><clipPath id="legend1c9e3a"><rect width="51" height="80" x="0" y="0"/></clipPath></defs><g class="layer-above"><g class="imagelayer"/><g class="shapelayer"/></g><g class="infolayer"><g class="legend" pointer-events="all" transform="translate(337.48,20)"><rect class="bg" shape-rendering="crispEdges" style="stroke: rgb(68, 68, 68); stroke-opacity: 1; fill: rgb(255, 255, 255); fill-opacity: 1; stroke-width: 0px;" width="51" height="80" x="0" y="0"/><g class="scrollbox" transform="" clip-path="url(#legend1c9e3a)"><text class="legendtitletext" text-anchor="start" x="2" y="13" style="font-family: 'Open Sans', verdana, arial, sans-serif; font-size: 10px; fill: rgb(0, 0, 0); fill-opacity: 1; white-space: pre;">Condition</text><g class="groups" transform=""><g class="traces" transform="translate(0,27.5)" style="opacity: 1;"><text class="legendtext" text-anchor="start" x="40" y="3.9" style="font-family: 'Open Sans', verdana, arial, sans-serif; font-size: 10px; fill: rgb(0, 0, 0); fill-opacity: 1; white-space: pre;">2</text><g class="layers" style="opacity: 1;"><g class="legendfill"/><g class="legendlines"><path class="js-line" d="M5,0h30" style="fill: none; stroke: rgb(117, 112, 179); stroke-opacity: 1; stroke-width: 1px;"/></g><g class="legendsymbols"><g class="legendpoints"/></g></g><rect class="legendtoggle" x="0" y="-9.5" width="46" height="19" style="fill: rgb(0, 0, 0); fill-opacity: 0;"/></g></g><g class="groups" transform=""><g class="traces" transform="translate(0,46.5)" style="opacity: 1;"><text class="legendtext" text-anchor="start" x="40" y="3.9" style="font-family: 'Open Sans', verdana, arial, sans-serif; font-size: 10px; fill: rgb(0, 0, 0); fill-opacity: 1; white-space: pre;">3</text><g class="layers" style="opacity: 1;"><g class="legendfill"/><g class="legendlines"><path class="js-line" d="M5,0h30" style="fill: none; stroke: rgb(230, 171, 2); stroke-opacity: 1; stroke-width: 1px;"/></g><g class="legendsymbols"><g class="legendpoints"/></g></g><rect class="legendtoggle" x="0" y="-9.5" width="46" height="19" style="fill: rgb(0, 0, 0); fill-opacity: 0;"/></g></g><g class="groups" transform=""><g class="traces" transform="translate(0,65.5)" style="opacity: 1;"><text class="legendtext" text-anchor="start" x="40" y="3.9" style="font-family: 'Open Sans', verdana, arial, sans-serif; font-size: 10px; fill: rgb(0, 0, 0); fill-opacity: 1; white-space: pre;">4</text><g class="layers" style="opacity: 1;"><g class="legendfill"/><g class="legendlines"><path class="js-line" d="M5,0h30" style="fill: none; stroke: rgb(217, 95, 2); stroke-opacity: 1; stroke-width: 1px;"/></g><g class="legendsymbols"><g class="legendpoints"/></g></g><rect class="legendtoggle" x="0" y="-9.5" width="46" height="19" style="fill: rgb(0, 0, 0); fill-opacity: 0;"/></g></g></g><rect class="scrollbar" rx="20" ry="3" width="0" height="0" style="fill: rgb(128, 139, 164); fill-opacity: 1;" x="0" y="0"/></g><g class="g-gtitle"/><g class="g-xtitle"><text class="xtitle" x="195" y="237.5" text-anchor="middle" style="font-family: 'Open Sans', verdana, arial, sans-serif; font-size: 10px; fill: rgb(0, 0, 0); opacity: 1; font-weight: normal; white-space: pre;">Transfer</text></g><g class="g-ytitle"><text class="ytitle" transform="rotate(-90,12.78125,111)" x="12.78125" y="111" text-anchor="middle" style="font-family: 'Open Sans', verdana, arial, sans-serif; font-size: 10px; fill: rgb(0, 0, 0); opacity: 1; font-weight: normal; white-space: pre;">CFUs/mL</text></g></g></svg>